<ttFont>
<head>
    <!-- Most of this table will be recalculated by the compiler -->
    <tableVersion value="1.0"/>
    <fontRevision value="1.0"/>
    <checkSumAdjustment value="0x566183f8"/>
    <magicNumber value="0x5f0f3cf5"/>
    <flags value="00000000 00011011"/>
    <unitsPerEm value="1000"/>
    <created value="Tue Jan  8 12:46:00 2013"/>
    <modified value="Thu Nov  6 12:32:39 2014"/>
    <xMin value="-59"/>
    <yMin value="-294"/>
    <xMax value="1312"/>
    <yMax value="1106"/>
    <macStyle value="00000000 00000000"/>
    <lowestRecPPEM value="9"/>
    <fontDirectionHint value="2"/>
    <indexToLocFormat value="0"/>
    <glyphDataFormat value="0"/>
  </head>
    <TTGlyph name=".notdef" xMin="66" yMin="0" xMax="530" yMax="650">
      <contour>
        <pt x="66" y="650" on="1"/>
        <pt x="530" y="650" on="1"/>
        <pt x="530" y="0" on="1"/>
        <pt x="66" y="0" on="1"/>
      </contour>
      <contour>
        <pt x="456" y="604" on="1"/>
        <pt x="140" y="604" on="1"/>
        <pt x="299" y="367" on="1"/>
      </contour>
      <contour>
        <pt x="484" y="88" on="1"/>
        <pt x="484" y="562" on="1"/>
        <pt x="326" y="325" on="1"/>
      </contour>
      <contour>
        <pt x="456" y="47" on="1"/>
        <pt x="299" y="283" on="1"/>
        <pt x="140" y="47" on="1"/>
      </contour>
      <contour>
        <pt x="113" y="88" on="1"/>
        <pt x="270" y="325" on="1"/>
        <pt x="113" y="562" on="1"/>
      </contour>
    </TTGlyph>
    <TTGlyph name="A" xMin="13" yMin="0" xMax="692" yMax="663">
      <contour>
        <pt x="494" y="133" on="1"/>
        <pt x="202" y="133" on="1"/>
        <pt x="158" y="12" on="1"/>
        <pt x="155" y="4" on="0"/>
        <pt x="149" y="0" on="0"/>
        <pt x="140" y="0" on="1"/>
        <pt x="13" y="0" on="1"/>
        <pt x="268" y="663" on="1"/>
        <pt x="404" y="663" on="1"/>
        <pt x="413" y="663" on="0"/>
        <pt x="420" y="658" on="0"/>
        <pt x="424" y="650" on="1"/>
        <pt x="692" y="0" on="1"/>
        <pt x="561" y="0" on="1"/>
        <pt x="552" y="0" on="0"/>
        <pt x="545" y="4" on="0"/>
        <pt x="542" y="12" on="1"/>
      </contour>
      <contour>
        <pt x="243" y="244" on="1"/>
        <pt x="450" y="244" on="1"/>
        <pt x="404" y="363" on="1"/>
        <pt x="386" y="409" on="0"/>
        <pt x="352" y="500" on="0"/>
        <pt x="343" y="530" on="1"/>
        <pt x="338" y="515" on="0"/>
        <pt x="324" y="471" on="0"/>
        <pt x="307" y="421" on="0"/>
        <pt x="287" y="367" on="0"/>
        <pt x="278" y="341" on="1"/>
      </contour>
    </TTGlyph>
    <TTGlyph name="AE" xMin="0" yMin="0" xMax="961" yMax="663">
      <contour>
        <pt x="163" y="12" on="1"/>
        <pt x="159" y="6" on="0"/>
        <pt x="150" y="0" on="0"/>
        <pt x="139" y="0" on="1"/>
        <pt x="0" y="0" on="1"/>
        <pt x="423" y="663" on="1"/>
        <pt x="951" y="663" on="1"/>
        <pt x="951" y="547" on="1"/>
        <pt x="611" y="547" on="1"/>
        <pt x="611" y="396" on="1"/>
        <pt x="918" y="396" on="1"/>
        <pt x="918" y="281" on="1"/>
        <pt x="611" y="281" on="1"/>
        <pt x="611" y="116" on="1"/>
        <pt x="961" y="116" on="1"/>
        <pt x="961" y="0" on="1"/>
        <pt x="473" y="0" on="1"/>
        <pt x="473" y="133" on="1"/>
        <pt x="238" y="133" on="1"/>
      </contour>
      <contour>
        <pt x="307" y="244" on="1"/>
        <pt x="473" y="244" on="1"/>
        <pt x="473" y="524" on="1"/>
        <pt x="458" y="497" on="0"/>
        <pt x="433" y="453" on="0"/>
        <pt x="409" y="413" on="0"/>
        <pt x="384" y="371" on="0"/>
        <pt x="369" y="347" on="1"/>
      </contour>
    </TTGlyph>
    <TTGlyph name="AEacute" xMin="0" yMin="0" xMax="961" yMax="923">
      <component glyphName="AE" x="0" y="0" flags="0x204"/>
      <component glyphName="acute.cap" x="428" y="0" flags="0x4"/>
    </TTGlyph>
    <TTGlyph name="Aacute" xMin="13" yMin="0" xMax="692" yMax="923">
      <component glyphName="A" x="0" y="0" flags="0x204"/>
      <component glyphName="acute.cap" x="143" y="0" flags="0x4"/>
    </TTGlyph>
    <TTGlyph name="Abreve" xMin="13" yMin="0" xMax="692" yMax="894">
      <component glyphName="A" x="0" y="0" flags="0x204"/>
      <component glyphName="breve.cap" x="136" y="0" flags="0x4"/>
    </TTGlyph>
    <TTGlyph name="Acaron" xMin="13" yMin="0" xMax="692" yMax="920">
      <component glyphName="A" x="0" y="0" flags="0x204"/>
      <component glyphName="caron.cap" x="138" y="0" flags="0x4"/>
    </TTGlyph>
    <TTGlyph name="Acircumflex" xMin="13" yMin="0" xMax="692" yMax="909">
      <component glyphName="A" x="0" y="0" flags="0x204"/>
      <component glyphName="circumflex.cap" x="137" y="0" flags="0x4"/>
    </TTGlyph>
    <TTGlyph name="Adieresis" xMin="13" yMin="0" xMax="692" yMax="869">
      <component glyphName="A" x="0" y="0" flags="0x204"/>
      <component glyphName="dieresis.cap" x="137" y="0" flags="0x4"/>
    </TTGlyph>
    <TTGlyph name="Agrave" xMin="13" yMin="0" xMax="692" yMax="923">
      <component glyphName="A" x="0" y="0" flags="0x204"/>
      <component glyphName="grave.cap" x="134" y="0" flags="0x4"/>
    </TTGlyph>
    <TTGlyph name="Amacron" xMin="13" yMin="0" xMax="692" yMax="859">
      <component glyphName="A" x="0" y="0" flags="0x204"/>
      <component glyphName="macron.cap" x="136" y="0" flags="0x4"/>
    </TTGlyph>
    <TTGlyph name="Aogonek" xMin="13" yMin="-221" xMax="697" yMax="663">
      <contour>
        <pt x="494" y="133" on="1"/>
        <pt x="202" y="133" on="1"/>
        <pt x="158" y="12" on="1"/>
        <pt x="155" y="4" on="0"/>
        <pt x="149" y="0" on="0"/>
        <pt x="140" y="0" on="1"/>
        <pt x="13" y="0" on="1"/>
        <pt x="268" y="663" on="1"/>
        <pt x="404" y="663" on="1"/>
        <pt x="413" y="663" on="0"/>
        <pt x="420" y="658" on="0"/>
        <pt x="424" y="650" on="1"/>
        <pt x="692" y="0" on="1"/>
        <pt x="631" y="0" on="1"/>
        <pt x="620" y="0" on="0"/>
        <pt x="605" y="-5" on="0"/>
        <pt x="593" y="-16" on="1"/>
        <pt x="578" y="-30" on="0"/>
        <pt x="556" y="-67" on="0"/>
        <pt x="556" y="-87" on="1"/>
        <pt x="556" y="-113" on="0"/>
        <pt x="590" y="-134" on="0"/>
        <pt x="617" y="-134" on="1"/>
        <pt x="631" y="-134" on="0"/>
        <pt x="661" y="-131" on="0"/>
        <pt x="677" y="-127" on="1"/>
        <pt x="697" y="-194" on="1"/>
        <pt x="643" y="-221" on="0"/>
        <pt x="590" y="-221" on="1"/>
        <pt x="528" y="-221" on="0"/>
        <pt x="454" y="-160" on="0"/>
        <pt x="454" y="-115" on="1"/>
        <pt x="454" y="-73" on="0"/>
        <pt x="504" y="-3" on="0"/>
        <pt x="538" y="21" on="1"/>
      </contour>
      <contour>
        <pt x="243" y="244" on="1"/>
        <pt x="450" y="244" on="1"/>
        <pt x="404" y="363" on="1"/>
        <pt x="386" y="409" on="0"/>
        <pt x="352" y="500" on="0"/>
        <pt x="343" y="530" on="1"/>
        <pt x="338" y="515" on="0"/>
        <pt x="324" y="471" on="0"/>
        <pt x="307" y="421" on="0"/>
        <pt x="287" y="367" on="0"/>
        <pt x="278" y="341" on="1"/>
      </contour>
    </TTGlyph>
    <TTGlyph name="Aring" xMin="13" yMin="0" xMax="692" yMax="889">
      <contour>
        <pt x="344" y="713" on="1"/>
        <pt x="373" y="713" on="0"/>
        <pt x="397" y="741" on="0"/>
        <pt x="397" y="764" on="1"/>
        <pt x="397" y="787" on="0"/>
        <pt x="373" y="815" on="0"/>
        <pt x="344" y="815" on="1"/>
        <pt x="315" y="815" on="0"/>
        <pt x="290" y="787" on="0"/>
        <pt x="290" y="764" on="1"/>
        <pt x="290" y="741" on="0"/>
        <pt x="315" y="713" on="0"/>
      </contour>
      <contour>
        <pt x="267" y="661" on="1"/>
        <pt x="242" y="677" on="0"/>
        <pt x="214" y="729" on="0"/>
        <pt x="214" y="764" on="1"/>
        <pt x="214" y="792" on="0"/>
        <pt x="234" y="839" on="0"/>
        <pt x="269" y="871" on="0"/>
        <pt x="316" y="889" on="0"/>
        <pt x="344" y="889" on="1"/>
        <pt x="372" y="889" on="0"/>
        <pt x="419" y="871" on="0"/>
        <pt x="454" y="839" on="0"/>
        <pt x="474" y="792" on="0"/>
        <pt x="474" y="764" on="1"/>
        <pt x="474" y="729" on="0"/>
        <pt x="445" y="678" on="0"/>
        <pt x="419" y="661" on="1"/>
        <pt x="692" y="0" on="1"/>
        <pt x="561" y="0" on="1"/>
        <pt x="552" y="0" on="0"/>
        <pt x="545" y="4" on="0"/>
        <pt x="542" y="12" on="1"/>
        <pt x="494" y="133" on="1"/>
        <pt x="202" y="133" on="1"/>
        <pt x="158" y="12" on="1"/>
        <pt x="155" y="4" on="0"/>
        <pt x="149" y="0" on="0"/>
        <pt x="140" y="0" on="1"/>
        <pt x="13" y="0" on="1"/>
      </contour>
      <contour>
        <pt x="243" y="244" on="1"/>
        <pt x="450" y="244" on="1"/>
        <pt x="404" y="363" on="1"/>
        <pt x="386" y="409" on="0"/>
        <pt x="352" y="500" on="0"/>
        <pt x="343" y="530" on="1"/>
        <pt x="338" y="515" on="0"/>
        <pt x="324" y="471" on="0"/>
        <pt x="307" y="421" on="0"/>
        <pt x="287" y="367" on="0"/>
        <pt x="278" y="341" on="1"/>
      </contour>
    </TTGlyph>
    <TTGlyph name="Aringacute" xMin="13" yMin="0" xMax="692" yMax="1106">
      <component glyphName="Aring" x="0" y="0" flags="0x204"/>
      <component glyphName="acute.cap" x="135" y="183" flags="0x4"/>
    </TTGlyph>
    <TTGlyph name="Atilde" xMin="13" yMin="0" xMax="692" yMax="880">
      <component glyphName="A" x="0" y="0" flags="0x204"/>
      <component glyphName="tilde.cap" x="137" y="0" flags="0x4"/>
    </TTGlyph>
    <TTGlyph name="B" xMin="68" yMin="0" xMax="617" yMax="663">
      <contour>
        <pt x="348" y="663" on="1"/>
        <pt x="400" y="663" on="0"/>
        <pt x="484" y="644" on="0"/>
        <pt x="543" y="604" on="0"/>
        <pt x="575" y="542" on="0"/>
        <pt x="575" y="499" on="1"/>
        <pt x="575" y="458" on="0"/>
        <pt x="541" y="389" on="0"/>
        <pt x="513" y="358" on="1"/>
        <pt x="557" y="335" on="0"/>
        <pt x="617" y="255" on="0"/>
        <pt x="617" y="194" on="1"/>
        <pt x="617" y="97" on="0"/>
        <pt x="494" y="0" on="0"/>
        <pt x="375" y="0" on="1"/>
        <pt x="68" y="0" on="1"/>
        <pt x="68" y="663" on="1"/>
      </contour>
      <contour>
        <pt x="206" y="116" on="1"/>
        <pt x="367" y="116" on="1"/>
        <pt x="427" y="116" on="0"/>
        <pt x="476" y="155" on="0"/>
        <pt x="476" y="200" on="1"/>
        <pt x="476" y="242" on="0"/>
        <pt x="437" y="279" on="0"/>
        <pt x="382" y="279" on="1"/>
        <pt x="206" y="279" on="1"/>
      </contour>
      <contour>
        <pt x="387" y="388" on="1"/>
        <pt x="398" y="388" on="0"/>
        <pt x="414" y="395" on="0"/>
        <pt x="420" y="405" on="1"/>
        <pt x="428" y="418" on="0"/>
        <pt x="438" y="452" on="0"/>
        <pt x="438" y="472" on="1"/>
        <pt x="438" y="516" on="0"/>
        <pt x="392" y="547" on="0"/>
        <pt x="338" y="547" on="1"/>
        <pt x="206" y="547" on="1"/>
        <pt x="206" y="388" on="1"/>
      </contour>
    </TTGlyph>
    <TTGlyph name="C" xMin="36" yMin="-10" xMax="658" yMax="673">
      <contour>
        <pt x="658" y="135" on="1"/>
        <pt x="632" y="106" on="0"/>
        <pt x="566" y="53" on="0"/>
        <pt x="489" y="13" on="0"/>
        <pt x="402" y="-10" on="0"/>
        <pt x="354" y="-10" on="1"/>
        <pt x="282" y="-10" on="0"/>
        <pt x="164" y="42" on="0"/>
        <pt x="81" y="133" on="0"/>
        <pt x="36" y="258" on="0"/>
        <pt x="36" y="331" on="1"/>
        <pt x="36" y="410" on="0"/>
        <pt x="88" y="537" on="0"/>
        <pt x="176" y="626" on="0"/>
        <pt x="293" y="673" on="0"/>
        <pt x="358" y="673" on="1"/>
        <pt x="463" y="673" on="0"/>
        <pt x="607" y="568" on="0"/>
        <pt x="642" y="474" on="1"/>
        <pt x="553" y="417" on="1"/>
        <pt x="492" y="473" on="1"/>
        <pt x="455" y="507" on="0"/>
        <pt x="390" y="541" on="0"/>
        <pt x="348" y="541" on="1"/>
        <pt x="314" y="541" on="0"/>
        <pt x="253" y="516" on="0"/>
        <pt x="207" y="464" on="0"/>
        <pt x="180" y="385" on="0"/>
        <pt x="180" y="332" on="1"/>
        <pt x="180" y="285" on="0"/>
        <pt x="205" y="207" on="0"/>
        <pt x="253" y="152" on="0"/>
        <pt x="323" y="122" on="0"/>
        <pt x="369" y="122" on="1"/>
        <pt x="400" y="122" on="0"/>
        <pt x="465" y="138" on="0"/>
        <pt x="503" y="156" on="1"/>
        <pt x="604" y="205" on="1"/>
      </contour>
    </TTGlyph>
    <TTGlyph name="Cacute" xMin="36" yMin="-10" xMax="658" yMax="923">
      <component glyphName="C" x="0" y="0" flags="0x204"/>
      <component glyphName="acute.cap" x="148" y="0" flags="0x4"/>
    </TTGlyph>
    <TTGlyph name="Ccaron" xMin="36" yMin="-10" xMax="658" yMax="920">
      <component glyphName="C" x="0" y="0" flags="0x204"/>
      <component glyphName="caron.cap" x="146" y="0" flags="0x4"/>
    </TTGlyph>
    <TTGlyph name="Ccedilla" xMin="36" yMin="-242" xMax="658" yMax="673">
      <contour>
        <pt x="658" y="135" on="1"/>
        <pt x="634" y="108" on="0"/>
        <pt x="574" y="58" on="0"/>
        <pt x="504" y="19" on="0"/>
        <pt x="425" y="-6" on="0"/>
        <pt x="382" y="-9" on="1"/>
        <pt x="370" y="-26" on="0"/>
        <pt x="370" y="-37" on="1"/>
        <pt x="370" y="-48" on="0"/>
        <pt x="404" y="-59" on="0"/>
        <pt x="444" y="-75" on="0"/>
        <pt x="478" y="-105" on="0"/>
        <pt x="478" y="-134" on="1"/>
        <pt x="478" y="-181" on="0"/>
        <pt x="384" y="-242" on="0"/>
        <pt x="290" y="-242" on="1"/>
        <pt x="277" y="-172" on="1"/>
        <pt x="310" y="-167" on="1"/>
        <pt x="339" y="-162" on="0"/>
        <pt x="370" y="-150" on="0"/>
        <pt x="370" y="-140" on="1"/>
        <pt x="370" y="-132" on="0"/>
        <pt x="340" y="-121" on="0"/>
        <pt x="303" y="-107" on="0"/>
        <pt x="273" y="-86" on="0"/>
        <pt x="273" y="-66" on="1"/>
        <pt x="273" y="-51" on="0"/>
        <pt x="292" y="-22" on="0"/>
        <pt x="308" y="-7" on="1"/>
        <pt x="246" y="1" on="0"/>
        <pt x="145" y="58" on="0"/>
        <pt x="74" y="147" on="0"/>
        <pt x="36" y="264" on="0"/>
        <pt x="36" y="331" on="1"/>
        <pt x="36" y="410" on="0"/>
        <pt x="88" y="537" on="0"/>
        <pt x="176" y="626" on="0"/>
        <pt x="293" y="673" on="0"/>
        <pt x="358" y="673" on="1"/>
        <pt x="463" y="673" on="0"/>
        <pt x="607" y="568" on="0"/>
        <pt x="642" y="474" on="1"/>
        <pt x="553" y="417" on="1"/>
        <pt x="492" y="473" on="1"/>
        <pt x="455" y="507" on="0"/>
        <pt x="390" y="541" on="0"/>
        <pt x="348" y="541" on="1"/>
        <pt x="314" y="541" on="0"/>
        <pt x="253" y="516" on="0"/>
        <pt x="207" y="464" on="0"/>
        <pt x="180" y="385" on="0"/>
        <pt x="180" y="332" on="1"/>
        <pt x="180" y="285" on="0"/>
        <pt x="205" y="207" on="0"/>
        <pt x="253" y="152" on="0"/>
        <pt x="323" y="122" on="0"/>
        <pt x="369" y="122" on="1"/>
        <pt x="400" y="122" on="0"/>
        <pt x="465" y="138" on="0"/>
        <pt x="503" y="156" on="1"/>
        <pt x="604" y="205" on="1"/>
      </contour>
    </TTGlyph>
    <TTGlyph name="Ccircumflex" xMin="36" yMin="-10" xMax="658" yMax="909">
      <component glyphName="C" x="0" y="0" flags="0x204"/>
      <component glyphName="circumflex.cap" x="144" y="0" flags="0x4"/>
    </TTGlyph>
    <TTGlyph name="Cdotaccent" xMin="36" yMin="-10" xMax="658" yMax="857">
      <component glyphName="C" x="0" y="0" flags="0x204"/>
      <component glyphName="dotaccent.cap" x="143" y="0" flags="0x4"/>
    </TTGlyph>
    <TTGlyph name="D" xMin="68" yMin="0" xMax="683" yMax="663">
      <contour>
        <pt x="68" y="0" on="1"/>
        <pt x="68" y="663" on="1"/>
        <pt x="289" y="663" on="1"/>
        <pt x="388" y="663" on="0"/>
        <pt x="534" y="624" on="0"/>
        <pt x="585" y="580" on="1"/>
        <pt x="633" y="539" on="0"/>
        <pt x="683" y="416" on="0"/>
        <pt x="683" y="331" on="1"/>
        <pt x="683" y="247" on="0"/>
        <pt x="633" y="124" on="0"/>
        <pt x="585" y="83" on="1"/>
        <pt x="534" y="39" on="0"/>
        <pt x="388" y="0" on="0"/>
        <pt x="289" y="0" on="1"/>
      </contour>
      <contour>
        <pt x="285" y="120" on="1"/>
        <pt x="358" y="120" on="0"/>
        <pt x="458" y="145" on="0"/>
        <pt x="489" y="175" on="1"/>
        <pt x="540" y="224" on="0"/>
        <pt x="540" y="332" on="1"/>
        <pt x="540" y="387" on="0"/>
        <pt x="515" y="463" on="0"/>
        <pt x="489" y="488" on="1"/>
        <pt x="458" y="518" on="0"/>
        <pt x="358" y="543" on="0"/>
        <pt x="285" y="543" on="1"/>
        <pt x="206" y="543" on="1"/>
        <pt x="206" y="120" on="1"/>
      </contour>
    </TTGlyph>
    <TTGlyph name="Dcaron" xMin="68" yMin="0" xMax="683" yMax="920">
      <component glyphName="D" x="0" y="0" flags="0x204"/>
      <component glyphName="caron.cap" x="155" y="0" flags="0x4"/>
    </TTGlyph>
    <TTGlyph name="Dcroat" xMin="10" yMin="0" xMax="705" yMax="663">
      <contour>
        <pt x="90" y="0" on="1"/>
        <pt x="90" y="286" on="1"/>
        <pt x="10" y="286" on="1"/>
        <pt x="10" y="390" on="1"/>
        <pt x="90" y="390" on="1"/>
        <pt x="90" y="663" on="1"/>
        <pt x="311" y="663" on="1"/>
        <pt x="410" y="663" on="0"/>
        <pt x="556" y="624" on="0"/>
        <pt x="607" y="580" on="1"/>
        <pt x="655" y="539" on="0"/>
        <pt x="705" y="416" on="0"/>
        <pt x="705" y="331" on="1"/>
        <pt x="705" y="247" on="0"/>
        <pt x="655" y="124" on="0"/>
        <pt x="607" y="83" on="1"/>
        <pt x="556" y="39" on="0"/>
        <pt x="410" y="0" on="0"/>
        <pt x="311" y="0" on="1"/>
      </contour>
      <contour>
        <pt x="307" y="120" on="1"/>
        <pt x="380" y="120" on="0"/>
        <pt x="480" y="145" on="0"/>
        <pt x="511" y="175" on="1"/>
        <pt x="562" y="224" on="0"/>
        <pt x="562" y="332" on="1"/>
        <pt x="562" y="387" on="0"/>
        <pt x="537" y="463" on="0"/>
        <pt x="511" y="488" on="1"/>
        <pt x="480" y="518" on="0"/>
        <pt x="380" y="543" on="0"/>
        <pt x="307" y="543" on="1"/>
        <pt x="228" y="543" on="1"/>
        <pt x="228" y="390" on="1"/>
        <pt x="368" y="390" on="1"/>
        <pt x="368" y="286" on="1"/>
        <pt x="228" y="286" on="1"/>
        <pt x="228" y="120" on="1"/>
      </contour>
    </TTGlyph>
    <TTGlyph name="Delta" xMin="38" yMin="0" xMax="646" yMax="663">
      <contour>
        <pt x="38" y="70" on="1"/>
        <pt x="38" y="86" on="0"/>
        <pt x="48" y="117" on="0"/>
        <pt x="60" y="149" on="1"/>
        <pt x="259" y="663" on="1"/>
        <pt x="396" y="663" on="1"/>
        <pt x="405" y="663" on="0"/>
        <pt x="412" y="658" on="0"/>
        <pt x="415" y="650" on="1"/>
        <pt x="619" y="159" on="1"/>
        <pt x="634" y="123" on="0"/>
        <pt x="646" y="86" on="0"/>
        <pt x="646" y="70" on="1"/>
        <pt x="646" y="0" on="1"/>
        <pt x="38" y="0" on="1"/>
      </contour>
      <contour>
        <pt x="424" y="117" on="1"/>
        <pt x="440" y="117" on="0"/>
        <pt x="482" y="116" on="0"/>
        <pt x="498" y="114" on="1"/>
        <pt x="481" y="146" on="0"/>
        <pt x="456" y="206" on="0"/>
        <pt x="440" y="247" on="1"/>
        <pt x="383" y="389" on="1"/>
        <pt x="366" y="430" on="0"/>
        <pt x="342" y="503" on="0"/>
        <pt x="334" y="529" on="1"/>
        <pt x="326" y="503" on="0"/>
        <pt x="302" y="432" on="0"/>
        <pt x="286" y="388" on="1"/>
        <pt x="234" y="247" on="1"/>
        <pt x="221" y="214" on="0"/>
        <pt x="197" y="146" on="0"/>
        <pt x="180" y="114" on="1"/>
        <pt x="196" y="116" on="0"/>
        <pt x="238" y="117" on="0"/>
        <pt x="254" y="117" on="1"/>
      </contour>
    </TTGlyph>
    <TTGlyph name="E" xMin="68" yMin="0" xMax="556" yMax="663">
      <contour>
        <pt x="546" y="663" on="1"/>
        <pt x="546" y="547" on="1"/>
        <pt x="206" y="547" on="1"/>
        <pt x="206" y="396" on="1"/>
        <pt x="513" y="396" on="1"/>
        <pt x="513" y="281" on="1"/>
        <pt x="206" y="281" on="1"/>
        <pt x="206" y="116" on="1"/>
        <pt x="556" y="116" on="1"/>
        <pt x="556" y="0" on="1"/>
        <pt x="68" y="0" on="1"/>
        <pt x="68" y="663" on="1"/>
      </contour>
    </TTGlyph>
    <TTGlyph name="Eacute" xMin="68" yMin="0" xMax="556" yMax="923">
      <component glyphName="E" x="0" y="0" flags="0x204"/>
      <component glyphName="acute.cap" x="105" y="0" flags="0x4"/>
    </TTGlyph>
    <TTGlyph name="Ebreve" xMin="68" yMin="0" xMax="556" yMax="894">
      <component glyphName="E" x="0" y="0" flags="0x204"/>
      <component glyphName="breve.cap" x="96" y="0" flags="0x4"/>
    </TTGlyph>
    <TTGlyph name="Ecaron" xMin="68" yMin="0" xMax="556" yMax="920">
      <component glyphName="E" x="0" y="0" flags="0x204"/>
      <component glyphName="caron.cap" x="103" y="0" flags="0x4"/>
    </TTGlyph>
    <TTGlyph name="Ecircumflex" xMin="68" yMin="0" xMax="556" yMax="909">
      <component glyphName="E" x="0" y="0" flags="0x204"/>
      <component glyphName="circumflex.cap" x="100" y="0" flags="0x4"/>
    </TTGlyph>
    <TTGlyph name="Edieresis" xMin="68" yMin="0" xMax="556" yMax="869">
      <component glyphName="E" x="0" y="0" flags="0x204"/>
      <component glyphName="dieresis.cap" x="99" y="0" flags="0x4"/>
    </TTGlyph>
    <TTGlyph name="Edotaccent" xMin="68" yMin="0" xMax="556" yMax="857">
      <component glyphName="E" x="0" y="0" flags="0x204"/>
      <component glyphName="dotaccent.cap" x="96" y="0" flags="0x4"/>
    </TTGlyph>
    <TTGlyph name="Egrave" xMin="68" yMin="0" xMax="556" yMax="923">
      <component glyphName="E" x="0" y="0" flags="0x204"/>
      <component glyphName="grave.cap" x="105" y="0" flags="0x4"/>
    </TTGlyph>
    <TTGlyph name="Emacron" xMin="68" yMin="0" xMax="556" yMax="859">
      <component glyphName="E" x="0" y="0" flags="0x204"/>
      <component glyphName="macron.cap" x="97" y="0" flags="0x4"/>
    </TTGlyph>
    <TTGlyph name="Eng" xMin="68" yMin="-238" xMax="670" yMax="663">
      <contour>
        <pt x="670" y="-28" on="1"/>
        <pt x="670" y="-127" on="0"/>
        <pt x="575" y="-238" on="0"/>
        <pt x="475" y="-238" on="1"/>
        <pt x="458" y="-238" on="0"/>
        <pt x="420" y="-231" on="0"/>
        <pt x="382" y="-220" on="0"/>
        <pt x="349" y="-206" on="0"/>
        <pt x="337" y="-198" on="1"/>
        <pt x="359" y="-112" on="1"/>
        <pt x="369" y="-114" on="0"/>
        <pt x="397" y="-117" on="0"/>
        <pt x="425" y="-119" on="0"/>
        <pt x="449" y="-121" on="0"/>
        <pt x="457" y="-121" on="1"/>
        <pt x="500" y="-121" on="0"/>
        <pt x="540" y="-82" on="0"/>
        <pt x="540" y="-37" on="1"/>
        <pt x="540" y="17" on="1"/>
        <pt x="287" y="334" on="1"/>
        <pt x="274" y="350" on="0"/>
        <pt x="247" y="385" on="0"/>
        <pt x="223" y="417" on="0"/>
        <pt x="204" y="444" on="0"/>
        <pt x="198" y="452" on="1"/>
        <pt x="198" y="0" on="1"/>
        <pt x="68" y="0" on="1"/>
        <pt x="68" y="663" on="1"/>
        <pt x="169" y="663" on="1"/>
        <pt x="179" y="663" on="0"/>
        <pt x="188" y="659" on="0"/>
        <pt x="194" y="651" on="1"/>
        <pt x="431" y="355" on="1"/>
        <pt x="447" y="334" on="0"/>
        <pt x="481" y="292" on="0"/>
        <pt x="510" y="254" on="0"/>
        <pt x="533" y="222" on="0"/>
        <pt x="540" y="212" on="1"/>
        <pt x="540" y="663" on="1"/>
        <pt x="670" y="663" on="1"/>
      </contour>
    </TTGlyph>
    <TTGlyph name="Eogonek" xMin="68" yMin="-221" xMax="556" yMax="663">
      <contour>
        <pt x="483" y="0" on="1"/>
        <pt x="472" y="0" on="0"/>
        <pt x="457" y="-5" on="0"/>
        <pt x="445" y="-16" on="1"/>
        <pt x="430" y="-30" on="0"/>
        <pt x="408" y="-67" on="0"/>
        <pt x="408" y="-87" on="1"/>
        <pt x="408" y="-113" on="0"/>
        <pt x="442" y="-134" on="0"/>
        <pt x="469" y="-134" on="1"/>
        <pt x="483" y="-134" on="0"/>
        <pt x="513" y="-131" on="0"/>
        <pt x="529" y="-127" on="1"/>
        <pt x="549" y="-194" on="1"/>
        <pt x="523" y="-208" on="0"/>
        <pt x="467" y="-221" on="0"/>
        <pt x="442" y="-221" on="1"/>
        <pt x="380" y="-221" on="0"/>
        <pt x="306" y="-160" on="0"/>
        <pt x="306" y="-115" on="1"/>
        <pt x="306" y="-84" on="0"/>
        <pt x="338" y="-26" on="0"/>
        <pt x="365" y="0" on="1"/>
        <pt x="68" y="0" on="1"/>
        <pt x="68" y="663" on="1"/>
        <pt x="546" y="663" on="1"/>
        <pt x="546" y="547" on="1"/>
        <pt x="206" y="547" on="1"/>
        <pt x="206" y="396" on="1"/>
        <pt x="513" y="396" on="1"/>
        <pt x="513" y="281" on="1"/>
        <pt x="206" y="281" on="1"/>
        <pt x="206" y="116" on="1"/>
        <pt x="556" y="116" on="1"/>
        <pt x="556" y="0" on="1"/>
      </contour>
    </TTGlyph>
    <TTGlyph name="Eth" xMin="10" yMin="0" xMax="705" yMax="663">
      <contour>
        <pt x="90" y="0" on="1"/>
        <pt x="90" y="286" on="1"/>
        <pt x="10" y="286" on="1"/>
        <pt x="10" y="390" on="1"/>
        <pt x="90" y="390" on="1"/>
        <pt x="90" y="663" on="1"/>
        <pt x="311" y="663" on="1"/>
        <pt x="410" y="663" on="0"/>
        <pt x="556" y="624" on="0"/>
        <pt x="607" y="580" on="1"/>
        <pt x="655" y="539" on="0"/>
        <pt x="705" y="416" on="0"/>
        <pt x="705" y="331" on="1"/>
        <pt x="705" y="247" on="0"/>
        <pt x="655" y="124" on="0"/>
        <pt x="607" y="83" on="1"/>
        <pt x="556" y="39" on="0"/>
        <pt x="410" y="0" on="0"/>
        <pt x="311" y="0" on="1"/>
      </contour>
      <contour>
        <pt x="307" y="120" on="1"/>
        <pt x="380" y="120" on="0"/>
        <pt x="480" y="145" on="0"/>
        <pt x="511" y="175" on="1"/>
        <pt x="562" y="224" on="0"/>
        <pt x="562" y="332" on="1"/>
        <pt x="562" y="387" on="0"/>
        <pt x="537" y="463" on="0"/>
        <pt x="511" y="488" on="1"/>
        <pt x="480" y="518" on="0"/>
        <pt x="380" y="543" on="0"/>
        <pt x="307" y="543" on="1"/>
        <pt x="228" y="543" on="1"/>
        <pt x="228" y="390" on="1"/>
        <pt x="368" y="390" on="1"/>
        <pt x="368" y="286" on="1"/>
        <pt x="228" y="286" on="1"/>
        <pt x="228" y="120" on="1"/>
      </contour>
    </TTGlyph>
    <TTGlyph name="Euro" xMin="31" yMin="-10" xMax="622" yMax="673">
      <contour>
        <pt x="102" y="424" on="1"/>
        <pt x="113" y="483" on="0"/>
        <pt x="164" y="576" on="0"/>
        <pt x="236" y="640" on="0"/>
        <pt x="325" y="673" on="0"/>
        <pt x="375" y="673" on="1"/>
        <pt x="458" y="673" on="0"/>
        <pt x="581" y="586" on="0"/>
        <pt x="616" y="511" on="1"/>
        <pt x="534" y="457" on="1"/>
        <pt x="479" y="504" on="1"/>
        <pt x="451" y="527" on="0"/>
        <pt x="406" y="551" on="0"/>
        <pt x="375" y="551" on="1"/>
        <pt x="327" y="551" on="0"/>
        <pt x="252" y="489" on="0"/>
        <pt x="240" y="424" on="1"/>
        <pt x="430" y="424" on="1"/>
        <pt x="430" y="352" on="1"/>
        <pt x="231" y="352" on="1"/>
        <pt x="231" y="329" on="1"/>
        <pt x="231" y="312" on="0"/>
        <pt x="233" y="302" on="1"/>
        <pt x="430" y="302" on="1"/>
        <pt x="430" y="230" on="1"/>
        <pt x="245" y="230" on="1"/>
        <pt x="258" y="171" on="0"/>
        <pt x="336" y="115" on="0"/>
        <pt x="389" y="115" on="1"/>
        <pt x="419" y="115" on="0"/>
        <pt x="484" y="132" on="0"/>
        <pt x="513" y="149" on="1"/>
        <pt x="570" y="181" on="1"/>
        <pt x="622" y="115" on="1"/>
        <pt x="601" y="86" on="0"/>
        <pt x="543" y="40" on="0"/>
        <pt x="477" y="8" on="0"/>
        <pt x="408" y="-10" on="0"/>
        <pt x="375" y="-10" on="1"/>
        <pt x="322" y="-10" on="0"/>
        <pt x="231" y="23" on="0"/>
        <pt x="160" y="86" on="0"/>
        <pt x="112" y="174" on="0"/>
        <pt x="103" y="230" on="1"/>
        <pt x="31" y="230" on="1"/>
        <pt x="31" y="289" on="1"/>
        <pt x="94" y="301" on="1"/>
        <pt x="93" y="309" on="0"/>
        <pt x="93" y="323" on="0"/>
        <pt x="93" y="331" on="1"/>
        <pt x="93" y="352" on="1"/>
        <pt x="31" y="352" on="1"/>
        <pt x="31" y="411" on="1"/>
      </contour>
    </TTGlyph>
    <TTGlyph name="Euro.lprop" xMin="40" yMin="-10" xMax="631" yMax="673">
      <component glyphName="Euro" x="9" y="0" flags="0x4"/>
    </TTGlyph>
    <TTGlyph name="Euro.oprop" xMin="50" yMin="-8" xMax="585" yMax="496">
      <component glyphName="Euro.otab" x="9" y="0" flags="0x4"/>
    </TTGlyph>
    <TTGlyph name="Euro.otab" xMin="41" yMin="-8" xMax="576" yMax="496">
      <contour>
        <pt x="41" y="217" on="1"/>
        <pt x="108" y="227" on="1"/>
        <pt x="108" y="256" on="1"/>
        <pt x="41" y="256" on="1"/>
        <pt x="41" y="299" on="1"/>
        <pt x="115" y="309" on="1"/>
        <pt x="125" y="354" on="0"/>
        <pt x="170" y="423" on="0"/>
        <pt x="232" y="471" on="0"/>
        <pt x="307" y="496" on="0"/>
        <pt x="347" y="496" on="1"/>
        <pt x="385" y="496" on="0"/>
        <pt x="455" y="473" on="0"/>
        <pt x="513" y="430" on="0"/>
        <pt x="556" y="368" on="0"/>
        <pt x="568" y="330" on="1"/>
        <pt x="548" y="321" on="0"/>
        <pt x="507" y="303" on="0"/>
        <pt x="487" y="293" on="1"/>
        <pt x="448" y="333" on="1"/>
        <pt x="419" y="362" on="0"/>
        <pt x="372" y="385" on="0"/>
        <pt x="345" y="385" on="1"/>
        <pt x="310" y="385" on="0"/>
        <pt x="257" y="345" on="0"/>
        <pt x="246" y="310" on="1"/>
        <pt x="384" y="310" on="1"/>
        <pt x="384" y="256" on="1"/>
        <pt x="238" y="256" on="1"/>
        <pt x="238" y="245" on="1"/>
        <pt x="238" y="240" on="0"/>
        <pt x="238" y="232" on="0"/>
        <pt x="239" y="228" on="1"/>
        <pt x="384" y="228" on="1"/>
        <pt x="384" y="174" on="1"/>
        <pt x="248" y="174" on="1"/>
        <pt x="262" y="137" on="0"/>
        <pt x="319" y="104" on="0"/>
        <pt x="364" y="104" on="1"/>
        <pt x="387" y="104" on="0"/>
        <pt x="437" y="116" on="0"/>
        <pt x="472" y="129" on="1"/>
        <pt x="535" y="152" on="1"/>
        <pt x="546" y="135" on="0"/>
        <pt x="566" y="103" on="0"/>
        <pt x="576" y="86" on="1"/>
        <pt x="555" y="66" on="0"/>
        <pt x="503" y="32" on="0"/>
        <pt x="444" y="7" on="0"/>
        <pt x="383" y="-8" on="0"/>
        <pt x="354" y="-8" on="1"/>
        <pt x="260" y="-8" on="0"/>
        <pt x="136" y="88" on="0"/>
        <pt x="116" y="174" on="1"/>
        <pt x="41" y="174" on="1"/>
      </contour>
    </TTGlyph>
    <TTGlyph name="F" xMin="68" yMin="0" xMax="537" yMax="663">
      <contour>
        <pt x="206" y="385" on="1"/>
        <pt x="502" y="385" on="1"/>
        <pt x="502" y="271" on="1"/>
        <pt x="206" y="271" on="1"/>
        <pt x="206" y="0" on="1"/>
        <pt x="68" y="0" on="1"/>
        <pt x="68" y="663" on="1"/>
        <pt x="537" y="663" on="1"/>
        <pt x="537" y="547" on="1"/>
        <pt x="206" y="547" on="1"/>
      </contour>
    </TTGlyph>
    <TTGlyph name="G" xMin="36" yMin="-10" xMax="678" yMax="673">
      <contour>
        <pt x="435" y="247" on="1"/>
        <pt x="435" y="350" on="1"/>
        <pt x="658" y="350" on="1"/>
        <pt x="669" y="350" on="0"/>
        <pt x="678" y="344" on="0"/>
        <pt x="678" y="333" on="1"/>
        <pt x="678" y="0" on="1"/>
        <pt x="578" y="0" on="1"/>
        <pt x="557" y="60" on="1"/>
        <pt x="506" y="32" on="1"/>
        <pt x="473" y="14" on="0"/>
        <pt x="397" y="-10" on="0"/>
        <pt x="352" y="-10" on="1"/>
        <pt x="280" y="-10" on="0"/>
        <pt x="164" y="41" on="0"/>
        <pt x="81" y="133" on="0"/>
        <pt x="36" y="257" on="0"/>
        <pt x="36" y="331" on="1"/>
        <pt x="36" y="410" on="0"/>
        <pt x="90" y="537" on="0"/>
        <pt x="182" y="626" on="0"/>
        <pt x="301" y="673" on="0"/>
        <pt x="367" y="673" on="1"/>
        <pt x="468" y="673" on="0"/>
        <pt x="617" y="581" on="0"/>
        <pt x="654" y="497" on="1"/>
        <pt x="567" y="437" on="1"/>
        <pt x="492" y="493" on="1"/>
        <pt x="458" y="519" on="0"/>
        <pt x="399" y="543" on="0"/>
        <pt x="360" y="543" on="1"/>
        <pt x="322" y="543" on="0"/>
        <pt x="256" y="516" on="0"/>
        <pt x="208" y="463" on="0"/>
        <pt x="180" y="384" on="0"/>
        <pt x="180" y="332" on="1"/>
        <pt x="180" y="229" on="0"/>
        <pt x="280" y="121" on="0"/>
        <pt x="373" y="121" on="1"/>
        <pt x="391" y="121" on="0"/>
        <pt x="433" y="125" on="0"/>
        <pt x="474" y="131" on="0"/>
        <pt x="511" y="140" on="0"/>
        <pt x="526" y="146" on="1"/>
        <pt x="537" y="150" on="0"/>
        <pt x="544" y="159" on="0"/>
        <pt x="544" y="170" on="1"/>
        <pt x="544" y="247" on="1"/>
      </contour>
    </TTGlyph>
    <TTGlyph name="Gbreve" xMin="36" yMin="-10" xMax="678" yMax="894">
      <component glyphName="G" x="0" y="0" flags="0x204"/>
      <component glyphName="breve.cap" x="164" y="0" flags="0x4"/>
    </TTGlyph>
    <TTGlyph name="Gcircumflex" xMin="36" yMin="-10" xMax="678" yMax="909">
      <component glyphName="G" x="0" y="0" flags="0x204"/>
      <component glyphName="circumflex.cap" x="165" y="0" flags="0x4"/>
    </TTGlyph>
    <TTGlyph name="Gcommaaccent" xMin="36" yMin="-294" xMax="678" yMax="673">
      <component glyphName="G" x="0" y="0" flags="0x204"/>
      <component glyphName="commaaccent" x="162" y="0" flags="0x4"/>
    </TTGlyph>
    <TTGlyph name="Gdotaccent" xMin="36" yMin="-10" xMax="678" yMax="857">
      <component glyphName="G" x="0" y="0" flags="0x204"/>
      <component glyphName="dotaccent.cap" x="159" y="0" flags="0x4"/>
    </TTGlyph>
    <TTGlyph name="H" xMin="68" yMin="0" xMax="655" yMax="663">
      <contour>
        <pt x="517" y="281" on="1"/>
        <pt x="206" y="281" on="1"/>
        <pt x="206" y="0" on="1"/>
        <pt x="68" y="0" on="1"/>
        <pt x="68" y="663" on="1"/>
        <pt x="206" y="663" on="1"/>
        <pt x="206" y="401" on="1"/>
        <pt x="517" y="401" on="1"/>
        <pt x="517" y="663" on="1"/>
        <pt x="655" y="663" on="1"/>
        <pt x="655" y="0" on="1"/>
        <pt x="517" y="0" on="1"/>
      </contour>
    </TTGlyph>
    <TTGlyph name="Hbar" xMin="14" yMin="0" xMax="748" yMax="663">
      <contour>
        <pt x="536" y="281" on="1"/>
        <pt x="225" y="281" on="1"/>
        <pt x="225" y="0" on="1"/>
        <pt x="87" y="0" on="1"/>
        <pt x="87" y="488" on="1"/>
        <pt x="14" y="488" on="1"/>
        <pt x="14" y="581" on="1"/>
        <pt x="87" y="581" on="1"/>
        <pt x="87" y="663" on="1"/>
        <pt x="225" y="663" on="1"/>
        <pt x="225" y="581" on="1"/>
        <pt x="536" y="581" on="1"/>
        <pt x="536" y="663" on="1"/>
        <pt x="674" y="663" on="1"/>
        <pt x="674" y="581" on="1"/>
        <pt x="748" y="581" on="1"/>
        <pt x="748" y="488" on="1"/>
        <pt x="674" y="488" on="1"/>
        <pt x="674" y="0" on="1"/>
        <pt x="536" y="0" on="1"/>
      </contour>
      <contour>
        <pt x="536" y="401" on="1"/>
        <pt x="536" y="488" on="1"/>
        <pt x="225" y="488" on="1"/>
        <pt x="225" y="401" on="1"/>
      </contour>
    </TTGlyph>
    <TTGlyph name="Hcircumflex" xMin="68" yMin="0" xMax="655" yMax="909">
      <component glyphName="H" x="0" y="0" flags="0x204"/>
      <component glyphName="circumflex.cap" x="152" y="0" flags="0x4"/>
    </TTGlyph>
    <TTGlyph name="I" xMin="71" yMin="0" xMax="209" yMax="663">
      <contour>
        <pt x="71" y="663" on="1"/>
        <pt x="209" y="663" on="1"/>
        <pt x="209" y="0" on="1"/>
        <pt x="71" y="0" on="1"/>
      </contour>
    </TTGlyph>
    <TTGlyph name="IJ" xMin="71" yMin="-10" xMax="726" yMax="663">
      <component glyphName="I" x="0" y="0" flags="0x4"/>
      <component glyphName="J" x="277" y="0" flags="0x4"/>
    </TTGlyph>
    <TTGlyph name="Iacute" xMin="7" yMin="0" xMax="273" yMax="923">
      <component glyphName="I" x="0" y="0" flags="0x204"/>
      <component glyphName="acute.cap" x="-68" y="0" flags="0x4"/>
    </TTGlyph>
    <TTGlyph name="Ibreve" xMin="-28" yMin="0" xMax="308" yMax="894">
      <component glyphName="I" x="0" y="0" flags="0x204"/>
      <component glyphName="breve.cap" x="-68" y="0" flags="0x4"/>
    </TTGlyph>
    <TTGlyph name="Icircumflex" xMin="-39" yMin="0" xMax="320" yMax="909">
      <component glyphName="I" x="0" y="0" flags="0x204"/>
      <component glyphName="circumflex.cap" x="-66" y="0" flags="0x4"/>
    </TTGlyph>
    <TTGlyph name="Idieresis" xMin="-26" yMin="0" xMax="305" yMax="869">
      <component glyphName="I" x="0" y="0" flags="0x204"/>
      <component glyphName="dieresis.cap" x="-68" y="0" flags="0x4"/>
    </TTGlyph>
    <TTGlyph name="Idotaccent" xMin="71" yMin="0" xMax="209" yMax="857">
      <component glyphName="I" x="0" y="0" flags="0x204"/>
      <component glyphName="dotaccent.cap" x="-66" y="0" flags="0x4"/>
    </TTGlyph>
    <TTGlyph name="Igrave" xMin="7" yMin="0" xMax="273" yMax="923">
      <component glyphName="I" x="0" y="0" flags="0x204"/>
      <component glyphName="grave.cap" x="-68" y="0" flags="0x4"/>
    </TTGlyph>
    <TTGlyph name="Imacron" xMin="-19" yMin="0" xMax="298" yMax="859">
      <component glyphName="I" x="0" y="0" flags="0x204"/>
      <component glyphName="macron.cap" x="-68" y="0" flags="0x4"/>
    </TTGlyph>
    <TTGlyph name="Iogonek" xMin="13" yMin="-221" xMax="256" yMax="663">
      <contour>
        <pt x="190" y="0" on="1"/>
        <pt x="179" y="0" on="0"/>
        <pt x="164" y="-5" on="0"/>
        <pt x="152" y="-16" on="1"/>
        <pt x="137" y="-30" on="0"/>
        <pt x="115" y="-67" on="0"/>
        <pt x="115" y="-87" on="1"/>
        <pt x="115" y="-113" on="0"/>
        <pt x="149" y="-134" on="0"/>
        <pt x="176" y="-134" on="1"/>
        <pt x="190" y="-134" on="0"/>
        <pt x="220" y="-131" on="0"/>
        <pt x="236" y="-127" on="1"/>
        <pt x="256" y="-194" on="1"/>
        <pt x="230" y="-208" on="0"/>
        <pt x="174" y="-221" on="0"/>
        <pt x="149" y="-221" on="1"/>
        <pt x="87" y="-221" on="0"/>
        <pt x="13" y="-160" on="0"/>
        <pt x="13" y="-115" on="1"/>
        <pt x="13" y="-84" on="0"/>
        <pt x="44" y="-24" on="0"/>
        <pt x="71" y="2" on="1"/>
        <pt x="71" y="663" on="1"/>
        <pt x="209" y="663" on="1"/>
        <pt x="209" y="0" on="1"/>
      </contour>
    </TTGlyph>
    <TTGlyph name="Itilde" xMin="-43" yMin="0" xMax="323" yMax="880">
      <component glyphName="I" x="0" y="0" flags="0x204"/>
      <component glyphName="tilde.cap" x="-67" y="0" flags="0x4"/>
    </TTGlyph>
    <TTGlyph name="J" xMin="23" yMin="-10" xMax="449" yMax="663">
      <contour>
        <pt x="51" y="138" on="1"/>
        <pt x="109" y="127" on="1"/>
        <pt x="144" y="120" on="0"/>
        <pt x="198" y="113" on="0"/>
        <pt x="221" y="113" on="1"/>
        <pt x="273" y="113" on="0"/>
        <pt x="293" y="136" on="1"/>
        <pt x="311" y="158" on="0"/>
        <pt x="311" y="210" on="1"/>
        <pt x="311" y="663" on="1"/>
        <pt x="449" y="663" on="1"/>
        <pt x="449" y="214" on="1"/>
        <pt x="449" y="104" on="0"/>
        <pt x="393" y="47" on="1"/>
        <pt x="366" y="20" on="0"/>
        <pt x="289" y="-10" on="0"/>
        <pt x="242" y="-10" on="1"/>
        <pt x="185" y="-10" on="0"/>
        <pt x="69" y="25" on="0"/>
        <pt x="23" y="54" on="1"/>
      </contour>
    </TTGlyph>
    <TTGlyph name="Jcircumflex" xMin="23" yMin="-10" xMax="560" yMax="909">
      <component glyphName="J" x="0" y="0" flags="0x204"/>
      <component glyphName="circumflex.cap" x="174" y="0" flags="0x4"/>
    </TTGlyph>
    <TTGlyph name="K" xMin="68" yMin="0" xMax="661" yMax="671">
      <contour>
        <pt x="293" y="305" on="1"/>
        <pt x="274" y="288" on="0"/>
        <pt x="226" y="258" on="0"/>
        <pt x="206" y="248" on="1"/>
        <pt x="206" y="0" on="1"/>
        <pt x="68" y="0" on="1"/>
        <pt x="68" y="663" on="1"/>
        <pt x="206" y="663" on="1"/>
        <pt x="206" y="370" on="1"/>
        <pt x="554" y="671" on="1"/>
        <pt x="632" y="587" on="1"/>
        <pt x="394" y="386" on="1"/>
        <pt x="661" y="0" on="1"/>
        <pt x="519" y="0" on="1"/>
        <pt x="508" y="0" on="0"/>
        <pt x="498" y="5" on="0"/>
        <pt x="492" y="13" on="1"/>
      </contour>
    </TTGlyph>
    <TTGlyph name="Kcommaaccent" xMin="68" yMin="-294" xMax="661" yMax="671">
      <component glyphName="K" x="0" y="0" flags="0x204"/>
      <component glyphName="commaaccent" x="112" y="0" flags="0x4"/>
    </TTGlyph>
    <TTGlyph name="L" xMin="68" yMin="0" xMax="533" yMax="663">
      <contour>
        <pt x="206" y="116" on="1"/>
        <pt x="533" y="116" on="1"/>
        <pt x="533" y="0" on="1"/>
        <pt x="68" y="0" on="1"/>
        <pt x="68" y="663" on="1"/>
        <pt x="206" y="663" on="1"/>
      </contour>
    </TTGlyph>
    <TTGlyph name="Lacute" xMin="12" yMin="0" xMax="533" yMax="923">
      <component glyphName="L" x="0" y="0" flags="0x204"/>
      <component glyphName="acute.cap" x="-63" y="0" flags="0x4"/>
    </TTGlyph>
    <TTGlyph name="Lcaron" xMin="68" yMin="0" xMax="533" yMax="663">
      <component glyphName="L" x="0" y="0" flags="0x204"/>
      <component glyphName="commaaccent" x="165" y="721" flags="0x4"/>
    </TTGlyph>
    <TTGlyph name="Lcommaaccent" xMin="68" yMin="-294" xMax="533" yMax="663">
      <component glyphName="L" x="0" y="0" flags="0x204"/>
      <component glyphName="commaaccent" x="80" y="0" flags="0x4"/>
    </TTGlyph>
    <TTGlyph name="Ldot" xMin="68" yMin="0" xMax="533" yMax="663">
      <component glyphName="L" x="0" y="0" flags="0x204"/>
      <component glyphName="dotaccent" x="195" y="-257" flags="0x4"/>
    </TTGlyph>
    <TTGlyph name="Lslash" xMin="-3" yMin="0" xMax="595" yMax="663">
      <contour>
        <pt x="59" y="191" on="1"/>
        <pt x="-3" y="281" on="1"/>
        <pt x="130" y="368" on="1"/>
        <pt x="130" y="663" on="1"/>
        <pt x="268" y="663" on="1"/>
        <pt x="268" y="449" on="1"/>
        <pt x="409" y="541" on="1"/>
        <pt x="471" y="451" on="1"/>
        <pt x="268" y="318" on="1"/>
        <pt x="268" y="116" on="1"/>
        <pt x="595" y="116" on="1"/>
        <pt x="595" y="0" on="1"/>
        <pt x="130" y="0" on="1"/>
        <pt x="130" y="237" on="1"/>
      </contour>
    </TTGlyph>
    <TTGlyph name="M" xMin="68" yMin="0" xMax="783" yMax="663">
      <contour>
        <pt x="783" y="663" on="1"/>
        <pt x="783" y="0" on="1"/>
        <pt x="649" y="0" on="1"/>
        <pt x="649" y="454" on="1"/>
        <pt x="647" y="454" on="1"/>
        <pt x="475" y="233" on="1"/>
        <pt x="393" y="233" on="1"/>
        <pt x="384" y="233" on="0"/>
        <pt x="374" y="237" on="0"/>
        <pt x="369" y="244" on="1"/>
        <pt x="203" y="454" on="1"/>
        <pt x="201" y="454" on="1"/>
        <pt x="201" y="0" on="1"/>
        <pt x="68" y="0" on="1"/>
        <pt x="68" y="663" on="1"/>
        <pt x="179" y="663" on="1"/>
        <pt x="190" y="663" on="0"/>
        <pt x="199" y="657" on="0"/>
        <pt x="206" y="648" on="1"/>
        <pt x="425" y="374" on="1"/>
        <pt x="431" y="374" on="1"/>
        <pt x="646" y="648" on="1"/>
        <pt x="653" y="657" on="0"/>
        <pt x="662" y="663" on="0"/>
        <pt x="673" y="663" on="1"/>
      </contour>
    </TTGlyph>
    <TTGlyph name="N" xMin="68" yMin="0" xMax="676" yMax="663">
      <contour>
        <pt x="543" y="663" on="1"/>
        <pt x="676" y="663" on="1"/>
        <pt x="676" y="0" on="1"/>
        <pt x="573" y="0" on="1"/>
        <pt x="563" y="0" on="0"/>
        <pt x="553" y="4" on="0"/>
        <pt x="547" y="12" on="1"/>
        <pt x="290" y="335" on="1"/>
        <pt x="277" y="351" on="0"/>
        <pt x="250" y="386" on="0"/>
        <pt x="226" y="418" on="0"/>
        <pt x="207" y="445" on="0"/>
        <pt x="201" y="453" on="1"/>
        <pt x="201" y="0" on="1"/>
        <pt x="68" y="0" on="1"/>
        <pt x="68" y="663" on="1"/>
        <pt x="172" y="663" on="1"/>
        <pt x="182" y="663" on="0"/>
        <pt x="191" y="659" on="0"/>
        <pt x="197" y="651" on="1"/>
        <pt x="434" y="354" on="1"/>
        <pt x="450" y="333" on="0"/>
        <pt x="484" y="291" on="0"/>
        <pt x="513" y="253" on="0"/>
        <pt x="536" y="221" on="0"/>
        <pt x="543" y="211" on="1"/>
      </contour>
    </TTGlyph>
    <TTGlyph name="Nacute" xMin="65" yMin="0" xMax="673" yMax="923">
      <component glyphName="N" x="-3" y="0" flags="0x4"/>
      <component glyphName="acute.cap" x="168" y="0" flags="0x4"/>
    </TTGlyph>
    <TTGlyph name="Ncaron" xMin="65" yMin="0" xMax="673" yMax="920">
      <component glyphName="N" x="-3" y="0" flags="0x4"/>
      <component glyphName="caron.cap" x="162" y="0" flags="0x4"/>
    </TTGlyph>
    <TTGlyph name="Ncommaaccent" xMin="65" yMin="-294" xMax="673" yMax="663">
      <component glyphName="N" x="-3" y="0" flags="0x4"/>
      <component glyphName="commaaccent" x="157" y="0" flags="0x4"/>
    </TTGlyph>
    <TTGlyph name="Ntilde" xMin="65" yMin="0" xMax="673" yMax="880">
      <component glyphName="N" x="-3" y="0" flags="0x4"/>
      <component glyphName="tilde.cap" x="163" y="0" flags="0x4"/>
    </TTGlyph>
    <TTGlyph name="O" xMin="36" yMin="-10" xMax="704" yMax="673">
      <contour>
        <pt x="369" y="-10" on="1"/>
        <pt x="303" y="-10" on="0"/>
        <pt x="183" y="38" on="0"/>
        <pt x="91" y="126" on="0"/>
        <pt x="36" y="253" on="0"/>
        <pt x="36" y="331" on="1"/>
        <pt x="36" y="410" on="0"/>
        <pt x="91" y="536" on="0"/>
        <pt x="183" y="625" on="0"/>
        <pt x="303" y="673" on="0"/>
        <pt x="369" y="673" on="1"/>
        <pt x="371" y="673" on="1"/>
        <pt x="437" y="673" on="0"/>
        <pt x="557" y="625" on="0"/>
        <pt x="649" y="536" on="0"/>
        <pt x="704" y="410" on="0"/>
        <pt x="704" y="331" on="1"/>
        <pt x="704" y="253" on="0"/>
        <pt x="649" y="126" on="0"/>
        <pt x="557" y="38" on="0"/>
        <pt x="437" y="-10" on="0"/>
        <pt x="371" y="-10" on="1"/>
      </contour>
      <contour>
        <pt x="180" y="331" on="1"/>
        <pt x="180" y="232" on="0"/>
        <pt x="281" y="124" on="0"/>
        <pt x="369" y="124" on="1"/>
        <pt x="371" y="124" on="1"/>
        <pt x="459" y="124" on="0"/>
        <pt x="560" y="231" on="0"/>
        <pt x="560" y="331" on="1"/>
        <pt x="560" y="431" on="0"/>
        <pt x="459" y="538" on="0"/>
        <pt x="371" y="538" on="1"/>
        <pt x="369" y="538" on="1"/>
        <pt x="281" y="538" on="0"/>
        <pt x="180" y="431" on="0"/>
      </contour>
    </TTGlyph>
    <TTGlyph name="OE" xMin="36" yMin="-10" xMax="1044" yMax="673">
      <contour>
        <pt x="1034" y="663" on="1"/>
        <pt x="1034" y="547" on="1"/>
        <pt x="694" y="547" on="1"/>
        <pt x="694" y="396" on="1"/>
        <pt x="1001" y="396" on="1"/>
        <pt x="1001" y="281" on="1"/>
        <pt x="694" y="281" on="1"/>
        <pt x="694" y="116" on="1"/>
        <pt x="1044" y="116" on="1"/>
        <pt x="1044" y="0" on="1"/>
        <pt x="556" y="0" on="1"/>
        <pt x="556" y="77" on="1"/>
        <pt x="524" y="40" on="0"/>
        <pt x="423" y="-10" on="0"/>
        <pt x="358" y="-10" on="1"/>
        <pt x="293" y="-10" on="0"/>
        <pt x="177" y="38" on="0"/>
        <pt x="88" y="127" on="0"/>
        <pt x="36" y="253" on="0"/>
        <pt x="36" y="331" on="1"/>
        <pt x="36" y="409" on="0"/>
        <pt x="88" y="535" on="0"/>
        <pt x="177" y="625" on="0"/>
        <pt x="293" y="673" on="0"/>
        <pt x="358" y="673" on="1"/>
        <pt x="423" y="673" on="0"/>
        <pt x="524" y="623" on="0"/>
        <pt x="556" y="586" on="1"/>
        <pt x="556" y="663" on="1"/>
      </contour>
      <contour>
        <pt x="180" y="331" on="1"/>
        <pt x="180" y="232" on="0"/>
        <pt x="281" y="124" on="0"/>
        <pt x="369" y="124" on="1"/>
        <pt x="371" y="124" on="1"/>
        <pt x="459" y="124" on="0"/>
        <pt x="560" y="231" on="0"/>
        <pt x="560" y="331" on="1"/>
        <pt x="560" y="431" on="0"/>
        <pt x="459" y="538" on="0"/>
        <pt x="371" y="538" on="1"/>
        <pt x="369" y="538" on="1"/>
        <pt x="281" y="538" on="0"/>
        <pt x="180" y="431" on="0"/>
      </contour>
    </TTGlyph>
    <TTGlyph name="Oacute" xMin="36" yMin="-10" xMax="704" yMax="923">
      <component glyphName="O" x="0" y="0" flags="0x204"/>
      <component glyphName="acute.cap" x="166" y="0" flags="0x4"/>
    </TTGlyph>
    <TTGlyph name="Obreve" xMin="36" yMin="-10" xMax="704" yMax="894">
      <component glyphName="O" x="0" y="0" flags="0x204"/>
      <component glyphName="breve.cap" x="162" y="0" flags="0x4"/>
    </TTGlyph>
    <TTGlyph name="Ocircumflex" xMin="36" yMin="-10" xMax="704" yMax="909">
      <component glyphName="O" x="0" y="0" flags="0x204"/>
      <component glyphName="circumflex.cap" x="163" y="0" flags="0x4"/>
    </TTGlyph>
    <TTGlyph name="Odieresis" xMin="36" yMin="-10" xMax="704" yMax="869">
      <component glyphName="O" x="0" y="0" flags="0x204"/>
      <component glyphName="dieresis.cap" x="162" y="0" flags="0x4"/>
    </TTGlyph>
    <TTGlyph name="Ograve" xMin="36" yMin="-10" xMax="704" yMax="923">
      <component glyphName="O" x="0" y="0" flags="0x204"/>
      <component glyphName="grave.cap" x="162" y="0" flags="0x4"/>
    </TTGlyph>
    <TTGlyph name="Ohungarumlaut" xMin="36" yMin="-10" xMax="704" yMax="964">
      <component glyphName="O" x="0" y="0" flags="0x204"/>
      <component glyphName="hungarumlaut.cap" x="173" y="0" flags="0x4"/>
    </TTGlyph>
    <TTGlyph name="Omacron" xMin="36" yMin="-10" xMax="704" yMax="859">
      <component glyphName="O" x="0" y="0" flags="0x204"/>
      <component glyphName="macron.cap" x="162" y="0" flags="0x4"/>
    </TTGlyph>
    <TTGlyph name="Omega" xMin="49" yMin="0" xMax="698" yMax="673">
      <contour>
        <pt x="334" y="0" on="1"/>
        <pt x="65" y="0" on="1"/>
        <pt x="65" y="111" on="1"/>
        <pt x="186" y="111" on="1"/>
        <pt x="114" y="183" on="0"/>
        <pt x="49" y="327" on="0"/>
        <pt x="49" y="393" on="1"/>
        <pt x="49" y="456" on="0"/>
        <pt x="100" y="560" on="0"/>
        <pt x="188" y="633" on="0"/>
        <pt x="306" y="673" on="0"/>
        <pt x="374" y="673" on="1"/>
        <pt x="441" y="673" on="0"/>
        <pt x="560" y="633" on="0"/>
        <pt x="647" y="560" on="0"/>
        <pt x="698" y="456" on="0"/>
        <pt x="698" y="393" on="1"/>
        <pt x="698" y="324" on="0"/>
        <pt x="634" y="189" on="0"/>
        <pt x="562" y="111" on="1"/>
        <pt x="682" y="111" on="1"/>
        <pt x="682" y="0" on="1"/>
        <pt x="413" y="0" on="1"/>
        <pt x="413" y="55" on="1"/>
        <pt x="413" y="65" on="0"/>
        <pt x="418" y="79" on="0"/>
        <pt x="425" y="90" on="1"/>
        <pt x="482" y="183" on="1"/>
        <pt x="516" y="238" on="0"/>
        <pt x="555" y="333" on="0"/>
        <pt x="555" y="384" on="1"/>
        <pt x="555" y="426" on="0"/>
        <pt x="527" y="486" on="0"/>
        <pt x="477" y="524" on="0"/>
        <pt x="411" y="542" on="0"/>
        <pt x="374" y="542" on="1"/>
        <pt x="336" y="542" on="0"/>
        <pt x="270" y="524" on="0"/>
        <pt x="221" y="485" on="0"/>
        <pt x="192" y="425" on="0"/>
        <pt x="192" y="384" on="1"/>
        <pt x="192" y="333" on="0"/>
        <pt x="231" y="238" on="0"/>
        <pt x="265" y="183" on="1"/>
        <pt x="322" y="90" on="1"/>
        <pt x="329" y="79" on="0"/>
        <pt x="334" y="65" on="0"/>
        <pt x="334" y="55" on="1"/>
      </contour>
    </TTGlyph>
    <TTGlyph name="Oslash" xMin="36" yMin="-48" xMax="704" yMax="716">
      <contour>
        <pt x="371" y="-10" on="1"/>
        <pt x="324" y="-10" on="0"/>
        <pt x="232" y="14" on="0"/>
        <pt x="193" y="38" on="1"/>
        <pt x="127" y="-48" on="1"/>
        <pt x="51" y="7" on="1"/>
        <pt x="121" y="98" on="1"/>
        <pt x="82" y="142" on="0"/>
        <pt x="36" y="259" on="0"/>
        <pt x="36" y="331" on="1"/>
        <pt x="36" y="410" on="0"/>
        <pt x="91" y="536" on="0"/>
        <pt x="183" y="625" on="0"/>
        <pt x="303" y="673" on="0"/>
        <pt x="369" y="673" on="1"/>
        <pt x="371" y="673" on="1"/>
        <pt x="458" y="673" on="0"/>
        <pt x="532" y="632" on="1"/>
        <pt x="597" y="716" on="1"/>
        <pt x="673" y="661" on="1"/>
        <pt x="607" y="576" on="1"/>
        <pt x="652" y="531" on="0"/>
        <pt x="704" y="408" on="0"/>
        <pt x="704" y="331" on="1"/>
        <pt x="704" y="253" on="0"/>
        <pt x="649" y="126" on="0"/>
        <pt x="557" y="38" on="0"/>
        <pt x="437" y="-10" on="0"/>
      </contour>
      <contour>
        <pt x="560" y="331" on="1"/>
        <pt x="560" y="372" on="0"/>
        <pt x="542" y="441" on="0"/>
        <pt x="523" y="467" on="1"/>
        <pt x="275" y="145" on="1"/>
        <pt x="314" y="124" on="0"/>
        <pt x="369" y="124" on="1"/>
        <pt x="371" y="124" on="1"/>
        <pt x="459" y="124" on="0"/>
        <pt x="560" y="231" on="0"/>
      </contour>
      <contour>
        <pt x="180" y="331" on="1"/>
        <pt x="180" y="296" on="0"/>
        <pt x="194" y="234" on="0"/>
        <pt x="207" y="210" on="1"/>
        <pt x="449" y="525" on="1"/>
        <pt x="432" y="532" on="0"/>
        <pt x="392" y="538" on="0"/>
        <pt x="371" y="538" on="1"/>
        <pt x="369" y="538" on="1"/>
        <pt x="281" y="538" on="0"/>
        <pt x="180" y="431" on="0"/>
      </contour>
    </TTGlyph>
    <TTGlyph name="Oslashacute" xMin="36" yMin="-48" xMax="704" yMax="923">
      <component glyphName="Oslash" x="0" y="0" flags="0x204"/>
      <component glyphName="acute.cap" x="166" y="0" flags="0x4"/>
    </TTGlyph>
    <TTGlyph name="Otilde" xMin="36" yMin="-10" xMax="704" yMax="880">
      <component glyphName="O" x="0" y="0" flags="0x204"/>
      <component glyphName="tilde.cap" x="163" y="0" flags="0x4"/>
    </TTGlyph>
    <TTGlyph name="P" xMin="68" yMin="0" xMax="605" yMax="663">
      <contour>
        <pt x="206" y="0" on="1"/>
        <pt x="68" y="0" on="1"/>
        <pt x="68" y="663" on="1"/>
        <pt x="327" y="663" on="1"/>
        <pt x="403" y="663" on="0"/>
        <pt x="513" y="633" on="0"/>
        <pt x="549" y="597" on="1"/>
        <pt x="575" y="570" on="0"/>
        <pt x="605" y="490" on="0"/>
        <pt x="605" y="439" on="1"/>
        <pt x="605" y="385" on="0"/>
        <pt x="573" y="298" on="0"/>
        <pt x="541" y="268" on="1"/>
        <pt x="511" y="240" on="0"/>
        <pt x="425" y="211" on="0"/>
        <pt x="360" y="211" on="1"/>
        <pt x="206" y="211" on="1"/>
      </contour>
      <contour>
        <pt x="396" y="326" on="1"/>
        <pt x="413" y="326" on="0"/>
        <pt x="431" y="334" on="0"/>
        <pt x="438" y="344" on="1"/>
        <pt x="449" y="360" on="0"/>
        <pt x="464" y="412" on="0"/>
        <pt x="464" y="439" on="1"/>
        <pt x="464" y="494" on="0"/>
        <pt x="437" y="519" on="1"/>
        <pt x="421" y="534" on="0"/>
        <pt x="371" y="546" on="0"/>
        <pt x="335" y="546" on="1"/>
        <pt x="206" y="546" on="1"/>
        <pt x="206" y="326" on="1"/>
      </contour>
    </TTGlyph>
    <TTGlyph name="Q" xMin="36" yMin="-186" xMax="704" yMax="673">
      <contour>
        <pt x="371" y="-10" on="1"/>
        <pt x="305" y="-10" on="0"/>
        <pt x="183" y="37" on="0"/>
        <pt x="91" y="126" on="0"/>
        <pt x="36" y="252" on="0"/>
        <pt x="36" y="331" on="1"/>
        <pt x="36" y="410" on="0"/>
        <pt x="91" y="536" on="0"/>
        <pt x="183" y="625" on="0"/>
        <pt x="303" y="673" on="0"/>
        <pt x="369" y="673" on="1"/>
        <pt x="371" y="673" on="1"/>
        <pt x="437" y="673" on="0"/>
        <pt x="557" y="625" on="0"/>
        <pt x="649" y="536" on="0"/>
        <pt x="704" y="410" on="0"/>
        <pt x="704" y="331" on="1"/>
        <pt x="704" y="279" on="0"/>
        <pt x="679" y="189" on="0"/>
        <pt x="636" y="114" on="0"/>
        <pt x="576" y="55" on="0"/>
        <pt x="540" y="34" on="1"/>
        <pt x="649" y="-132" on="1"/>
        <pt x="514" y="-186" on="1"/>
        <pt x="420" y="-6" on="1"/>
        <pt x="408" y="-8" on="0"/>
        <pt x="383" y="-10" on="0"/>
      </contour>
      <contour>
        <pt x="180" y="331" on="1"/>
        <pt x="180" y="232" on="0"/>
        <pt x="281" y="124" on="0"/>
        <pt x="369" y="124" on="1"/>
        <pt x="371" y="124" on="1"/>
        <pt x="459" y="124" on="0"/>
        <pt x="560" y="231" on="0"/>
        <pt x="560" y="331" on="1"/>
        <pt x="560" y="431" on="0"/>
        <pt x="459" y="538" on="0"/>
        <pt x="371" y="538" on="1"/>
        <pt x="369" y="538" on="1"/>
        <pt x="281" y="538" on="0"/>
        <pt x="180" y="431" on="0"/>
      </contour>
    </TTGlyph>
    <TTGlyph name="R" xMin="68" yMin="0" xMax="649" yMax="663">
      <contour>
        <pt x="371" y="210" on="1"/>
        <pt x="365" y="220" on="0"/>
        <pt x="356" y="223" on="0"/>
        <pt x="345" y="223" on="1"/>
        <pt x="206" y="223" on="1"/>
        <pt x="206" y="0" on="1"/>
        <pt x="68" y="0" on="1"/>
        <pt x="68" y="663" on="1"/>
        <pt x="329" y="663" on="1"/>
        <pt x="396" y="663" on="0"/>
        <pt x="500" y="640" on="0"/>
        <pt x="571" y="588" on="0"/>
        <pt x="608" y="506" on="0"/>
        <pt x="608" y="447" on="1"/>
        <pt x="608" y="381" on="0"/>
        <pt x="547" y="281" on="0"/>
        <pt x="498" y="250" on="1"/>
        <pt x="649" y="0" on="1"/>
        <pt x="510" y="0" on="1"/>
        <pt x="500" y="0" on="0"/>
        <pt x="491" y="3" on="0"/>
        <pt x="485" y="14" on="1"/>
      </contour>
      <contour>
        <pt x="405" y="338" on="1"/>
        <pt x="432" y="338" on="0"/>
        <pt x="444" y="356" on="1"/>
        <pt x="455" y="373" on="0"/>
        <pt x="467" y="420" on="0"/>
        <pt x="467" y="447" on="1"/>
        <pt x="467" y="497" on="0"/>
        <pt x="443" y="520" on="1"/>
        <pt x="427" y="534" on="0"/>
        <pt x="375" y="546" on="0"/>
        <pt x="333" y="546" on="1"/>
        <pt x="206" y="546" on="1"/>
        <pt x="206" y="338" on="1"/>
      </contour>
    </TTGlyph>
    <TTGlyph name="Racute" xMin="68" yMin="0" xMax="649" yMax="923">
      <component glyphName="R" x="0" y="0" flags="0x204"/>
      <component glyphName="acute.cap" x="133" y="0" flags="0x4"/>
    </TTGlyph>
    <TTGlyph name="Rcaron" xMin="68" yMin="0" xMax="649" yMax="920">
      <component glyphName="R" x="0" y="0" flags="0x204"/>
      <component glyphName="caron.cap" x="130" y="0" flags="0x4"/>
    </TTGlyph>
    <TTGlyph name="Rcommaaccent" xMin="68" yMin="-294" xMax="649" yMax="663">
      <component glyphName="R" x="0" y="0" flags="0x204"/>
      <component glyphName="commaaccent" x="116" y="0" flags="0x4"/>
    </TTGlyph>
    <TTGlyph name="S" xMin="37" yMin="-10" xMax="555" yMax="673">
      <contour>
        <pt x="72" y="150" on="1"/>
        <pt x="140" y="135" on="1"/>
        <pt x="197" y="122" on="0"/>
        <pt x="277" y="111" on="0"/>
        <pt x="311" y="111" on="1"/>
        <pt x="362" y="111" on="0"/>
        <pt x="425" y="153" on="0"/>
        <pt x="425" y="194" on="1"/>
        <pt x="425" y="226" on="0"/>
        <pt x="377" y="258" on="0"/>
        <pt x="319" y="275" on="1"/>
        <pt x="251" y="295" on="1"/>
        <pt x="151" y="324" on="0"/>
        <pt x="44" y="414" on="0"/>
        <pt x="44" y="491" on="1"/>
        <pt x="44" y="536" on="0"/>
        <pt x="83" y="604" on="0"/>
        <pt x="152" y="650" on="0"/>
        <pt x="244" y="673" on="0"/>
        <pt x="297" y="673" on="1"/>
        <pt x="354" y="673" on="0"/>
        <pt x="469" y="650" on="0"/>
        <pt x="523" y="628" on="1"/>
        <pt x="502" y="535" on="1"/>
        <pt x="449" y="541" on="1"/>
        <pt x="411" y="546" on="0"/>
        <pt x="333" y="552" on="0"/>
        <pt x="305" y="552" on="1"/>
        <pt x="239" y="552" on="0"/>
        <pt x="173" y="524" on="0"/>
        <pt x="173" y="492" on="1"/>
        <pt x="173" y="464" on="0"/>
        <pt x="226" y="433" on="0"/>
        <pt x="279" y="418" on="1"/>
        <pt x="341" y="400" on="1"/>
        <pt x="401" y="383" on="0"/>
        <pt x="483" y="344" on="0"/>
        <pt x="533" y="297" on="0"/>
        <pt x="555" y="238" on="0"/>
        <pt x="555" y="200" on="1"/>
        <pt x="555" y="103" on="0"/>
        <pt x="424" y="-10" on="0"/>
        <pt x="303" y="-10" on="1"/>
        <pt x="270" y="-10" on="0"/>
        <pt x="198" y="1" on="0"/>
        <pt x="128" y="20" on="0"/>
        <pt x="63" y="46" on="0"/>
        <pt x="37" y="60" on="1"/>
      </contour>
    </TTGlyph>
    <TTGlyph name="Sacute" xMin="37" yMin="-10" xMax="555" yMax="923">
      <component glyphName="S" x="0" y="0" flags="0x204"/>
      <component glyphName="acute.cap" x="92" y="0" flags="0x4"/>
    </TTGlyph>
    <TTGlyph name="Scaron" xMin="37" yMin="-10" xMax="555" yMax="920">
      <component glyphName="S" x="0" y="0" flags="0x204"/>
      <component glyphName="caron.cap" x="94" y="0" flags="0x4"/>
    </TTGlyph>
    <TTGlyph name="Scedilla" xMin="37" yMin="-242" xMax="555" yMax="673">
      <contour>
        <pt x="72" y="150" on="1"/>
        <pt x="140" y="135" on="1"/>
        <pt x="197" y="122" on="0"/>
        <pt x="277" y="111" on="0"/>
        <pt x="311" y="111" on="1"/>
        <pt x="362" y="111" on="0"/>
        <pt x="425" y="153" on="0"/>
        <pt x="425" y="194" on="1"/>
        <pt x="425" y="226" on="0"/>
        <pt x="377" y="258" on="0"/>
        <pt x="319" y="275" on="1"/>
        <pt x="251" y="295" on="1"/>
        <pt x="151" y="324" on="0"/>
        <pt x="44" y="414" on="0"/>
        <pt x="44" y="491" on="1"/>
        <pt x="44" y="536" on="0"/>
        <pt x="83" y="604" on="0"/>
        <pt x="152" y="650" on="0"/>
        <pt x="244" y="673" on="0"/>
        <pt x="297" y="673" on="1"/>
        <pt x="354" y="673" on="0"/>
        <pt x="469" y="650" on="0"/>
        <pt x="523" y="628" on="1"/>
        <pt x="502" y="535" on="1"/>
        <pt x="449" y="541" on="1"/>
        <pt x="411" y="546" on="0"/>
        <pt x="333" y="552" on="0"/>
        <pt x="305" y="552" on="1"/>
        <pt x="239" y="552" on="0"/>
        <pt x="173" y="524" on="0"/>
        <pt x="173" y="492" on="1"/>
        <pt x="173" y="464" on="0"/>
        <pt x="226" y="433" on="0"/>
        <pt x="279" y="418" on="1"/>
        <pt x="341" y="400" on="1"/>
        <pt x="401" y="383" on="0"/>
        <pt x="483" y="344" on="0"/>
        <pt x="533" y="297" on="0"/>
        <pt x="555" y="238" on="0"/>
        <pt x="555" y="200" on="1"/>
        <pt x="555" y="109" on="0"/>
        <pt x="438" y="-2" on="0"/>
        <pt x="330" y="-9" on="1"/>
        <pt x="318" y="-26" on="0"/>
        <pt x="318" y="-37" on="1"/>
        <pt x="318" y="-48" on="0"/>
        <pt x="352" y="-59" on="0"/>
        <pt x="392" y="-75" on="0"/>
        <pt x="426" y="-105" on="0"/>
        <pt x="426" y="-134" on="1"/>
        <pt x="426" y="-181" on="0"/>
        <pt x="332" y="-242" on="0"/>
        <pt x="238" y="-242" on="1"/>
        <pt x="225" y="-172" on="1"/>
        <pt x="258" y="-167" on="1"/>
        <pt x="287" y="-162" on="0"/>
        <pt x="318" y="-150" on="0"/>
        <pt x="318" y="-140" on="1"/>
        <pt x="318" y="-132" on="0"/>
        <pt x="288" y="-121" on="0"/>
        <pt x="251" y="-107" on="0"/>
        <pt x="221" y="-86" on="0"/>
        <pt x="221" y="-66" on="1"/>
        <pt x="221" y="-51" on="0"/>
        <pt x="240" y="-22" on="0"/>
        <pt x="255" y="-7" on="1"/>
        <pt x="197" y="-1" on="0"/>
        <pt x="80" y="36" on="0"/>
        <pt x="37" y="60" on="1"/>
      </contour>
    </TTGlyph>
    <TTGlyph name="Scircumflex" xMin="37" yMin="-10" xMax="555" yMax="909">
      <component glyphName="S" x="0" y="0" flags="0x204"/>
      <component glyphName="circumflex.cap" x="95" y="0" flags="0x4"/>
    </TTGlyph>
    <TTGlyph name="Scommaaccent" xMin="37" yMin="-294" xMax="555" yMax="673">
      <component glyphName="S" x="0" y="0" flags="0x204"/>
      <component glyphName="commaaccent" x="85" y="0" flags="0x4"/>
    </TTGlyph>
    <TTGlyph name="T" xMin="17" yMin="0" xMax="597" yMax="663">
      <contour>
        <pt x="376" y="0" on="1"/>
        <pt x="238" y="0" on="1"/>
        <pt x="238" y="547" on="1"/>
        <pt x="17" y="547" on="1"/>
        <pt x="17" y="663" on="1"/>
        <pt x="597" y="663" on="1"/>
        <pt x="597" y="547" on="1"/>
        <pt x="376" y="547" on="1"/>
      </contour>
    </TTGlyph>
    <TTGlyph name="Tbar" xMin="17" yMin="0" xMax="597" yMax="663">
      <contour>
        <pt x="102" y="277" on="1"/>
        <pt x="102" y="376" on="1"/>
        <pt x="238" y="376" on="1"/>
        <pt x="238" y="547" on="1"/>
        <pt x="17" y="547" on="1"/>
        <pt x="17" y="663" on="1"/>
        <pt x="597" y="663" on="1"/>
        <pt x="597" y="547" on="1"/>
        <pt x="376" y="547" on="1"/>
        <pt x="376" y="376" on="1"/>
        <pt x="512" y="376" on="1"/>
        <pt x="512" y="277" on="1"/>
        <pt x="376" y="277" on="1"/>
        <pt x="376" y="0" on="1"/>
        <pt x="238" y="0" on="1"/>
        <pt x="238" y="277" on="1"/>
      </contour>
    </TTGlyph>
    <TTGlyph name="Tcaron" xMin="17" yMin="0" xMax="597" yMax="920">
      <component glyphName="T" x="0" y="0" flags="0x204"/>
      <component glyphName="caron.cap" x="101" y="0" flags="0x4"/>
    </TTGlyph>
    <TTGlyph name="Tcommaaccent" xMin="17" yMin="-294" xMax="597" yMax="663">
      <component glyphName="T" x="0" y="0" flags="0x204"/>
      <component glyphName="commaaccent" x="95" y="0" flags="0x4"/>
    </TTGlyph>
    <TTGlyph name="Thorn" xMin="68" yMin="0" xMax="605" yMax="663">
      <contour>
        <pt x="206" y="0" on="1"/>
        <pt x="68" y="0" on="1"/>
        <pt x="68" y="663" on="1"/>
        <pt x="206" y="663" on="1"/>
        <pt x="206" y="559" on="1"/>
        <pt x="327" y="559" on="1"/>
        <pt x="403" y="559" on="0"/>
        <pt x="513" y="529" on="0"/>
        <pt x="549" y="493" on="1"/>
        <pt x="575" y="466" on="0"/>
        <pt x="605" y="386" on="0"/>
        <pt x="605" y="335" on="1"/>
        <pt x="605" y="281" on="0"/>
        <pt x="573" y="194" on="0"/>
        <pt x="541" y="164" on="1"/>
        <pt x="511" y="136" on="0"/>
        <pt x="425" y="107" on="0"/>
        <pt x="360" y="107" on="1"/>
        <pt x="206" y="107" on="1"/>
      </contour>
      <contour>
        <pt x="396" y="221" on="1"/>
        <pt x="413" y="221" on="0"/>
        <pt x="431" y="229" on="0"/>
        <pt x="438" y="239" on="1"/>
        <pt x="449" y="255" on="0"/>
        <pt x="464" y="307" on="0"/>
        <pt x="464" y="334" on="1"/>
        <pt x="464" y="389" on="0"/>
        <pt x="437" y="414" on="1"/>
        <pt x="421" y="429" on="0"/>
        <pt x="371" y="441" on="0"/>
        <pt x="335" y="441" on="1"/>
        <pt x="206" y="441" on="1"/>
        <pt x="206" y="221" on="1"/>
      </contour>
    </TTGlyph>
    <TTGlyph name="U" xMin="61" yMin="-10" xMax="646" yMax="663">
      <contour>
        <pt x="646" y="273" on="1"/>
        <pt x="646" y="201" on="0"/>
        <pt x="610" y="104" on="0"/>
        <pt x="575" y="69" on="1"/>
        <pt x="537" y="30" on="0"/>
        <pt x="422" y="-10" on="0"/>
        <pt x="353" y="-10" on="1"/>
        <pt x="285" y="-10" on="0"/>
        <pt x="171" y="30" on="0"/>
        <pt x="132" y="69" on="1"/>
        <pt x="97" y="104" on="0"/>
        <pt x="61" y="201" on="0"/>
        <pt x="61" y="273" on="1"/>
        <pt x="61" y="663" on="1"/>
        <pt x="199" y="663" on="1"/>
        <pt x="199" y="285" on="1"/>
        <pt x="199" y="240" on="0"/>
        <pt x="213" y="181" on="0"/>
        <pt x="233" y="161" on="1"/>
        <pt x="252" y="143" on="0"/>
        <pt x="317" y="122" on="0"/>
        <pt x="355" y="122" on="1"/>
        <pt x="393" y="122" on="0"/>
        <pt x="459" y="143" on="0"/>
        <pt x="477" y="161" on="1"/>
        <pt x="497" y="181" on="0"/>
        <pt x="511" y="240" on="0"/>
        <pt x="511" y="285" on="1"/>
        <pt x="511" y="663" on="1"/>
        <pt x="646" y="663" on="1"/>
      </contour>
    </TTGlyph>
    <TTGlyph name="Uacute" xMin="61" yMin="-10" xMax="646" yMax="923">
      <component glyphName="U" x="0" y="0" flags="0x204"/>
      <component glyphName="acute.cap" x="152" y="0" flags="0x4"/>
    </TTGlyph>
    <TTGlyph name="Ubreve" xMin="61" yMin="-10" xMax="646" yMax="888">
      <component glyphName="U" x="0" y="0" flags="0x204"/>
      <component glyphName="breve.cap" x="145" y="-6" flags="0x4"/>
    </TTGlyph>
    <TTGlyph name="Ucircumflex" xMin="61" yMin="-10" xMax="646" yMax="909">
      <component glyphName="U" x="0" y="0" flags="0x204"/>
      <component glyphName="circumflex.cap" x="148" y="0" flags="0x4"/>
    </TTGlyph>
    <TTGlyph name="Udieresis" xMin="61" yMin="-10" xMax="646" yMax="869">
      <component glyphName="U" x="0" y="0" flags="0x204"/>
      <component glyphName="dieresis.cap" x="145" y="0" flags="0x4"/>
    </TTGlyph>
    <TTGlyph name="Ugrave" xMin="61" yMin="-10" xMax="646" yMax="923">
      <component glyphName="U" x="0" y="0" flags="0x204"/>
      <component glyphName="grave.cap" x="141" y="0" flags="0x4"/>
    </TTGlyph>
    <TTGlyph name="Uhungarumlaut" xMin="61" yMin="-10" xMax="646" yMax="964">
      <component glyphName="U" x="0" y="0" flags="0x204"/>
      <component glyphName="hungarumlaut.cap" x="169" y="0" flags="0x4"/>
    </TTGlyph>
    <TTGlyph name="Umacron" xMin="61" yMin="-10" xMax="646" yMax="859">
      <component glyphName="U" x="0" y="0" flags="0x204"/>
      <component glyphName="macron.cap" x="145" y="0" flags="0x4"/>
    </TTGlyph>
    <TTGlyph name="Uogonek" xMin="61" yMin="-221" xMax="646" yMax="663">
      <contour>
        <pt x="199" y="285" on="1"/>
        <pt x="199" y="240" on="0"/>
        <pt x="213" y="181" on="0"/>
        <pt x="233" y="161" on="1"/>
        <pt x="252" y="143" on="0"/>
        <pt x="317" y="122" on="0"/>
        <pt x="355" y="122" on="1"/>
        <pt x="393" y="122" on="0"/>
        <pt x="459" y="143" on="0"/>
        <pt x="477" y="161" on="1"/>
        <pt x="497" y="181" on="0"/>
        <pt x="511" y="240" on="0"/>
        <pt x="511" y="285" on="1"/>
        <pt x="511" y="663" on="1"/>
        <pt x="646" y="663" on="1"/>
        <pt x="646" y="273" on="1"/>
        <pt x="646" y="220" on="0"/>
        <pt x="626" y="142" on="0"/>
        <pt x="589" y="83" on="0"/>
        <pt x="535" y="38" on="0"/>
        <pt x="502" y="20" on="1"/>
        <pt x="475" y="5" on="0"/>
        <pt x="427" y="-16" on="0"/>
        <pt x="393" y="-38" on="0"/>
        <pt x="373" y="-66" on="0"/>
        <pt x="373" y="-87" on="1"/>
        <pt x="373" y="-111" on="0"/>
        <pt x="404" y="-134" on="0"/>
        <pt x="431" y="-134" on="1"/>
        <pt x="462" y="-134" on="0"/>
        <pt x="494" y="-127" on="1"/>
        <pt x="514" y="-194" on="1"/>
        <pt x="488" y="-208" on="0"/>
        <pt x="432" y="-221" on="0"/>
        <pt x="407" y="-221" on="1"/>
        <pt x="345" y="-221" on="0"/>
        <pt x="271" y="-160" on="0"/>
        <pt x="271" y="-115" on="1"/>
        <pt x="271" y="-83" on="0"/>
        <pt x="302" y="-29" on="0"/>
        <pt x="328" y="-9" on="1"/>
        <pt x="268" y="-6" on="0"/>
        <pt x="167" y="33" on="0"/>
        <pt x="132" y="69" on="1"/>
        <pt x="97" y="104" on="0"/>
        <pt x="61" y="201" on="0"/>
        <pt x="61" y="273" on="1"/>
        <pt x="61" y="663" on="1"/>
        <pt x="199" y="663" on="1"/>
      </contour>
    </TTGlyph>
    <TTGlyph name="Uring" xMin="61" yMin="-10" xMax="646" yMax="966">
      <component glyphName="U" x="0" y="0" flags="0x204"/>
      <component glyphName="ring.cap" x="145" y="-6" flags="0x4"/>
    </TTGlyph>
    <TTGlyph name="Utilde" xMin="61" yMin="-10" xMax="646" yMax="880">
      <component glyphName="U" x="0" y="0" flags="0x204"/>
      <component glyphName="tilde.cap" x="148" y="0" flags="0x4"/>
    </TTGlyph>
    <TTGlyph name="V" xMin="8" yMin="0" xMax="668" yMax="663">
      <contour>
        <pt x="668" y="663" on="1"/>
        <pt x="424" y="0" on="1"/>
        <pt x="277" y="0" on="1"/>
        <pt x="260" y="0" on="0"/>
        <pt x="254" y="16" on="1"/>
        <pt x="8" y="663" on="1"/>
        <pt x="143" y="663" on="1"/>
        <pt x="150" y="663" on="0"/>
        <pt x="156" y="659" on="0"/>
        <pt x="159" y="651" on="1"/>
        <pt x="265" y="367" on="1"/>
        <pt x="276" y="337" on="0"/>
        <pt x="299" y="267" on="0"/>
        <pt x="320" y="200" on="0"/>
        <pt x="337" y="142" on="0"/>
        <pt x="342" y="123" on="1"/>
        <pt x="344" y="123" on="1"/>
        <pt x="350" y="145" on="0"/>
        <pt x="370" y="213" on="0"/>
        <pt x="394" y="289" on="0"/>
        <pt x="419" y="366" on="0"/>
        <pt x="431" y="398" on="1"/>
        <pt x="521" y="651" on="1"/>
        <pt x="524" y="659" on="0"/>
        <pt x="530" y="663" on="0"/>
        <pt x="537" y="663" on="1"/>
      </contour>
    </TTGlyph>
    <TTGlyph name="W" xMin="8" yMin="0" xMax="1008" yMax="663">
      <contour>
        <pt x="656" y="0" on="1"/>
        <pt x="638" y="0" on="0"/>
        <pt x="634" y="14" on="1"/>
        <pt x="583" y="182" on="1"/>
        <pt x="575" y="209" on="0"/>
        <pt x="551" y="289" on="0"/>
        <pt x="528" y="373" on="0"/>
        <pt x="509" y="448" on="0"/>
        <pt x="505" y="470" on="1"/>
        <pt x="501" y="448" on="0"/>
        <pt x="483" y="375" on="0"/>
        <pt x="461" y="292" on="0"/>
        <pt x="438" y="209" on="0"/>
        <pt x="429" y="178" on="1"/>
        <pt x="378" y="0" on="1"/>
        <pt x="236" y="0" on="1"/>
        <pt x="218" y="0" on="0"/>
        <pt x="214" y="14" on="1"/>
        <pt x="8" y="663" on="1"/>
        <pt x="137" y="663" on="1"/>
        <pt x="145" y="663" on="0"/>
        <pt x="152" y="659" on="0"/>
        <pt x="154" y="651" on="1"/>
        <pt x="241" y="367" on="1"/>
        <pt x="258" y="310" on="0"/>
        <pt x="292" y="188" on="0"/>
        <pt x="303" y="143" on="1"/>
        <pt x="308" y="170" on="0"/>
        <pt x="324" y="239" on="0"/>
        <pt x="344" y="315" on="0"/>
        <pt x="365" y="394" on="0"/>
        <pt x="376" y="431" on="1"/>
        <pt x="445" y="663" on="1"/>
        <pt x="557" y="663" on="1"/>
        <pt x="565" y="663" on="0"/>
        <pt x="572" y="659" on="0"/>
        <pt x="574" y="651" on="1"/>
        <pt x="663" y="358" on="1"/>
        <pt x="681" y="298" on="0"/>
        <pt x="711" y="182" on="0"/>
        <pt x="719" y="143" on="1"/>
        <pt x="730" y="187" on="0"/>
        <pt x="765" y="321" on="0"/>
        <pt x="788" y="394" on="1"/>
        <pt x="869" y="651" on="1"/>
        <pt x="871" y="659" on="0"/>
        <pt x="878" y="663" on="0"/>
        <pt x="885" y="663" on="1"/>
        <pt x="1008" y="663" on="1"/>
        <pt x="797" y="0" on="1"/>
      </contour>
    </TTGlyph>
    <TTGlyph name="Wacute" xMin="8" yMin="0" xMax="1008" yMax="923">
      <component glyphName="W" x="0" y="0" flags="0x204"/>
      <component glyphName="acute.cap" x="304" y="0" flags="0x4"/>
    </TTGlyph>
    <TTGlyph name="Wcircumflex" xMin="8" yMin="0" xMax="1008" yMax="909">
      <component glyphName="W" x="0" y="0" flags="0x204"/>
      <component glyphName="circumflex.cap" x="298" y="0" flags="0x4"/>
    </TTGlyph>
    <TTGlyph name="Wdieresis" xMin="8" yMin="0" xMax="1008" yMax="869">
      <component glyphName="W" x="0" y="0" flags="0x204"/>
      <component glyphName="dieresis.cap" x="298" y="0" flags="0x4"/>
    </TTGlyph>
    <TTGlyph name="Wgrave" xMin="8" yMin="0" xMax="1008" yMax="923">
      <component glyphName="W" x="0" y="0" flags="0x204"/>
      <component glyphName="grave.cap" x="300" y="0" flags="0x4"/>
    </TTGlyph>
    <TTGlyph name="X" xMin="5" yMin="0" xMax="677" yMax="663">
      <contour>
        <pt x="418" y="343" on="1"/>
        <pt x="677" y="0" on="1"/>
        <pt x="532" y="0" on="1"/>
        <pt x="524" y="0" on="0"/>
        <pt x="514" y="4" on="0"/>
        <pt x="509" y="10" on="1"/>
        <pt x="333" y="247" on="1"/>
        <pt x="164" y="9" on="1"/>
        <pt x="158" y="0" on="0"/>
        <pt x="143" y="0" on="1"/>
        <pt x="5" y="0" on="1"/>
        <pt x="252" y="342" on="1"/>
        <pt x="8" y="663" on="1"/>
        <pt x="153" y="663" on="1"/>
        <pt x="163" y="663" on="0"/>
        <pt x="172" y="659" on="0"/>
        <pt x="177" y="652" on="1"/>
        <pt x="338" y="437" on="1"/>
        <pt x="493" y="652" on="1"/>
        <pt x="498" y="659" on="0"/>
        <pt x="507" y="663" on="0"/>
        <pt x="516" y="663" on="1"/>
        <pt x="651" y="663" on="1"/>
      </contour>
    </TTGlyph>
    <TTGlyph name="Y" xMin="0" yMin="0" xMax="669" yMax="663">
      <contour>
        <pt x="405" y="211" on="1"/>
        <pt x="405" y="0" on="1"/>
        <pt x="267" y="0" on="1"/>
        <pt x="267" y="211" on="1"/>
        <pt x="0" y="663" on="1"/>
        <pt x="141" y="663" on="1"/>
        <pt x="149" y="663" on="0"/>
        <pt x="156" y="659" on="0"/>
        <pt x="160" y="652" on="1"/>
        <pt x="247" y="499" on="1"/>
        <pt x="272" y="454" on="0"/>
        <pt x="320" y="361" on="0"/>
        <pt x="338" y="326" on="1"/>
        <pt x="355" y="361" on="0"/>
        <pt x="405" y="453" on="0"/>
        <pt x="431" y="501" on="1"/>
        <pt x="515" y="651" on="1"/>
        <pt x="519" y="658" on="0"/>
        <pt x="527" y="663" on="0"/>
        <pt x="535" y="663" on="1"/>
        <pt x="669" y="663" on="1"/>
      </contour>
    </TTGlyph>
    <TTGlyph name="Yacute" xMin="0" yMin="0" xMax="669" yMax="923">
      <component glyphName="Y" x="0" y="0" flags="0x204"/>
      <component glyphName="acute.cap" x="138" y="0" flags="0x4"/>
    </TTGlyph>
    <TTGlyph name="Ycircumflex" xMin="0" yMin="0" xMax="669" yMax="909">
      <component glyphName="Y" x="0" y="0" flags="0x204"/>
      <component glyphName="circumflex.cap" x="128" y="0" flags="0x4"/>
    </TTGlyph>
    <TTGlyph name="Ydieresis" xMin="0" yMin="0" xMax="669" yMax="869">
      <component glyphName="Y" x="0" y="0" flags="0x204"/>
      <component glyphName="dieresis.cap" x="126" y="0" flags="0x4"/>
    </TTGlyph>
    <TTGlyph name="Ygrave" xMin="0" yMin="0" xMax="669" yMax="923">
      <component glyphName="Y" x="0" y="0" flags="0x204"/>
      <component glyphName="grave.cap" x="115" y="0" flags="0x4"/>
    </TTGlyph>
    <TTGlyph name="Z" xMin="45" yMin="0" xMax="569" yMax="663">
      <contour>
        <pt x="45" y="547" on="1"/>
        <pt x="45" y="663" on="1"/>
        <pt x="565" y="663" on="1"/>
        <pt x="565" y="586" on="1"/>
        <pt x="565" y="575" on="0"/>
        <pt x="559" y="562" on="0"/>
        <pt x="551" y="551" on="1"/>
        <pt x="321" y="248" on="1"/>
        <pt x="296" y="215" on="0"/>
        <pt x="240" y="144" on="0"/>
        <pt x="217" y="116" on="1"/>
        <pt x="569" y="116" on="1"/>
        <pt x="569" y="0" on="1"/>
        <pt x="48" y="0" on="1"/>
        <pt x="48" y="76" on="1"/>
        <pt x="48" y="87" on="0"/>
        <pt x="53" y="100" on="0"/>
        <pt x="61" y="112" on="1"/>
        <pt x="291" y="415" on="1"/>
        <pt x="320" y="454" on="0"/>
        <pt x="376" y="523" on="0"/>
        <pt x="396" y="547" on="1"/>
      </contour>
    </TTGlyph>
    <TTGlyph name="Zacute" xMin="45" yMin="0" xMax="569" yMax="923">
      <component glyphName="Z" x="0" y="0" flags="0x204"/>
      <component glyphName="acute.cap" x="105" y="0" flags="0x4"/>
    </TTGlyph>
    <TTGlyph name="Zcaron" xMin="45" yMin="0" xMax="569" yMax="920">
      <component glyphName="Z" x="0" y="0" flags="0x204"/>
      <component glyphName="caron.cap" x="103" y="0" flags="0x4"/>
    </TTGlyph>
    <TTGlyph name="Zdotaccent" xMin="45" yMin="0" xMax="569" yMax="857">
      <component glyphName="Z" x="0" y="0" flags="0x204"/>
      <component glyphName="dotaccent.cap" x="100" y="0" flags="0x4"/>
    </TTGlyph>
    <TTGlyph name="a" xMin="30" yMin="-8" xMax="538" yMax="496">
      <contour>
        <pt x="342" y="307" on="1"/>
        <pt x="342" y="345" on="0"/>
        <pt x="324" y="363" on="1"/>
        <pt x="303" y="384" on="0"/>
        <pt x="252" y="384" on="1"/>
        <pt x="227" y="384" on="0"/>
        <pt x="166" y="371" on="0"/>
        <pt x="133" y="360" on="1"/>
        <pt x="92" y="346" on="1"/>
        <pt x="52" y="416" on="1"/>
        <pt x="101" y="454" on="0"/>
        <pt x="211" y="496" on="0"/>
        <pt x="267" y="496" on="1"/>
        <pt x="314" y="496" on="0"/>
        <pt x="394" y="470" on="0"/>
        <pt x="423" y="440" on="1"/>
        <pt x="446" y="417" on="0"/>
        <pt x="471" y="349" on="0"/>
        <pt x="471" y="299" on="1"/>
        <pt x="471" y="101" on="1"/>
        <pt x="538" y="88" on="1"/>
        <pt x="538" y="19" on="1"/>
        <pt x="520" y="10" on="0"/>
        <pt x="466" y="-2" on="0"/>
        <pt x="446" y="-2" on="1"/>
        <pt x="420" y="-2" on="0"/>
        <pt x="378" y="21" on="0"/>
        <pt x="360" y="41" on="1"/>
        <pt x="334" y="27" on="1"/>
        <pt x="268" y="-8" on="0"/>
        <pt x="209" y="-8" on="1"/>
        <pt x="169" y="-8" on="0"/>
        <pt x="103" y="17" on="0"/>
        <pt x="56" y="61" on="0"/>
        <pt x="30" y="121" on="0"/>
        <pt x="30" y="156" on="1"/>
        <pt x="30" y="222" on="0"/>
        <pt x="122" y="294" on="0"/>
        <pt x="200" y="294" on="1"/>
        <pt x="203" y="294" on="1"/>
        <pt x="235" y="294" on="0"/>
        <pt x="312" y="283" on="0"/>
        <pt x="342" y="275" on="1"/>
      </contour>
      <contour>
        <pt x="342" y="190" on="1"/>
        <pt x="342" y="200" on="0"/>
        <pt x="331" y="200" on="1"/>
        <pt x="191" y="200" on="1"/>
        <pt x="170" y="200" on="0"/>
        <pt x="153" y="181" on="0"/>
        <pt x="153" y="161" on="1"/>
        <pt x="153" y="133" on="0"/>
        <pt x="193" y="97" on="0"/>
        <pt x="233" y="97" on="1"/>
        <pt x="259" y="97" on="0"/>
        <pt x="315" y="110" on="0"/>
        <pt x="329" y="116" on="1"/>
        <pt x="337" y="119" on="0"/>
        <pt x="342" y="125" on="0"/>
        <pt x="342" y="133" on="1"/>
      </contour>
    </TTGlyph>
    <TTGlyph name="aacute" xMin="30" yMin="-8" xMax="538" yMax="746">
      <component glyphName="a" x="0" y="0" flags="0x204"/>
      <component glyphName="acute" x="69" y="0" flags="0x4"/>
    </TTGlyph>
    <TTGlyph name="abreve" xMin="30" yMin="-8" xMax="538" yMax="717">
      <component glyphName="a" x="0" y="0" flags="0x204"/>
      <component glyphName="breve" x="66" y="0" flags="0x4"/>
    </TTGlyph>
    <TTGlyph name="acaron" xMin="30" yMin="-8" xMax="538" yMax="743">
      <component glyphName="a" x="0" y="0" flags="0x204"/>
      <component glyphName="caron" x="66" y="0" flags="0x4"/>
    </TTGlyph>
    <TTGlyph name="acircumflex" xMin="30" yMin="-8" xMax="538" yMax="732">
      <component glyphName="a" x="0" y="0" flags="0x204"/>
      <component glyphName="circumflex" x="66" y="0" flags="0x4"/>
    </TTGlyph>
    <TTGlyph name="acute" xMin="75" yMin="542" xMax="341" yMax="746">
      <contour>
        <pt x="116" y="542" on="1"/>
        <pt x="75" y="599" on="1"/>
        <pt x="258" y="739" on="1"/>
        <pt x="268" y="746" on="0"/>
        <pt x="274" y="746" on="1"/>
        <pt x="282" y="746" on="0"/>
        <pt x="290" y="734" on="1"/>
        <pt x="341" y="658" on="1"/>
      </contour>
    </TTGlyph>
    <TTGlyph name="acute.cap" xMin="75" yMin="719" xMax="341" yMax="923">
      <contour>
        <pt x="116" y="719" on="1"/>
        <pt x="75" y="776" on="1"/>
        <pt x="258" y="916" on="1"/>
        <pt x="268" y="923" on="0"/>
        <pt x="274" y="923" on="1"/>
        <pt x="282" y="923" on="0"/>
        <pt x="290" y="911" on="1"/>
        <pt x="341" y="835" on="1"/>
      </contour>
    </TTGlyph>
    <TTGlyph name="adieresis" xMin="30" yMin="-8" xMax="538" yMax="692">
      <component glyphName="a" x="0" y="0" flags="0x204"/>
      <component glyphName="dieresis" x="66" y="0" flags="0x4"/>
    </TTGlyph>
    <TTGlyph name="ae" xMin="32" yMin="-8" xMax="821" yMax="496">
      <contour>
        <pt x="243" y="96" on="1"/>
        <pt x="272" y="96" on="0"/>
        <pt x="338" y="113" on="0"/>
        <pt x="363" y="127" on="1"/>
        <pt x="347" y="163" on="0"/>
        <pt x="342" y="204" on="1"/>
        <pt x="199" y="204" on="1"/>
        <pt x="175" y="204" on="0"/>
        <pt x="155" y="182" on="0"/>
        <pt x="155" y="163" on="1"/>
        <pt x="155" y="136" on="0"/>
        <pt x="200" y="96" on="0"/>
      </contour>
      <contour>
        <pt x="472" y="204" on="1"/>
        <pt x="477" y="160" on="0"/>
        <pt x="543" y="106" on="0"/>
        <pt x="603" y="106" on="1"/>
        <pt x="626" y="106" on="0"/>
        <pt x="679" y="117" on="0"/>
        <pt x="708" y="127" on="1"/>
        <pt x="769" y="148" on="1"/>
        <pt x="810" y="77" on="1"/>
        <pt x="766" y="39" on="0"/>
        <pt x="650" y="-8" on="0"/>
        <pt x="589" y="-8" on="1"/>
        <pt x="535" y="-8" on="0"/>
        <pt x="447" y="27" on="0"/>
        <pt x="416" y="58" on="1"/>
        <pt x="378" y="36" on="1"/>
        <pt x="342" y="15" on="0"/>
        <pt x="265" y="-8" on="0"/>
        <pt x="223" y="-8" on="1"/>
        <pt x="184" y="-8" on="0"/>
        <pt x="115" y="16" on="0"/>
        <pt x="62" y="59" on="0"/>
        <pt x="32" y="120" on="0"/>
        <pt x="32" y="158" on="1"/>
        <pt x="32" y="192" on="0"/>
        <pt x="58" y="245" on="0"/>
        <pt x="103" y="281" on="0"/>
        <pt x="165" y="299" on="0"/>
        <pt x="202" y="299" on="1"/>
        <pt x="207" y="299" on="1"/>
        <pt x="239" y="299" on="0"/>
        <pt x="312" y="289" on="0"/>
        <pt x="341" y="281" on="1"/>
        <pt x="341" y="310" on="1"/>
        <pt x="341" y="354" on="0"/>
        <pt x="294" y="383" on="0"/>
        <pt x="253" y="383" on="1"/>
        <pt x="227" y="383" on="0"/>
        <pt x="163" y="370" on="0"/>
        <pt x="134" y="360" on="1"/>
        <pt x="93" y="346" on="1"/>
        <pt x="54" y="416" on="1"/>
        <pt x="103" y="454" on="0"/>
        <pt x="211" y="496" on="0"/>
        <pt x="266" y="496" on="1"/>
        <pt x="311" y="496" on="0"/>
        <pt x="391" y="464" on="0"/>
        <pt x="420" y="435" on="1"/>
        <pt x="452" y="464" on="0"/>
        <pt x="534" y="496" on="0"/>
        <pt x="581" y="496" on="1"/>
        <pt x="633" y="496" on="0"/>
        <pt x="721" y="459" on="0"/>
        <pt x="785" y="395" on="0"/>
        <pt x="821" y="310" on="0"/>
        <pt x="821" y="261" on="1"/>
        <pt x="821" y="250" on="0"/>
        <pt x="819" y="228" on="0"/>
        <pt x="816" y="218" on="1"/>
        <pt x="813" y="209" on="0"/>
        <pt x="804" y="204" on="0"/>
        <pt x="796" y="204" on="1"/>
      </contour>
      <contour>
        <pt x="693" y="295" on="1"/>
        <pt x="689" y="334" on="0"/>
        <pt x="631" y="383" on="0"/>
        <pt x="582" y="383" on="1"/>
        <pt x="533" y="383" on="0"/>
        <pt x="477" y="335" on="0"/>
        <pt x="472" y="295" on="1"/>
      </contour>
    </TTGlyph>
    <TTGlyph name="aeacute" xMin="32" yMin="-8" xMax="821" yMax="746">
      <component glyphName="ae" x="0" y="0" flags="0x204"/>
      <component glyphName="acute" x="252" y="0" flags="0x4"/>
    </TTGlyph>
    <TTGlyph name="agrave" xMin="30" yMin="-8" xMax="538" yMax="746">
      <component glyphName="a" x="0" y="0" flags="0x204"/>
      <component glyphName="grave" x="65" y="0" flags="0x4"/>
    </TTGlyph>
    <TTGlyph name="amacron" xMin="30" yMin="-8" xMax="538" yMax="682">
      <component glyphName="a" x="0" y="0" flags="0x204"/>
      <component glyphName="macron" x="66" y="0" flags="0x4"/>
    </TTGlyph>
    <TTGlyph name="ampersand" xMin="36" yMin="-10" xMax="718" yMax="673">
      <contour>
        <pt x="718" y="22" on="1"/>
        <pt x="704" y="12" on="0"/>
        <pt x="656" y="-3" on="0"/>
        <pt x="632" y="-3" on="1"/>
        <pt x="615" y="-3" on="0"/>
        <pt x="590" y="2" on="0"/>
        <pt x="562" y="17" on="0"/>
        <pt x="529" y="42" on="0"/>
        <pt x="505" y="63" on="1"/>
        <pt x="461" y="28" on="0"/>
        <pt x="358" y="-10" on="0"/>
        <pt x="303" y="-10" on="1"/>
        <pt x="249" y="-10" on="0"/>
        <pt x="152" y="24" on="0"/>
        <pt x="79" y="84" on="0"/>
        <pt x="36" y="166" on="0"/>
        <pt x="36" y="214" on="1"/>
        <pt x="36" y="248" on="0"/>
        <pt x="58" y="303" on="0"/>
        <pt x="95" y="347" on="0"/>
        <pt x="144" y="380" on="0"/>
        <pt x="172" y="393" on="1"/>
        <pt x="155" y="419" on="0"/>
        <pt x="138" y="469" on="0"/>
        <pt x="138" y="497" on="1"/>
        <pt x="138" y="539" on="0"/>
        <pt x="171" y="604" on="0"/>
        <pt x="227" y="649" on="0"/>
        <pt x="299" y="673" on="0"/>
        <pt x="337" y="673" on="1"/>
        <pt x="377" y="673" on="0"/>
        <pt x="446" y="648" on="0"/>
        <pt x="497" y="604" on="0"/>
        <pt x="526" y="543" on="0"/>
        <pt x="526" y="507" on="1"/>
        <pt x="526" y="458" on="0"/>
        <pt x="464" y="368" on="0"/>
        <pt x="395" y="326" on="1"/>
        <pt x="505" y="221" on="1"/>
        <pt x="511" y="229" on="0"/>
        <pt x="527" y="252" on="0"/>
        <pt x="544" y="277" on="0"/>
        <pt x="559" y="302" on="0"/>
        <pt x="565" y="313" on="1"/>
        <pt x="620" y="414" on="1"/>
        <pt x="699" y="384" on="1"/>
        <pt x="681" y="324" on="0"/>
        <pt x="619" y="198" on="0"/>
        <pt x="582" y="147" on="1"/>
        <pt x="630" y="102" on="1"/>
        <pt x="718" y="88" on="1"/>
      </contour>
      <contour>
        <pt x="225" y="330" on="1"/>
        <pt x="204" y="309" on="1"/>
        <pt x="184" y="289" on="0"/>
        <pt x="164" y="252" on="0"/>
        <pt x="164" y="226" on="1"/>
        <pt x="164" y="203" on="0"/>
        <pt x="185" y="159" on="0"/>
        <pt x="225" y="125" on="0"/>
        <pt x="282" y="104" on="0"/>
        <pt x="319" y="104" on="1"/>
        <pt x="349" y="104" on="0"/>
        <pt x="405" y="121" on="0"/>
        <pt x="428" y="136" on="1"/>
      </contour>
      <contour>
        <pt x="361" y="407" on="1"/>
        <pt x="390" y="438" on="0"/>
        <pt x="415" y="482" on="0"/>
        <pt x="415" y="502" on="1"/>
        <pt x="415" y="534" on="0"/>
        <pt x="371" y="570" on="0"/>
        <pt x="337" y="570" on="1"/>
        <pt x="302" y="570" on="0"/>
        <pt x="254" y="534" on="0"/>
        <pt x="254" y="501" on="1"/>
        <pt x="254" y="473" on="0"/>
        <pt x="293" y="420" on="0"/>
        <pt x="337" y="382" on="1"/>
      </contour>
    </TTGlyph>
    <TTGlyph name="aogonek" xMin="30" yMin="-223" xMax="538" yMax="496">
      <contour>
        <pt x="395" y="13" on="1"/>
        <pt x="387" y="16" on="0"/>
        <pt x="368" y="30" on="0"/>
        <pt x="360" y="41" on="1"/>
        <pt x="334" y="27" on="1"/>
        <pt x="268" y="-8" on="0"/>
        <pt x="209" y="-8" on="1"/>
        <pt x="169" y="-8" on="0"/>
        <pt x="103" y="17" on="0"/>
        <pt x="56" y="61" on="0"/>
        <pt x="30" y="121" on="0"/>
        <pt x="30" y="156" on="1"/>
        <pt x="30" y="222" on="0"/>
        <pt x="122" y="294" on="0"/>
        <pt x="200" y="294" on="1"/>
        <pt x="203" y="294" on="1"/>
        <pt x="235" y="294" on="0"/>
        <pt x="312" y="283" on="0"/>
        <pt x="342" y="275" on="1"/>
        <pt x="342" y="310" on="1"/>
        <pt x="342" y="345" on="0"/>
        <pt x="326" y="361" on="1"/>
        <pt x="313" y="374" on="0"/>
        <pt x="279" y="383" on="0"/>
        <pt x="253" y="383" on="1"/>
        <pt x="227" y="383" on="0"/>
        <pt x="163" y="370" on="0"/>
        <pt x="134" y="360" on="1"/>
        <pt x="93" y="346" on="1"/>
        <pt x="54" y="416" on="1"/>
        <pt x="103" y="454" on="0"/>
        <pt x="211" y="496" on="0"/>
        <pt x="267" y="496" on="1"/>
        <pt x="308" y="496" on="0"/>
        <pt x="382" y="475" on="0"/>
        <pt x="438" y="429" on="0"/>
        <pt x="471" y="355" on="0"/>
        <pt x="471" y="303" on="1"/>
        <pt x="471" y="101" on="1"/>
        <pt x="538" y="88" on="1"/>
        <pt x="538" y="19" on="1"/>
        <pt x="474" y="-1" on="0"/>
        <pt x="390" y="-57" on="0"/>
        <pt x="390" y="-90" on="1"/>
        <pt x="390" y="-137" on="0"/>
        <pt x="453" y="-137" on="1"/>
        <pt x="476" y="-137" on="0"/>
        <pt x="511" y="-130" on="1"/>
        <pt x="532" y="-196" on="1"/>
        <pt x="505" y="-210" on="0"/>
        <pt x="450" y="-223" on="0"/>
        <pt x="424" y="-223" on="1"/>
        <pt x="361" y="-223" on="0"/>
        <pt x="289" y="-161" on="0"/>
        <pt x="289" y="-114" on="1"/>
        <pt x="289" y="-71" on="0"/>
        <pt x="350" y="-6" on="0"/>
      </contour>
      <contour>
        <pt x="342" y="190" on="1"/>
        <pt x="342" y="200" on="0"/>
        <pt x="331" y="200" on="1"/>
        <pt x="191" y="200" on="1"/>
        <pt x="170" y="200" on="0"/>
        <pt x="153" y="181" on="0"/>
        <pt x="153" y="161" on="1"/>
        <pt x="153" y="133" on="0"/>
        <pt x="193" y="97" on="0"/>
        <pt x="233" y="97" on="1"/>
        <pt x="259" y="97" on="0"/>
        <pt x="315" y="110" on="0"/>
        <pt x="329" y="116" on="1"/>
        <pt x="337" y="119" on="0"/>
        <pt x="342" y="125" on="0"/>
        <pt x="342" y="133" on="1"/>
      </contour>
    </TTGlyph>
    <TTGlyph name="apple" xMin="78" yMin="0" xMax="466" yMax="650">
      <contour>
        <pt x="208" y="357" on="1"/>
        <pt x="208" y="370" on="0"/>
        <pt x="227" y="388" on="0"/>
        <pt x="239" y="388" on="1"/>
        <pt x="252" y="388" on="0"/>
        <pt x="269" y="370" on="0"/>
        <pt x="269" y="357" on="1"/>
        <pt x="269" y="344" on="0"/>
        <pt x="252" y="327" on="0"/>
        <pt x="239" y="327" on="1"/>
        <pt x="227" y="327" on="0"/>
        <pt x="208" y="344" on="0"/>
      </contour>
      <contour>
        <pt x="405" y="357" on="1"/>
        <pt x="405" y="370" on="0"/>
        <pt x="424" y="388" on="0"/>
        <pt x="436" y="388" on="1"/>
        <pt x="449" y="388" on="0"/>
        <pt x="466" y="370" on="0"/>
        <pt x="466" y="357" on="1"/>
        <pt x="466" y="344" on="0"/>
        <pt x="449" y="327" on="0"/>
        <pt x="436" y="327" on="1"/>
        <pt x="424" y="327" on="0"/>
        <pt x="405" y="344" on="0"/>
      </contour>
      <contour>
        <pt x="78" y="161" on="1"/>
        <pt x="78" y="174" on="0"/>
        <pt x="95" y="191" on="0"/>
        <pt x="108" y="191" on="1"/>
        <pt x="120" y="191" on="0"/>
        <pt x="139" y="174" on="0"/>
        <pt x="139" y="161" on="1"/>
        <pt x="139" y="148" on="0"/>
        <pt x="120" y="130" on="0"/>
        <pt x="108" y="130" on="1"/>
        <pt x="95" y="130" on="0"/>
        <pt x="78" y="148" on="0"/>
      </contour>
      <contour>
        <pt x="78" y="357" on="1"/>
        <pt x="78" y="370" on="0"/>
        <pt x="95" y="388" on="0"/>
        <pt x="108" y="388" on="1"/>
        <pt x="120" y="388" on="0"/>
        <pt x="139" y="370" on="0"/>
        <pt x="139" y="357" on="1"/>
        <pt x="139" y="344" on="0"/>
        <pt x="120" y="327" on="0"/>
        <pt x="108" y="327" on="1"/>
        <pt x="95" y="327" on="0"/>
        <pt x="78" y="344" on="0"/>
      </contour>
      <contour>
        <pt x="275" y="357" on="1"/>
        <pt x="275" y="370" on="0"/>
        <pt x="292" y="388" on="0"/>
        <pt x="305" y="388" on="1"/>
        <pt x="317" y="388" on="0"/>
        <pt x="336" y="370" on="0"/>
        <pt x="336" y="357" on="1"/>
        <pt x="336" y="344" on="0"/>
        <pt x="317" y="327" on="0"/>
        <pt x="305" y="327" on="1"/>
        <pt x="292" y="327" on="0"/>
        <pt x="275" y="344" on="0"/>
      </contour>
      <contour>
        <pt x="340" y="620" on="1"/>
        <pt x="340" y="632" on="0"/>
        <pt x="357" y="650" on="0"/>
        <pt x="371" y="650" on="1"/>
        <pt x="382" y="650" on="0"/>
        <pt x="401" y="632" on="0"/>
        <pt x="401" y="620" on="1"/>
        <pt x="401" y="606" on="0"/>
        <pt x="382" y="589" on="0"/>
        <pt x="371" y="589" on="1"/>
        <pt x="357" y="589" on="0"/>
        <pt x="340" y="606" on="0"/>
      </contour>
      <contour>
        <pt x="78" y="620" on="1"/>
        <pt x="78" y="632" on="0"/>
        <pt x="95" y="650" on="0"/>
        <pt x="108" y="650" on="1"/>
        <pt x="120" y="650" on="0"/>
        <pt x="139" y="632" on="0"/>
        <pt x="139" y="620" on="1"/>
        <pt x="139" y="606" on="0"/>
        <pt x="120" y="589" on="0"/>
        <pt x="108" y="589" on="1"/>
        <pt x="95" y="589" on="0"/>
        <pt x="78" y="606" on="0"/>
      </contour>
      <contour>
        <pt x="275" y="620" on="1"/>
        <pt x="275" y="632" on="0"/>
        <pt x="292" y="650" on="0"/>
        <pt x="305" y="650" on="1"/>
        <pt x="317" y="650" on="0"/>
        <pt x="336" y="632" on="0"/>
        <pt x="336" y="620" on="1"/>
        <pt x="336" y="606" on="0"/>
        <pt x="317" y="589" on="0"/>
        <pt x="305" y="589" on="1"/>
        <pt x="292" y="589" on="0"/>
        <pt x="275" y="606" on="0"/>
      </contour>
      <contour>
        <pt x="405" y="620" on="1"/>
        <pt x="405" y="632" on="0"/>
        <pt x="424" y="650" on="0"/>
        <pt x="436" y="650" on="1"/>
        <pt x="449" y="650" on="0"/>
        <pt x="466" y="632" on="0"/>
        <pt x="466" y="620" on="1"/>
        <pt x="466" y="606" on="0"/>
        <pt x="449" y="589" on="0"/>
        <pt x="436" y="589" on="1"/>
        <pt x="424" y="589" on="0"/>
        <pt x="405" y="606" on="0"/>
      </contour>
      <contour>
        <pt x="208" y="620" on="1"/>
        <pt x="208" y="632" on="0"/>
        <pt x="227" y="650" on="0"/>
        <pt x="239" y="650" on="1"/>
        <pt x="252" y="650" on="0"/>
        <pt x="269" y="632" on="0"/>
        <pt x="269" y="620" on="1"/>
        <pt x="269" y="606" on="0"/>
        <pt x="252" y="589" on="0"/>
        <pt x="239" y="589" on="1"/>
        <pt x="227" y="589" on="0"/>
        <pt x="208" y="606" on="0"/>
      </contour>
      <contour>
        <pt x="340" y="357" on="1"/>
        <pt x="340" y="370" on="0"/>
        <pt x="357" y="388" on="0"/>
        <pt x="371" y="388" on="1"/>
        <pt x="382" y="388" on="0"/>
        <pt x="401" y="370" on="0"/>
        <pt x="401" y="357" on="1"/>
        <pt x="401" y="344" on="0"/>
        <pt x="382" y="327" on="0"/>
        <pt x="371" y="327" on="1"/>
        <pt x="357" y="327" on="0"/>
        <pt x="340" y="344" on="0"/>
      </contour>
      <contour>
        <pt x="208" y="30" on="1"/>
        <pt x="208" y="42" on="0"/>
        <pt x="227" y="61" on="0"/>
        <pt x="239" y="61" on="1"/>
        <pt x="252" y="61" on="0"/>
        <pt x="269" y="42" on="0"/>
        <pt x="269" y="30" on="1"/>
        <pt x="269" y="17" on="0"/>
        <pt x="252" y="0" on="0"/>
        <pt x="239" y="0" on="1"/>
        <pt x="227" y="0" on="0"/>
        <pt x="208" y="17" on="0"/>
      </contour>
      <contour>
        <pt x="78" y="30" on="1"/>
        <pt x="78" y="42" on="0"/>
        <pt x="95" y="61" on="0"/>
        <pt x="108" y="61" on="1"/>
        <pt x="120" y="61" on="0"/>
        <pt x="139" y="42" on="0"/>
        <pt x="139" y="30" on="1"/>
        <pt x="139" y="17" on="0"/>
        <pt x="120" y="0" on="0"/>
        <pt x="108" y="0" on="1"/>
        <pt x="95" y="0" on="0"/>
        <pt x="78" y="17" on="0"/>
      </contour>
      <contour>
        <pt x="208" y="95" on="1"/>
        <pt x="208" y="109" on="0"/>
        <pt x="227" y="125" on="0"/>
        <pt x="239" y="125" on="1"/>
        <pt x="252" y="125" on="0"/>
        <pt x="269" y="109" on="0"/>
        <pt x="269" y="95" on="1"/>
        <pt x="269" y="82" on="0"/>
        <pt x="252" y="65" on="0"/>
        <pt x="239" y="65" on="1"/>
        <pt x="227" y="65" on="0"/>
        <pt x="208" y="82" on="0"/>
      </contour>
      <contour>
        <pt x="78" y="95" on="1"/>
        <pt x="78" y="109" on="0"/>
        <pt x="95" y="125" on="0"/>
        <pt x="108" y="125" on="1"/>
        <pt x="120" y="125" on="0"/>
        <pt x="139" y="109" on="0"/>
        <pt x="139" y="95" on="1"/>
        <pt x="139" y="82" on="0"/>
        <pt x="120" y="65" on="0"/>
        <pt x="108" y="65" on="1"/>
        <pt x="95" y="65" on="0"/>
        <pt x="78" y="82" on="0"/>
      </contour>
      <contour>
        <pt x="144" y="620" on="1"/>
        <pt x="144" y="632" on="0"/>
        <pt x="162" y="650" on="0"/>
        <pt x="174" y="650" on="1"/>
        <pt x="187" y="650" on="0"/>
        <pt x="204" y="632" on="0"/>
        <pt x="204" y="620" on="1"/>
        <pt x="204" y="606" on="0"/>
        <pt x="187" y="589" on="0"/>
        <pt x="174" y="589" on="1"/>
        <pt x="162" y="589" on="0"/>
        <pt x="144" y="606" on="0"/>
      </contour>
      <contour>
        <pt x="78" y="489" on="1"/>
        <pt x="78" y="501" on="0"/>
        <pt x="95" y="518" on="0"/>
        <pt x="108" y="518" on="1"/>
        <pt x="120" y="518" on="0"/>
        <pt x="139" y="501" on="0"/>
        <pt x="139" y="489" on="1"/>
        <pt x="139" y="476" on="0"/>
        <pt x="120" y="458" on="0"/>
        <pt x="108" y="458" on="1"/>
        <pt x="95" y="458" on="0"/>
        <pt x="78" y="476" on="0"/>
      </contour>
      <contour>
        <pt x="275" y="489" on="1"/>
        <pt x="275" y="501" on="0"/>
        <pt x="292" y="518" on="0"/>
        <pt x="305" y="518" on="1"/>
        <pt x="317" y="518" on="0"/>
        <pt x="336" y="501" on="0"/>
        <pt x="336" y="489" on="1"/>
        <pt x="336" y="476" on="0"/>
        <pt x="317" y="458" on="0"/>
        <pt x="305" y="458" on="1"/>
        <pt x="292" y="458" on="0"/>
        <pt x="275" y="476" on="0"/>
      </contour>
      <contour>
        <pt x="208" y="489" on="1"/>
        <pt x="208" y="501" on="0"/>
        <pt x="227" y="518" on="0"/>
        <pt x="239" y="518" on="1"/>
        <pt x="252" y="518" on="0"/>
        <pt x="269" y="501" on="0"/>
        <pt x="269" y="489" on="1"/>
        <pt x="269" y="476" on="0"/>
        <pt x="252" y="458" on="0"/>
        <pt x="239" y="458" on="1"/>
        <pt x="227" y="458" on="0"/>
        <pt x="208" y="476" on="0"/>
      </contour>
      <contour>
        <pt x="405" y="489" on="1"/>
        <pt x="405" y="501" on="0"/>
        <pt x="424" y="518" on="0"/>
        <pt x="436" y="518" on="1"/>
        <pt x="449" y="518" on="0"/>
        <pt x="466" y="501" on="0"/>
        <pt x="466" y="489" on="1"/>
        <pt x="466" y="476" on="0"/>
        <pt x="449" y="458" on="0"/>
        <pt x="436" y="458" on="1"/>
        <pt x="424" y="458" on="0"/>
        <pt x="405" y="476" on="0"/>
      </contour>
      <contour>
        <pt x="340" y="489" on="1"/>
        <pt x="340" y="501" on="0"/>
        <pt x="357" y="518" on="0"/>
        <pt x="371" y="518" on="1"/>
        <pt x="382" y="518" on="0"/>
        <pt x="401" y="501" on="0"/>
        <pt x="401" y="489" on="1"/>
        <pt x="401" y="476" on="0"/>
        <pt x="382" y="458" on="0"/>
        <pt x="371" y="458" on="1"/>
        <pt x="357" y="458" on="0"/>
        <pt x="340" y="476" on="0"/>
      </contour>
      <contour>
        <pt x="144" y="30" on="1"/>
        <pt x="144" y="42" on="0"/>
        <pt x="162" y="61" on="0"/>
        <pt x="174" y="61" on="1"/>
        <pt x="187" y="61" on="0"/>
        <pt x="204" y="42" on="0"/>
        <pt x="204" y="30" on="1"/>
        <pt x="204" y="17" on="0"/>
        <pt x="187" y="0" on="0"/>
        <pt x="174" y="0" on="1"/>
        <pt x="162" y="0" on="0"/>
        <pt x="144" y="17" on="0"/>
      </contour>
      <contour>
        <pt x="78" y="292" on="1"/>
        <pt x="78" y="304" on="0"/>
        <pt x="95" y="322" on="0"/>
        <pt x="108" y="322" on="1"/>
        <pt x="120" y="322" on="0"/>
        <pt x="139" y="304" on="0"/>
        <pt x="139" y="292" on="1"/>
        <pt x="139" y="279" on="0"/>
        <pt x="120" y="262" on="0"/>
        <pt x="108" y="262" on="1"/>
        <pt x="95" y="262" on="0"/>
        <pt x="78" y="279" on="0"/>
      </contour>
      <contour>
        <pt x="78" y="554" on="1"/>
        <pt x="78" y="566" on="0"/>
        <pt x="95" y="584" on="0"/>
        <pt x="108" y="584" on="1"/>
        <pt x="120" y="584" on="0"/>
        <pt x="139" y="566" on="0"/>
        <pt x="139" y="554" on="1"/>
        <pt x="139" y="541" on="0"/>
        <pt x="120" y="524" on="0"/>
        <pt x="108" y="524" on="1"/>
        <pt x="95" y="524" on="0"/>
        <pt x="78" y="541" on="0"/>
      </contour>
      <contour>
        <pt x="405" y="292" on="1"/>
        <pt x="405" y="304" on="0"/>
        <pt x="424" y="322" on="0"/>
        <pt x="436" y="322" on="1"/>
        <pt x="449" y="322" on="0"/>
        <pt x="466" y="304" on="0"/>
        <pt x="466" y="292" on="1"/>
        <pt x="466" y="279" on="0"/>
        <pt x="449" y="262" on="0"/>
        <pt x="436" y="262" on="1"/>
        <pt x="424" y="262" on="0"/>
        <pt x="405" y="279" on="0"/>
      </contour>
      <contour>
        <pt x="78" y="423" on="1"/>
        <pt x="78" y="436" on="0"/>
        <pt x="95" y="453" on="0"/>
        <pt x="108" y="453" on="1"/>
        <pt x="120" y="453" on="0"/>
        <pt x="139" y="436" on="0"/>
        <pt x="139" y="423" on="1"/>
        <pt x="139" y="410" on="0"/>
        <pt x="120" y="394" on="0"/>
        <pt x="108" y="394" on="1"/>
        <pt x="95" y="394" on="0"/>
        <pt x="78" y="410" on="0"/>
      </contour>
      <contour>
        <pt x="208" y="423" on="1"/>
        <pt x="208" y="436" on="0"/>
        <pt x="227" y="453" on="0"/>
        <pt x="239" y="453" on="1"/>
        <pt x="252" y="453" on="0"/>
        <pt x="269" y="436" on="0"/>
        <pt x="269" y="423" on="1"/>
        <pt x="269" y="410" on="0"/>
        <pt x="252" y="394" on="0"/>
        <pt x="239" y="394" on="1"/>
        <pt x="227" y="394" on="0"/>
        <pt x="208" y="410" on="0"/>
      </contour>
      <contour>
        <pt x="208" y="227" on="1"/>
        <pt x="208" y="239" on="0"/>
        <pt x="227" y="256" on="0"/>
        <pt x="239" y="256" on="1"/>
        <pt x="252" y="256" on="0"/>
        <pt x="269" y="239" on="0"/>
        <pt x="269" y="227" on="1"/>
        <pt x="269" y="214" on="0"/>
        <pt x="252" y="197" on="0"/>
        <pt x="239" y="197" on="1"/>
        <pt x="227" y="197" on="0"/>
        <pt x="208" y="214" on="0"/>
      </contour>
      <contour>
        <pt x="405" y="227" on="1"/>
        <pt x="405" y="239" on="0"/>
        <pt x="424" y="256" on="0"/>
        <pt x="436" y="256" on="1"/>
        <pt x="449" y="256" on="0"/>
        <pt x="466" y="239" on="0"/>
        <pt x="466" y="227" on="1"/>
        <pt x="466" y="214" on="0"/>
        <pt x="449" y="197" on="0"/>
        <pt x="436" y="197" on="1"/>
        <pt x="424" y="197" on="0"/>
        <pt x="405" y="214" on="0"/>
      </contour>
      <contour>
        <pt x="78" y="227" on="1"/>
        <pt x="78" y="239" on="0"/>
        <pt x="95" y="256" on="0"/>
        <pt x="108" y="256" on="1"/>
        <pt x="120" y="256" on="0"/>
        <pt x="139" y="239" on="0"/>
        <pt x="139" y="227" on="1"/>
        <pt x="139" y="214" on="0"/>
        <pt x="120" y="197" on="0"/>
        <pt x="108" y="197" on="1"/>
        <pt x="95" y="197" on="0"/>
        <pt x="78" y="214" on="0"/>
      </contour>
      <contour>
        <pt x="275" y="227" on="1"/>
        <pt x="275" y="239" on="0"/>
        <pt x="292" y="256" on="0"/>
        <pt x="305" y="256" on="1"/>
        <pt x="317" y="256" on="0"/>
        <pt x="336" y="239" on="0"/>
        <pt x="336" y="227" on="1"/>
        <pt x="336" y="214" on="0"/>
        <pt x="317" y="197" on="0"/>
        <pt x="305" y="197" on="1"/>
        <pt x="292" y="197" on="0"/>
        <pt x="275" y="214" on="0"/>
      </contour>
      <contour>
        <pt x="340" y="227" on="1"/>
        <pt x="340" y="239" on="0"/>
        <pt x="357" y="256" on="0"/>
        <pt x="371" y="256" on="1"/>
        <pt x="382" y="256" on="0"/>
        <pt x="401" y="239" on="0"/>
        <pt x="401" y="227" on="1"/>
        <pt x="401" y="214" on="0"/>
        <pt x="382" y="197" on="0"/>
        <pt x="371" y="197" on="1"/>
        <pt x="357" y="197" on="0"/>
        <pt x="340" y="214" on="0"/>
      </contour>
    </TTGlyph>
    <TTGlyph name="approxequal" xMin="59" yMin="57" xMax="499" yMax="440">
      <contour>
        <pt x="356" y="282" on="1"/>
        <pt x="333" y="282" on="0"/>
        <pt x="290" y="297" on="0"/>
        <pt x="250" y="314" on="0"/>
        <pt x="214" y="329" on="0"/>
        <pt x="197" y="329" on="1"/>
        <pt x="176" y="329" on="0"/>
        <pt x="148" y="305" on="0"/>
        <pt x="134" y="280" on="1"/>
        <pt x="59" y="306" on="1"/>
        <pt x="63" y="334" on="0"/>
        <pt x="89" y="382" on="0"/>
        <pt x="127" y="418" on="0"/>
        <pt x="175" y="438" on="0"/>
        <pt x="202" y="438" on="1"/>
        <pt x="226" y="438" on="0"/>
        <pt x="270" y="424" on="0"/>
        <pt x="310" y="406" on="0"/>
        <pt x="346" y="392" on="0"/>
        <pt x="362" y="392" on="1"/>
        <pt x="382" y="392" on="0"/>
        <pt x="411" y="415" on="0"/>
        <pt x="425" y="440" on="1"/>
        <pt x="499" y="414" on="1"/>
        <pt x="494" y="386" on="0"/>
        <pt x="469" y="338" on="0"/>
        <pt x="431" y="302" on="0"/>
        <pt x="383" y="282" on="0"/>
      </contour>
      <contour>
        <pt x="356" y="58" on="1"/>
        <pt x="333" y="58" on="0"/>
        <pt x="290" y="73" on="0"/>
        <pt x="250" y="90" on="0"/>
        <pt x="214" y="105" on="0"/>
        <pt x="197" y="105" on="1"/>
        <pt x="176" y="105" on="0"/>
        <pt x="148" y="82" on="0"/>
        <pt x="134" y="57" on="1"/>
        <pt x="59" y="83" on="1"/>
        <pt x="63" y="110" on="0"/>
        <pt x="89" y="158" on="0"/>
        <pt x="127" y="194" on="0"/>
        <pt x="175" y="215" on="0"/>
        <pt x="202" y="215" on="1"/>
        <pt x="226" y="215" on="0"/>
        <pt x="270" y="200" on="0"/>
        <pt x="310" y="183" on="0"/>
        <pt x="346" y="168" on="0"/>
        <pt x="362" y="168" on="1"/>
        <pt x="382" y="168" on="0"/>
        <pt x="411" y="192" on="0"/>
        <pt x="425" y="216" on="1"/>
        <pt x="499" y="191" on="1"/>
        <pt x="494" y="163" on="0"/>
        <pt x="469" y="115" on="0"/>
        <pt x="431" y="79" on="0"/>
        <pt x="383" y="58" on="0"/>
      </contour>
    </TTGlyph>
    <TTGlyph name="aring" xMin="30" yMin="-8" xMax="538" yMax="795">
      <component glyphName="a" x="0" y="0" flags="0x204"/>
      <component glyphName="ring" x="64" y="0" flags="0x4"/>
    </TTGlyph>
    <TTGlyph name="aringacute" xMin="30" yMin="-8" xMax="538" yMax="988">
      <component glyphName="a" x="0" y="0" flags="0x204"/>
      <component glyphName="ring" x="65" y="-23" flags="0x4"/>
      <component glyphName="acute" x="66" y="242" flags="0x4"/>
    </TTGlyph>
    <TTGlyph name="arrowdown" xMin="154" yMin="-93" xMax="635" yMax="581">
      <contour>
        <pt x="353" y="-84" on="1"/>
        <pt x="154" y="116" on="1"/>
        <pt x="208" y="170" on="1"/>
        <pt x="340" y="55" on="1"/>
        <pt x="340" y="581" on="1"/>
        <pt x="446" y="581" on="1"/>
        <pt x="446" y="53" on="1"/>
        <pt x="582" y="170" on="1"/>
        <pt x="635" y="117" on="1"/>
        <pt x="427" y="-93" on="1"/>
        <pt x="376" y="-93" on="1"/>
        <pt x="369" y="-93" on="0"/>
        <pt x="359" y="-90" on="0"/>
      </contour>
    </TTGlyph>
    <TTGlyph name="arrowdown.cap" xMin="154" yMin="-7" xMax="635" yMax="667">
      <contour>
        <pt x="353" y="2" on="1"/>
        <pt x="154" y="202" on="1"/>
        <pt x="208" y="256" on="1"/>
        <pt x="340" y="141" on="1"/>
        <pt x="340" y="667" on="1"/>
        <pt x="446" y="667" on="1"/>
        <pt x="446" y="139" on="1"/>
        <pt x="582" y="256" on="1"/>
        <pt x="635" y="203" on="1"/>
        <pt x="427" y="-7" on="1"/>
        <pt x="376" y="-7" on="1"/>
        <pt x="369" y="-7" on="0"/>
        <pt x="359" y="-4" on="0"/>
      </contour>
    </TTGlyph>
    <TTGlyph name="arrowleft" xMin="57" yMin="1" xMax="731" yMax="483">
      <contour>
        <pt x="266" y="483" on="1"/>
        <pt x="320" y="429" on="1"/>
        <pt x="205" y="294" on="1"/>
        <pt x="731" y="294" on="1"/>
        <pt x="731" y="194" on="1"/>
        <pt x="203" y="194" on="1"/>
        <pt x="320" y="55" on="1"/>
        <pt x="266" y="1" on="1"/>
        <pt x="57" y="210" on="1"/>
        <pt x="57" y="260" on="1"/>
        <pt x="57" y="268" on="0"/>
        <pt x="60" y="277" on="0"/>
        <pt x="66" y="283" on="1"/>
      </contour>
    </TTGlyph>
    <TTGlyph name="arrowleft.cap" xMin="57" yMin="87" xMax="731" yMax="569">
      <contour>
        <pt x="266" y="569" on="1"/>
        <pt x="320" y="515" on="1"/>
        <pt x="205" y="380" on="1"/>
        <pt x="731" y="380" on="1"/>
        <pt x="731" y="280" on="1"/>
        <pt x="203" y="280" on="1"/>
        <pt x="320" y="141" on="1"/>
        <pt x="266" y="87" on="1"/>
        <pt x="57" y="296" on="1"/>
        <pt x="57" y="346" on="1"/>
        <pt x="57" y="354" on="0"/>
        <pt x="60" y="363" on="0"/>
        <pt x="66" y="369" on="1"/>
      </contour>
    </TTGlyph>
    <TTGlyph name="arrowright" xMin="57" yMin="5" xMax="731" yMax="487">
      <contour>
        <pt x="522" y="5" on="1"/>
        <pt x="468" y="59" on="1"/>
        <pt x="583" y="194" on="1"/>
        <pt x="57" y="194" on="1"/>
        <pt x="57" y="294" on="1"/>
        <pt x="585" y="294" on="1"/>
        <pt x="468" y="433" on="1"/>
        <pt x="522" y="487" on="1"/>
        <pt x="731" y="278" on="1"/>
        <pt x="731" y="228" on="1"/>
        <pt x="731" y="220" on="0"/>
        <pt x="728" y="211" on="0"/>
        <pt x="722" y="205" on="1"/>
      </contour>
    </TTGlyph>
    <TTGlyph name="arrowright.cap" xMin="57" yMin="91" xMax="731" yMax="573">
      <contour>
        <pt x="522" y="91" on="1"/>
        <pt x="468" y="145" on="1"/>
        <pt x="583" y="280" on="1"/>
        <pt x="57" y="280" on="1"/>
        <pt x="57" y="380" on="1"/>
        <pt x="585" y="380" on="1"/>
        <pt x="468" y="519" on="1"/>
        <pt x="522" y="573" on="1"/>
        <pt x="731" y="364" on="1"/>
        <pt x="731" y="314" on="1"/>
        <pt x="731" y="306" on="0"/>
        <pt x="728" y="297" on="0"/>
        <pt x="722" y="291" on="1"/>
      </contour>
    </TTGlyph>
    <TTGlyph name="arrowup" xMin="154" yMin="-93" xMax="635" yMax="581">
      <contour>
        <pt x="436" y="571" on="1"/>
        <pt x="635" y="371" on="1"/>
        <pt x="582" y="318" on="1"/>
        <pt x="450" y="432" on="1"/>
        <pt x="450" y="-93" on="1"/>
        <pt x="344" y="-93" on="1"/>
        <pt x="344" y="434" on="1"/>
        <pt x="208" y="318" on="1"/>
        <pt x="154" y="371" on="1"/>
        <pt x="363" y="581" on="1"/>
        <pt x="413" y="581" on="1"/>
        <pt x="421" y="581" on="0"/>
        <pt x="430" y="577" on="0"/>
      </contour>
    </TTGlyph>
    <TTGlyph name="arrowup.cap" xMin="154" yMin="-7" xMax="635" yMax="667">
      <contour>
        <pt x="436" y="657" on="1"/>
        <pt x="635" y="457" on="1"/>
        <pt x="582" y="404" on="1"/>
        <pt x="450" y="518" on="1"/>
        <pt x="450" y="-7" on="1"/>
        <pt x="344" y="-7" on="1"/>
        <pt x="344" y="520" on="1"/>
        <pt x="208" y="404" on="1"/>
        <pt x="154" y="457" on="1"/>
        <pt x="363" y="667" on="1"/>
        <pt x="413" y="667" on="1"/>
        <pt x="421" y="667" on="0"/>
        <pt x="430" y="663" on="0"/>
      </contour>
    </TTGlyph>
    <TTGlyph name="asciicircum" xMin="59" yMin="383" xMax="500" yMax="673">
      <contour>
        <pt x="325" y="673" on="1"/>
        <pt x="500" y="446" on="1"/>
        <pt x="406" y="383" on="1"/>
        <pt x="280" y="544" on="1"/>
        <pt x="278" y="544" on="1"/>
        <pt x="152" y="383" on="1"/>
        <pt x="59" y="446" on="1"/>
        <pt x="234" y="673" on="1"/>
      </contour>
    </TTGlyph>
    <TTGlyph name="asciitilde" xMin="59" yMin="277" xMax="499" yMax="436">
      <contour>
        <pt x="356" y="278" on="1"/>
        <pt x="333" y="278" on="0"/>
        <pt x="290" y="293" on="0"/>
        <pt x="250" y="310" on="0"/>
        <pt x="214" y="325" on="0"/>
        <pt x="197" y="325" on="1"/>
        <pt x="176" y="325" on="0"/>
        <pt x="148" y="302" on="0"/>
        <pt x="134" y="277" on="1"/>
        <pt x="59" y="303" on="1"/>
        <pt x="63" y="330" on="0"/>
        <pt x="89" y="378" on="0"/>
        <pt x="127" y="414" on="0"/>
        <pt x="175" y="435" on="0"/>
        <pt x="202" y="435" on="1"/>
        <pt x="226" y="435" on="0"/>
        <pt x="270" y="420" on="0"/>
        <pt x="310" y="403" on="0"/>
        <pt x="346" y="388" on="0"/>
        <pt x="362" y="388" on="1"/>
        <pt x="382" y="388" on="0"/>
        <pt x="411" y="412" on="0"/>
        <pt x="425" y="436" on="1"/>
        <pt x="499" y="411" on="1"/>
        <pt x="494" y="383" on="0"/>
        <pt x="469" y="335" on="0"/>
        <pt x="431" y="299" on="0"/>
        <pt x="383" y="278" on="0"/>
      </contour>
    </TTGlyph>
    <TTGlyph name="asterisk" xMin="40" yMin="284" xMax="430" yMax="663">
      <contour>
        <pt x="326" y="293" on="1"/>
        <pt x="312" y="284" on="0"/>
        <pt x="304" y="298" on="1"/>
        <pt x="235" y="420" on="1"/>
        <pt x="157" y="284" on="1"/>
        <pt x="80" y="335" on="1"/>
        <pt x="72" y="340" on="0"/>
        <pt x="74" y="353" on="0"/>
        <pt x="82" y="361" on="1"/>
        <pt x="184" y="464" on="1"/>
        <pt x="40" y="493" on="1"/>
        <pt x="70" y="566" on="1"/>
        <pt x="75" y="577" on="0"/>
        <pt x="85" y="581" on="0"/>
        <pt x="96" y="576" on="1"/>
        <pt x="202" y="516" on="1"/>
        <pt x="179" y="663" on="1"/>
        <pt x="274" y="663" on="1"/>
        <pt x="289" y="663" on="0"/>
        <pt x="288" y="647" on="1"/>
        <pt x="267" y="516" on="1"/>
        <pt x="392" y="585" on="1"/>
        <pt x="423" y="509" on="1"/>
        <pt x="430" y="492" on="0"/>
        <pt x="409" y="489" on="1"/>
        <pt x="286" y="464" on="1"/>
        <pt x="403" y="344" on="1"/>
      </contour>
    </TTGlyph>
    <TTGlyph name="at" xMin="42" yMin="-99" xMax="729" yMax="584">
      <contour>
        <pt x="699" y="-1" on="1"/>
        <pt x="675" y="-21" on="0"/>
        <pt x="607" y="-56" on="0"/>
        <pt x="528" y="-83" on="0"/>
        <pt x="441" y="-99" on="0"/>
        <pt x="397" y="-99" on="1"/>
        <pt x="317" y="-99" on="0"/>
        <pt x="187" y="-46" on="0"/>
        <pt x="93" y="46" on="0"/>
        <pt x="42" y="171" on="0"/>
        <pt x="42" y="243" on="1"/>
        <pt x="42" y="322" on="0"/>
        <pt x="100" y="448" on="0"/>
        <pt x="198" y="537" on="0"/>
        <pt x="327" y="584" on="0"/>
        <pt x="397" y="584" on="1"/>
        <pt x="470" y="584" on="0"/>
        <pt x="592" y="534" on="0"/>
        <pt x="680" y="450" on="0"/>
        <pt x="729" y="338" on="0"/>
        <pt x="729" y="276" on="1"/>
        <pt x="729" y="226" on="0"/>
        <pt x="701" y="151" on="0"/>
        <pt x="654" y="100" on="0"/>
        <pt x="591" y="75" on="0"/>
        <pt x="557" y="75" on="1"/>
        <pt x="523" y="75" on="0"/>
        <pt x="476" y="97" on="0"/>
        <pt x="464" y="113" on="1"/>
        <pt x="440" y="100" on="1"/>
        <pt x="423" y="91" on="0"/>
        <pt x="382" y="78" on="0"/>
        <pt x="359" y="78" on="1"/>
        <pt x="306" y="78" on="0"/>
        <pt x="241" y="141" on="0"/>
        <pt x="241" y="187" on="1"/>
        <pt x="241" y="232" on="0"/>
        <pt x="304" y="278" on="0"/>
        <pt x="355" y="278" on="1"/>
        <pt x="375" y="278" on="0"/>
        <pt x="422" y="272" on="0"/>
        <pt x="439" y="267" on="1"/>
        <pt x="439" y="291" on="1"/>
        <pt x="439" y="309" on="0"/>
        <pt x="413" y="334" on="0"/>
        <pt x="387" y="334" on="1"/>
        <pt x="373" y="334" on="0"/>
        <pt x="337" y="327" on="0"/>
        <pt x="319" y="322" on="1"/>
        <pt x="286" y="311" on="1"/>
        <pt x="259" y="360" on="1"/>
        <pt x="290" y="384" on="0"/>
        <pt x="363" y="413" on="0"/>
        <pt x="399" y="413" on="1"/>
        <pt x="458" y="413" on="0"/>
        <pt x="532" y="348" on="0"/>
        <pt x="532" y="283" on="1"/>
        <pt x="532" y="192" on="1"/>
        <pt x="532" y="176" on="0"/>
        <pt x="547" y="150" on="0"/>
        <pt x="570" y="150" on="1"/>
        <pt x="583" y="150" on="0"/>
        <pt x="608" y="162" on="0"/>
        <pt x="627" y="189" on="0"/>
        <pt x="639" y="235" on="0"/>
        <pt x="639" y="269" on="1"/>
        <pt x="639" y="315" on="0"/>
        <pt x="605" y="397" on="0"/>
        <pt x="542" y="458" on="0"/>
        <pt x="453" y="493" on="0"/>
        <pt x="397" y="493" on="1"/>
        <pt x="344" y="493" on="0"/>
        <pt x="252" y="460" on="0"/>
        <pt x="184" y="398" on="0"/>
        <pt x="145" y="308" on="0"/>
        <pt x="145" y="250" on="1"/>
        <pt x="145" y="189" on="0"/>
        <pt x="182" y="93" on="0"/>
        <pt x="251" y="27" on="0"/>
        <pt x="349" y="-8" on="0"/>
        <pt x="409" y="-8" on="1"/>
        <pt x="451" y="-8" on="0"/>
        <pt x="541" y="10" on="0"/>
        <pt x="587" y="27" on="1"/>
        <pt x="668" y="56" on="1"/>
      </contour>
      <contour>
        <pt x="351" y="213" on="1"/>
        <pt x="330" y="213" on="0"/>
        <pt x="330" y="190" on="1"/>
        <pt x="330" y="174" on="0"/>
        <pt x="353" y="152" on="0"/>
        <pt x="376" y="152" on="1"/>
        <pt x="391" y="152" on="0"/>
        <pt x="417" y="157" on="0"/>
        <pt x="427" y="160" on="1"/>
        <pt x="435" y="162" on="0"/>
        <pt x="439" y="167" on="0"/>
        <pt x="439" y="175" on="1"/>
        <pt x="439" y="208" on="1"/>
        <pt x="439" y="213" on="0"/>
        <pt x="434" y="213" on="1"/>
      </contour>
    </TTGlyph>
    <TTGlyph name="at.cap" xMin="42" yMin="-10" xMax="729" yMax="673">
      <contour>
        <pt x="699" y="88" on="1"/>
        <pt x="675" y="68" on="0"/>
        <pt x="607" y="33" on="0"/>
        <pt x="528" y="6" on="0"/>
        <pt x="441" y="-10" on="0"/>
        <pt x="397" y="-10" on="1"/>
        <pt x="317" y="-10" on="0"/>
        <pt x="187" y="43" on="0"/>
        <pt x="93" y="135" on="0"/>
        <pt x="42" y="260" on="0"/>
        <pt x="42" y="332" on="1"/>
        <pt x="42" y="411" on="0"/>
        <pt x="100" y="537" on="0"/>
        <pt x="198" y="626" on="0"/>
        <pt x="327" y="673" on="0"/>
        <pt x="397" y="673" on="1"/>
        <pt x="470" y="673" on="0"/>
        <pt x="592" y="623" on="0"/>
        <pt x="680" y="539" on="0"/>
        <pt x="729" y="427" on="0"/>
        <pt x="729" y="365" on="1"/>
        <pt x="729" y="315" on="0"/>
        <pt x="701" y="240" on="0"/>
        <pt x="654" y="189" on="0"/>
        <pt x="591" y="164" on="0"/>
        <pt x="557" y="164" on="1"/>
        <pt x="523" y="164" on="0"/>
        <pt x="476" y="186" on="0"/>
        <pt x="464" y="202" on="1"/>
        <pt x="440" y="189" on="1"/>
        <pt x="423" y="180" on="0"/>
        <pt x="382" y="167" on="0"/>
        <pt x="359" y="167" on="1"/>
        <pt x="306" y="167" on="0"/>
        <pt x="241" y="230" on="0"/>
        <pt x="241" y="276" on="1"/>
        <pt x="241" y="321" on="0"/>
        <pt x="304" y="367" on="0"/>
        <pt x="355" y="367" on="1"/>
        <pt x="375" y="367" on="0"/>
        <pt x="422" y="361" on="0"/>
        <pt x="439" y="356" on="1"/>
        <pt x="439" y="380" on="1"/>
        <pt x="439" y="398" on="0"/>
        <pt x="413" y="423" on="0"/>
        <pt x="387" y="423" on="1"/>
        <pt x="373" y="423" on="0"/>
        <pt x="337" y="416" on="0"/>
        <pt x="319" y="411" on="1"/>
        <pt x="286" y="400" on="1"/>
        <pt x="259" y="449" on="1"/>
        <pt x="290" y="473" on="0"/>
        <pt x="363" y="502" on="0"/>
        <pt x="399" y="502" on="1"/>
        <pt x="458" y="502" on="0"/>
        <pt x="532" y="437" on="0"/>
        <pt x="532" y="372" on="1"/>
        <pt x="532" y="281" on="1"/>
        <pt x="532" y="265" on="0"/>
        <pt x="547" y="239" on="0"/>
        <pt x="570" y="239" on="1"/>
        <pt x="583" y="239" on="0"/>
        <pt x="608" y="251" on="0"/>
        <pt x="627" y="278" on="0"/>
        <pt x="639" y="324" on="0"/>
        <pt x="639" y="358" on="1"/>
        <pt x="639" y="404" on="0"/>
        <pt x="605" y="486" on="0"/>
        <pt x="542" y="547" on="0"/>
        <pt x="453" y="582" on="0"/>
        <pt x="397" y="582" on="1"/>
        <pt x="344" y="582" on="0"/>
        <pt x="252" y="549" on="0"/>
        <pt x="184" y="487" on="0"/>
        <pt x="145" y="397" on="0"/>
        <pt x="145" y="339" on="1"/>
        <pt x="145" y="278" on="0"/>
        <pt x="182" y="182" on="0"/>
        <pt x="251" y="116" on="0"/>
        <pt x="349" y="81" on="0"/>
        <pt x="409" y="81" on="1"/>
        <pt x="451" y="81" on="0"/>
        <pt x="541" y="99" on="0"/>
        <pt x="587" y="116" on="1"/>
        <pt x="668" y="145" on="1"/>
      </contour>
      <contour>
        <pt x="351" y="302" on="1"/>
        <pt x="330" y="302" on="0"/>
        <pt x="330" y="279" on="1"/>
        <pt x="330" y="263" on="0"/>
        <pt x="353" y="241" on="0"/>
        <pt x="376" y="241" on="1"/>
        <pt x="391" y="241" on="0"/>
        <pt x="417" y="246" on="0"/>
        <pt x="427" y="249" on="1"/>
        <pt x="435" y="251" on="0"/>
        <pt x="439" y="256" on="0"/>
        <pt x="439" y="264" on="1"/>
        <pt x="439" y="297" on="1"/>
        <pt x="439" y="302" on="0"/>
        <pt x="434" y="302" on="1"/>
      </contour>
    </TTGlyph>
    <TTGlyph name="atilde" xMin="30" yMin="-8" xMax="538" yMax="703">
      <component glyphName="a" x="0" y="0" flags="0x204"/>
      <component glyphName="tilde" x="66" y="0" flags="0x4"/>
    </TTGlyph>
    <TTGlyph name="b" xMin="58" yMin="-8" xMax="543" yMax="709">
      <contour>
        <pt x="174" y="45" on="1"/>
        <pt x="156" y="0" on="1"/>
        <pt x="58" y="0" on="1"/>
        <pt x="58" y="709" on="1"/>
        <pt x="187" y="709" on="1"/>
        <pt x="187" y="449" on="1"/>
        <pt x="217" y="464" on="1"/>
        <pt x="247" y="479" on="0"/>
        <pt x="302" y="496" on="0"/>
        <pt x="330" y="496" on="1"/>
        <pt x="375" y="496" on="0"/>
        <pt x="453" y="460" on="0"/>
        <pt x="510" y="394" on="0"/>
        <pt x="543" y="301" on="0"/>
        <pt x="543" y="244" on="1"/>
        <pt x="543" y="187" on="0"/>
        <pt x="511" y="94" on="0"/>
        <pt x="455" y="28" on="0"/>
        <pt x="376" y="-8" on="0"/>
        <pt x="330" y="-8" on="1"/>
        <pt x="301" y="-8" on="0"/>
        <pt x="244" y="9" on="0"/>
        <pt x="215" y="24" on="1"/>
      </contour>
      <contour>
        <pt x="187" y="151" on="1"/>
        <pt x="187" y="137" on="0"/>
        <pt x="197" y="132" on="1"/>
        <pt x="215" y="124" on="0"/>
        <pt x="271" y="111" on="0"/>
        <pt x="297" y="111" on="1"/>
        <pt x="353" y="111" on="0"/>
        <pt x="411" y="168" on="0"/>
        <pt x="411" y="244" on="1"/>
        <pt x="411" y="318" on="0"/>
        <pt x="354" y="375" on="0"/>
        <pt x="297" y="375" on="1"/>
        <pt x="268" y="375" on="0"/>
        <pt x="215" y="362" on="0"/>
        <pt x="197" y="353" on="1"/>
        <pt x="189" y="349" on="0"/>
        <pt x="187" y="342" on="0"/>
        <pt x="187" y="334" on="1"/>
      </contour>
    </TTGlyph>
    <TTGlyph name="backslash" xMin="3" yMin="0" xMax="473" yMax="663">
      <contour>
        <pt x="338" y="0" on="1"/>
        <pt x="3" y="663" on="1"/>
        <pt x="138" y="663" on="1"/>
        <pt x="473" y="0" on="1"/>
      </contour>
    </TTGlyph>
    <TTGlyph name="bar" xMin="76" yMin="-229" xMax="198" yMax="709">
      <contour>
        <pt x="76" y="709" on="1"/>
        <pt x="198" y="709" on="1"/>
        <pt x="198" y="-229" on="1"/>
        <pt x="76" y="-229" on="1"/>
      </contour>
    </TTGlyph>
    <TTGlyph name="braceleft" xMin="40" yMin="-240" xMax="370" yMax="673">
      <contour>
        <pt x="40" y="260" on="1"/>
        <pt x="97" y="278" on="0"/>
        <pt x="144" y="318" on="0"/>
        <pt x="144" y="353" on="1"/>
        <pt x="144" y="372" on="0"/>
        <pt x="136" y="422" on="0"/>
        <pt x="127" y="475" on="0"/>
        <pt x="120" y="527" on="0"/>
        <pt x="120" y="548" on="1"/>
        <pt x="120" y="580" on="0"/>
        <pt x="142" y="627" on="0"/>
        <pt x="181" y="658" on="0"/>
        <pt x="234" y="673" on="0"/>
        <pt x="265" y="673" on="1"/>
        <pt x="290" y="673" on="0"/>
        <pt x="346" y="663" on="0"/>
        <pt x="370" y="657" on="1"/>
        <pt x="370" y="578" on="1"/>
        <pt x="266" y="557" on="1"/>
        <pt x="247" y="553" on="0"/>
        <pt x="247" y="534" on="1"/>
        <pt x="247" y="523" on="0"/>
        <pt x="254" y="480" on="0"/>
        <pt x="262" y="428" on="0"/>
        <pt x="269" y="375" on="0"/>
        <pt x="269" y="353" on="1"/>
        <pt x="269" y="330" on="0"/>
        <pt x="258" y="291" on="0"/>
        <pt x="230" y="258" on="0"/>
        <pt x="182" y="229" on="0"/>
        <pt x="145" y="216" on="1"/>
        <pt x="182" y="203" on="0"/>
        <pt x="230" y="175" on="0"/>
        <pt x="258" y="141" on="0"/>
        <pt x="269" y="102" on="0"/>
        <pt x="269" y="79" on="1"/>
        <pt x="269" y="58" on="0"/>
        <pt x="262" y="4" on="0"/>
        <pt x="254" y="-47" on="0"/>
        <pt x="247" y="-90" on="0"/>
        <pt x="247" y="-101" on="1"/>
        <pt x="247" y="-112" on="0"/>
        <pt x="255" y="-122" on="0"/>
        <pt x="266" y="-124" on="1"/>
        <pt x="370" y="-146" on="1"/>
        <pt x="370" y="-224" on="1"/>
        <pt x="346" y="-231" on="0"/>
        <pt x="290" y="-240" on="0"/>
        <pt x="265" y="-240" on="1"/>
        <pt x="234" y="-240" on="0"/>
        <pt x="181" y="-225" on="0"/>
        <pt x="142" y="-194" on="0"/>
        <pt x="120" y="-147" on="0"/>
        <pt x="120" y="-115" on="1"/>
        <pt x="120" y="-94" on="0"/>
        <pt x="127" y="-42" on="0"/>
        <pt x="136" y="10" on="0"/>
        <pt x="144" y="59" on="0"/>
        <pt x="144" y="79" on="1"/>
        <pt x="144" y="114" on="0"/>
        <pt x="96" y="154" on="0"/>
        <pt x="40" y="173" on="1"/>
      </contour>
    </TTGlyph>
    <TTGlyph name="braceleft.cap" xMin="40" yMin="-125" xMax="370" yMax="788">
      <component glyphName="braceleft" x="0" y="115" flags="0x204"/>
    </TTGlyph>
    <TTGlyph name="braceright" xMin="11" yMin="-240" xMax="341" yMax="673">
      <contour>
        <pt x="341" y="173" on="1"/>
        <pt x="285" y="154" on="0"/>
        <pt x="237" y="114" on="0"/>
        <pt x="237" y="79" on="1"/>
        <pt x="237" y="59" on="0"/>
        <pt x="244" y="10" on="0"/>
        <pt x="253" y="-42" on="0"/>
        <pt x="261" y="-94" on="0"/>
        <pt x="261" y="-115" on="1"/>
        <pt x="261" y="-147" on="0"/>
        <pt x="239" y="-194" on="0"/>
        <pt x="200" y="-225" on="0"/>
        <pt x="147" y="-240" on="0"/>
        <pt x="116" y="-240" on="1"/>
        <pt x="91" y="-240" on="0"/>
        <pt x="35" y="-231" on="0"/>
        <pt x="11" y="-224" on="1"/>
        <pt x="11" y="-146" on="1"/>
        <pt x="115" y="-124" on="1"/>
        <pt x="126" y="-122" on="0"/>
        <pt x="134" y="-112" on="0"/>
        <pt x="134" y="-101" on="1"/>
        <pt x="134" y="-90" on="0"/>
        <pt x="127" y="-47" on="0"/>
        <pt x="119" y="4" on="0"/>
        <pt x="112" y="58" on="0"/>
        <pt x="112" y="79" on="1"/>
        <pt x="112" y="102" on="0"/>
        <pt x="123" y="141" on="0"/>
        <pt x="151" y="175" on="0"/>
        <pt x="199" y="203" on="0"/>
        <pt x="236" y="216" on="1"/>
        <pt x="199" y="229" on="0"/>
        <pt x="151" y="258" on="0"/>
        <pt x="123" y="291" on="0"/>
        <pt x="112" y="330" on="0"/>
        <pt x="112" y="353" on="1"/>
        <pt x="112" y="375" on="0"/>
        <pt x="119" y="428" on="0"/>
        <pt x="127" y="480" on="0"/>
        <pt x="134" y="523" on="0"/>
        <pt x="134" y="534" on="1"/>
        <pt x="134" y="553" on="0"/>
        <pt x="115" y="557" on="1"/>
        <pt x="11" y="578" on="1"/>
        <pt x="11" y="657" on="1"/>
        <pt x="35" y="663" on="0"/>
        <pt x="91" y="673" on="0"/>
        <pt x="116" y="673" on="1"/>
        <pt x="147" y="673" on="0"/>
        <pt x="200" y="658" on="0"/>
        <pt x="239" y="627" on="0"/>
        <pt x="261" y="580" on="0"/>
        <pt x="261" y="548" on="1"/>
        <pt x="261" y="527" on="0"/>
        <pt x="253" y="475" on="0"/>
        <pt x="244" y="422" on="0"/>
        <pt x="237" y="372" on="0"/>
        <pt x="237" y="353" on="1"/>
        <pt x="237" y="318" on="0"/>
        <pt x="284" y="278" on="0"/>
        <pt x="341" y="260" on="1"/>
      </contour>
    </TTGlyph>
    <TTGlyph name="braceright.cap" xMin="11" yMin="-125" xMax="341" yMax="788">
      <component glyphName="braceright" x="0" y="115" flags="0x204"/>
    </TTGlyph>
    <TTGlyph name="bracketleft" xMin="74" yMin="-229" xMax="333" yMax="663">
      <contour>
        <pt x="74" y="663" on="1"/>
        <pt x="333" y="663" on="1"/>
        <pt x="333" y="547" on="1"/>
        <pt x="199" y="547" on="1"/>
        <pt x="199" y="-113" on="1"/>
        <pt x="333" y="-113" on="1"/>
        <pt x="333" y="-229" on="1"/>
        <pt x="74" y="-229" on="1"/>
      </contour>
    </TTGlyph>
    <TTGlyph name="bracketleft.cap" xMin="74" yMin="-115" xMax="333" yMax="777">
      <component glyphName="bracketleft" x="0" y="114" flags="0x204"/>
    </TTGlyph>
    <TTGlyph name="bracketright" xMin="19" yMin="-229" xMax="278" yMax="663">
      <contour>
        <pt x="278" y="-229" on="1"/>
        <pt x="19" y="-229" on="1"/>
        <pt x="19" y="-113" on="1"/>
        <pt x="153" y="-113" on="1"/>
        <pt x="153" y="547" on="1"/>
        <pt x="19" y="547" on="1"/>
        <pt x="19" y="663" on="1"/>
        <pt x="278" y="663" on="1"/>
      </contour>
    </TTGlyph>
    <TTGlyph name="bracketright.cap" xMin="19" yMin="-115" xMax="278" yMax="777">
      <component glyphName="bracketright" x="0" y="114" flags="0x204"/>
    </TTGlyph>
    <TTGlyph name="breve" xMin="40" yMin="555" xMax="376" yMax="717">
      <contour>
        <pt x="208" y="555" on="1"/>
        <pt x="135" y="555" on="0"/>
        <pt x="49" y="638" on="0"/>
        <pt x="40" y="704" on="1"/>
        <pt x="121" y="717" on="1"/>
        <pt x="134" y="683" on="0"/>
        <pt x="175" y="648" on="0"/>
        <pt x="208" y="648" on="1"/>
        <pt x="240" y="648" on="0"/>
        <pt x="282" y="683" on="0"/>
        <pt x="294" y="717" on="1"/>
        <pt x="376" y="704" on="1"/>
        <pt x="367" y="638" on="0"/>
        <pt x="281" y="555" on="0"/>
      </contour>
    </TTGlyph>
    <TTGlyph name="breve.cap" xMin="40" yMin="732" xMax="376" yMax="894">
      <contour>
        <pt x="208" y="732" on="1"/>
        <pt x="135" y="732" on="0"/>
        <pt x="49" y="815" on="0"/>
        <pt x="40" y="881" on="1"/>
        <pt x="121" y="894" on="1"/>
        <pt x="134" y="860" on="0"/>
        <pt x="175" y="825" on="0"/>
        <pt x="208" y="825" on="1"/>
        <pt x="240" y="825" on="0"/>
        <pt x="282" y="860" on="0"/>
        <pt x="294" y="894" on="1"/>
        <pt x="376" y="881" on="1"/>
        <pt x="367" y="815" on="0"/>
        <pt x="281" y="732" on="0"/>
      </contour>
    </TTGlyph>
    <TTGlyph name="brokenbar" xMin="76" yMin="-229" xMax="198" yMax="709">
      <contour>
        <pt x="76" y="709" on="1"/>
        <pt x="198" y="709" on="1"/>
        <pt x="198" y="291" on="1"/>
        <pt x="76" y="291" on="1"/>
      </contour>
      <contour>
        <pt x="76" y="189" on="1"/>
        <pt x="198" y="189" on="1"/>
        <pt x="198" y="-229" on="1"/>
        <pt x="76" y="-229" on="1"/>
      </contour>
    </TTGlyph>
    <TTGlyph name="bullet" xMin="65" yMin="172" xMax="298" yMax="393">
      <contour>
        <pt x="298" y="172" on="1"/>
        <pt x="65" y="172" on="1"/>
        <pt x="65" y="393" on="1"/>
        <pt x="264" y="393" on="1"/>
        <pt x="284" y="393" on="0"/>
        <pt x="298" y="380" on="0"/>
        <pt x="298" y="362" on="1"/>
      </contour>
    </TTGlyph>
    <TTGlyph name="bullet.cap" xMin="65" yMin="220" xMax="298" yMax="441">
      <component glyphName="bullet" x="0" y="48" flags="0x204"/>
    </TTGlyph>
    <TTGlyph name="c" xMin="30" yMin="-8" xMax="497" yMax="496">
      <contour>
        <pt x="497" y="86" on="1"/>
        <pt x="476" y="67" on="0"/>
        <pt x="424" y="33" on="0"/>
        <pt x="366" y="7" on="0"/>
        <pt x="303" y="-8" on="0"/>
        <pt x="272" y="-8" on="1"/>
        <pt x="217" y="-8" on="0"/>
        <pt x="128" y="28" on="0"/>
        <pt x="65" y="95" on="0"/>
        <pt x="30" y="189" on="0"/>
        <pt x="30" y="246" on="1"/>
        <pt x="30" y="303" on="0"/>
        <pt x="69" y="395" on="0"/>
        <pt x="135" y="460" on="0"/>
        <pt x="222" y="496" on="0"/>
        <pt x="269" y="496" on="1"/>
        <pt x="311" y="496" on="0"/>
        <pt x="384" y="471" on="0"/>
        <pt x="441" y="427" on="0"/>
        <pt x="481" y="366" on="0"/>
        <pt x="490" y="331" on="1"/>
        <pt x="405" y="288" on="1"/>
        <pt x="360" y="332" on="1"/>
        <pt x="330" y="361" on="0"/>
        <pt x="287" y="381" on="0"/>
        <pt x="263" y="381" on="1"/>
        <pt x="222" y="381" on="0"/>
        <pt x="162" y="315" on="0"/>
        <pt x="162" y="248" on="1"/>
        <pt x="162" y="174" on="0"/>
        <pt x="223" y="107" on="0"/>
        <pt x="286" y="107" on="1"/>
        <pt x="307" y="107" on="0"/>
        <pt x="366" y="121" on="0"/>
        <pt x="396" y="133" on="1"/>
        <pt x="454" y="156" on="1"/>
      </contour>
    </TTGlyph>
    <TTGlyph name="cacute" xMin="30" yMin="-8" xMax="497" yMax="746">
      <component glyphName="c" x="0" y="0" flags="0x204"/>
      <component glyphName="acute" x="64" y="0" flags="0x4"/>
    </TTGlyph>
    <TTGlyph name="caron" xMin="27" yMin="553" xMax="386" yMax="743">
      <contour>
        <pt x="334" y="743" on="1"/>
        <pt x="386" y="693" on="1"/>
        <pt x="258" y="566" on="1"/>
        <pt x="250" y="558" on="0"/>
        <pt x="238" y="553" on="0"/>
        <pt x="227" y="553" on="1"/>
        <pt x="186" y="553" on="1"/>
        <pt x="175" y="553" on="0"/>
        <pt x="163" y="558" on="0"/>
        <pt x="155" y="566" on="1"/>
        <pt x="27" y="693" on="1"/>
        <pt x="79" y="743" on="1"/>
        <pt x="207" y="649" on="1"/>
      </contour>
    </TTGlyph>
    <TTGlyph name="caron.cap" xMin="27" yMin="730" xMax="386" yMax="920">
      <contour>
        <pt x="334" y="920" on="1"/>
        <pt x="386" y="870" on="1"/>
        <pt x="258" y="743" on="1"/>
        <pt x="250" y="735" on="0"/>
        <pt x="238" y="730" on="0"/>
        <pt x="227" y="730" on="1"/>
        <pt x="186" y="730" on="1"/>
        <pt x="175" y="730" on="0"/>
        <pt x="163" y="735" on="0"/>
        <pt x="155" y="743" on="1"/>
        <pt x="27" y="870" on="1"/>
        <pt x="79" y="920" on="1"/>
        <pt x="207" y="826" on="1"/>
      </contour>
    </TTGlyph>
    <TTGlyph name="ccaron" xMin="30" yMin="-8" xMax="497" yMax="743">
      <component glyphName="c" x="0" y="0" flags="0x204"/>
      <component glyphName="caron" x="61" y="0" flags="0x4"/>
    </TTGlyph>
    <TTGlyph name="ccedilla" xMin="30" yMin="-242" xMax="497" yMax="496">
      <contour>
        <pt x="497" y="86" on="1"/>
        <pt x="460" y="52" on="0"/>
        <pt x="356" y="-1" on="0"/>
        <pt x="300" y="-6" on="1"/>
        <pt x="286" y="-26" on="0"/>
        <pt x="286" y="-37" on="1"/>
        <pt x="286" y="-48" on="0"/>
        <pt x="320" y="-59" on="0"/>
        <pt x="360" y="-75" on="0"/>
        <pt x="394" y="-105" on="0"/>
        <pt x="394" y="-134" on="1"/>
        <pt x="394" y="-181" on="0"/>
        <pt x="300" y="-242" on="0"/>
        <pt x="206" y="-242" on="1"/>
        <pt x="193" y="-172" on="1"/>
        <pt x="226" y="-167" on="1"/>
        <pt x="255" y="-162" on="0"/>
        <pt x="286" y="-150" on="0"/>
        <pt x="286" y="-140" on="1"/>
        <pt x="286" y="-132" on="0"/>
        <pt x="256" y="-121" on="0"/>
        <pt x="219" y="-107" on="0"/>
        <pt x="189" y="-86" on="0"/>
        <pt x="189" y="-66" on="1"/>
        <pt x="189" y="-50" on="0"/>
        <pt x="209" y="-21" on="0"/>
        <pt x="226" y="-4" on="1"/>
        <pt x="181" y="3" on="0"/>
        <pt x="108" y="44" on="0"/>
        <pt x="57" y="109" on="0"/>
        <pt x="30" y="195" on="0"/>
        <pt x="30" y="246" on="1"/>
        <pt x="30" y="303" on="0"/>
        <pt x="69" y="395" on="0"/>
        <pt x="135" y="460" on="0"/>
        <pt x="222" y="496" on="0"/>
        <pt x="269" y="496" on="1"/>
        <pt x="311" y="496" on="0"/>
        <pt x="384" y="471" on="0"/>
        <pt x="441" y="427" on="0"/>
        <pt x="481" y="366" on="0"/>
        <pt x="490" y="331" on="1"/>
        <pt x="405" y="288" on="1"/>
        <pt x="360" y="332" on="1"/>
        <pt x="330" y="361" on="0"/>
        <pt x="287" y="381" on="0"/>
        <pt x="263" y="381" on="1"/>
        <pt x="222" y="381" on="0"/>
        <pt x="162" y="315" on="0"/>
        <pt x="162" y="248" on="1"/>
        <pt x="162" y="174" on="0"/>
        <pt x="223" y="107" on="0"/>
        <pt x="286" y="107" on="1"/>
        <pt x="307" y="107" on="0"/>
        <pt x="366" y="121" on="0"/>
        <pt x="396" y="133" on="1"/>
        <pt x="454" y="156" on="1"/>
      </contour>
    </TTGlyph>
    <TTGlyph name="ccircumflex" xMin="30" yMin="-8" xMax="497" yMax="732">
      <component glyphName="c" x="0" y="0" flags="0x204"/>
      <component glyphName="circumflex" x="60" y="0" flags="0x4"/>
    </TTGlyph>
    <TTGlyph name="cdotaccent" xMin="30" yMin="-8" xMax="497" yMax="680">
      <component glyphName="c" x="0" y="0" flags="0x204"/>
      <component glyphName="dotaccent" x="58" y="0" flags="0x4"/>
    </TTGlyph>
    <TTGlyph name="cedilla" xMin="106" yMin="-242" xMax="311" yMax="18">
      <contour>
        <pt x="226" y="5" on="1"/>
        <pt x="203" y="-23" on="0"/>
        <pt x="203" y="-37" on="1"/>
        <pt x="203" y="-48" on="0"/>
        <pt x="237" y="-59" on="0"/>
        <pt x="277" y="-75" on="0"/>
        <pt x="311" y="-105" on="0"/>
        <pt x="311" y="-134" on="1"/>
        <pt x="311" y="-181" on="0"/>
        <pt x="217" y="-242" on="0"/>
        <pt x="123" y="-242" on="1"/>
        <pt x="110" y="-172" on="1"/>
        <pt x="143" y="-167" on="1"/>
        <pt x="172" y="-162" on="0"/>
        <pt x="203" y="-150" on="0"/>
        <pt x="203" y="-140" on="1"/>
        <pt x="203" y="-132" on="0"/>
        <pt x="173" y="-121" on="0"/>
        <pt x="136" y="-107" on="0"/>
        <pt x="106" y="-86" on="0"/>
        <pt x="106" y="-66" on="1"/>
        <pt x="106" y="-45" on="0"/>
        <pt x="142" y="-5" on="0"/>
        <pt x="168" y="18" on="1"/>
      </contour>
    </TTGlyph>
    <TTGlyph name="cent" xMin="98" yMin="-129" xMax="564" yMax="623">
      <contour>
        <pt x="564" y="88" on="1"/>
        <pt x="530" y="56" on="0"/>
        <pt x="438" y="5" on="0"/>
        <pt x="387" y="-3" on="1"/>
        <pt x="372" y="-129" on="1"/>
        <pt x="300" y="-129" on="1"/>
        <pt x="300" y="-5" on="1"/>
        <pt x="253" y="1" on="0"/>
        <pt x="178" y="42" on="0"/>
        <pt x="126" y="107" on="0"/>
        <pt x="98" y="194" on="0"/>
        <pt x="98" y="246" on="1"/>
        <pt x="98" y="297" on="0"/>
        <pt x="129" y="383" on="0"/>
        <pt x="184" y="447" on="0"/>
        <pt x="258" y="487" on="0"/>
        <pt x="300" y="493" on="1"/>
        <pt x="315" y="623" on="1"/>
        <pt x="387" y="623" on="1"/>
        <pt x="387" y="491" on="1"/>
        <pt x="450" y="478" on="0"/>
        <pt x="537" y="394" on="0"/>
        <pt x="553" y="335" on="1"/>
        <pt x="471" y="294" on="1"/>
        <pt x="426" y="337" on="1"/>
        <pt x="405" y="358" on="0"/>
        <pt x="387" y="369" on="1"/>
        <pt x="387" y="110" on="1"/>
        <pt x="420" y="116" on="0"/>
        <pt x="464" y="134" on="1"/>
        <pt x="522" y="158" on="1"/>
      </contour>
      <contour>
        <pt x="228" y="248" on="1"/>
        <pt x="228" y="138" on="0"/>
        <pt x="300" y="113" on="1"/>
        <pt x="300" y="379" on="1"/>
        <pt x="268" y="368" on="0"/>
        <pt x="228" y="304" on="0"/>
      </contour>
    </TTGlyph>
    <TTGlyph name="cent.lprop" xMin="36" yMin="-129" xMax="502" yMax="623">
      <contour>
        <pt x="502" y="88" on="1"/>
        <pt x="468" y="56" on="0"/>
        <pt x="376" y="5" on="0"/>
        <pt x="325" y="-3" on="1"/>
        <pt x="310" y="-129" on="1"/>
        <pt x="238" y="-129" on="1"/>
        <pt x="238" y="-5" on="1"/>
        <pt x="191" y="1" on="0"/>
        <pt x="116" y="42" on="0"/>
        <pt x="64" y="107" on="0"/>
        <pt x="36" y="194" on="0"/>
        <pt x="36" y="246" on="1"/>
        <pt x="36" y="297" on="0"/>
        <pt x="67" y="383" on="0"/>
        <pt x="122" y="447" on="0"/>
        <pt x="196" y="487" on="0"/>
        <pt x="238" y="493" on="1"/>
        <pt x="253" y="623" on="1"/>
        <pt x="325" y="623" on="1"/>
        <pt x="325" y="491" on="1"/>
        <pt x="388" y="478" on="0"/>
        <pt x="475" y="394" on="0"/>
        <pt x="491" y="335" on="1"/>
        <pt x="409" y="294" on="1"/>
        <pt x="364" y="337" on="1"/>
        <pt x="343" y="358" on="0"/>
        <pt x="325" y="369" on="1"/>
        <pt x="325" y="110" on="1"/>
        <pt x="358" y="116" on="0"/>
        <pt x="402" y="134" on="1"/>
        <pt x="460" y="158" on="1"/>
      </contour>
      <contour>
        <pt x="166" y="248" on="1"/>
        <pt x="166" y="138" on="0"/>
        <pt x="238" y="113" on="1"/>
        <pt x="238" y="379" on="1"/>
        <pt x="206" y="368" on="0"/>
        <pt x="166" y="304" on="0"/>
      </contour>
    </TTGlyph>
    <TTGlyph name="cent.oprop" xMin="50" yMin="-116" xMax="471" yMax="550">
      <component glyphName="cent.otab" x="-70" y="0" flags="0x4"/>
    </TTGlyph>
    <TTGlyph name="cent.otab" xMin="120" yMin="-116" xMax="541" yMax="550">
      <contour>
        <pt x="541" y="72" on="1"/>
        <pt x="512" y="45" on="0"/>
        <pt x="432" y="6" on="0"/>
        <pt x="384" y="-5" on="1"/>
        <pt x="369" y="-116" on="1"/>
        <pt x="307" y="-116" on="1"/>
        <pt x="307" y="-6" on="1"/>
        <pt x="266" y="-1" on="0"/>
        <pt x="198" y="33" on="0"/>
        <pt x="148" y="89" on="0"/>
        <pt x="120" y="167" on="0"/>
        <pt x="120" y="217" on="1"/>
        <pt x="120" y="261" on="0"/>
        <pt x="148" y="337" on="0"/>
        <pt x="198" y="395" on="0"/>
        <pt x="267" y="432" on="0"/>
        <pt x="307" y="437" on="1"/>
        <pt x="322" y="550" on="1"/>
        <pt x="384" y="550" on="1"/>
        <pt x="384" y="434" on="1"/>
        <pt x="443" y="420" on="0"/>
        <pt x="518" y="346" on="0"/>
        <pt x="534" y="297" on="1"/>
        <pt x="464" y="253" on="1"/>
        <pt x="416" y="301" on="1"/>
        <pt x="408" y="309" on="0"/>
        <pt x="393" y="323" on="0"/>
        <pt x="384" y="329" on="1"/>
        <pt x="384" y="99" on="1"/>
        <pt x="396" y="100" on="0"/>
        <pt x="433" y="109" on="0"/>
        <pt x="453" y="117" on="1"/>
        <pt x="505" y="139" on="1"/>
      </contour>
      <contour>
        <pt x="238" y="219" on="1"/>
        <pt x="238" y="166" on="0"/>
        <pt x="275" y="109" on="0"/>
        <pt x="307" y="99" on="1"/>
        <pt x="307" y="337" on="1"/>
        <pt x="278" y="327" on="0"/>
        <pt x="238" y="270" on="0"/>
      </contour>
    </TTGlyph>
    <TTGlyph name="circumflex" xMin="27" yMin="542" xMax="386" yMax="732">
      <contour>
        <pt x="207" y="636" on="1"/>
        <pt x="79" y="542" on="1"/>
        <pt x="27" y="592" on="1"/>
        <pt x="155" y="719" on="1"/>
        <pt x="163" y="727" on="0"/>
        <pt x="175" y="732" on="0"/>
        <pt x="186" y="732" on="1"/>
        <pt x="227" y="732" on="1"/>
        <pt x="238" y="732" on="0"/>
        <pt x="250" y="727" on="0"/>
        <pt x="258" y="719" on="1"/>
        <pt x="386" y="592" on="1"/>
        <pt x="334" y="542" on="1"/>
      </contour>
    </TTGlyph>
    <TTGlyph name="circumflex.cap" xMin="27" yMin="719" xMax="386" yMax="909">
      <contour>
        <pt x="207" y="813" on="1"/>
        <pt x="79" y="719" on="1"/>
        <pt x="27" y="769" on="1"/>
        <pt x="155" y="896" on="1"/>
        <pt x="163" y="904" on="0"/>
        <pt x="175" y="909" on="0"/>
        <pt x="186" y="909" on="1"/>
        <pt x="227" y="909" on="1"/>
        <pt x="238" y="909" on="0"/>
        <pt x="250" y="904" on="0"/>
        <pt x="258" y="896" on="1"/>
        <pt x="386" y="769" on="1"/>
        <pt x="334" y="719" on="1"/>
      </contour>
    </TTGlyph>
    <TTGlyph name="colon" xMin="50" yMin="0" xMax="188" yMax="447">
      <contour>
        <pt x="188" y="0" on="1"/>
        <pt x="50" y="0" on="1"/>
        <pt x="50" y="137" on="1"/>
        <pt x="161" y="137" on="1"/>
        <pt x="177" y="137" on="0"/>
        <pt x="188" y="125" on="0"/>
        <pt x="188" y="112" on="1"/>
      </contour>
      <contour>
        <pt x="188" y="310" on="1"/>
        <pt x="50" y="310" on="1"/>
        <pt x="50" y="447" on="1"/>
        <pt x="161" y="447" on="1"/>
        <pt x="177" y="447" on="0"/>
        <pt x="188" y="435" on="0"/>
        <pt x="188" y="422" on="1"/>
      </contour>
    </TTGlyph>
    <TTGlyph name="comma" xMin="21" yMin="-162" xMax="187" yMax="137">
      <contour>
        <pt x="87" y="-16" on="1"/>
        <pt x="91" y="-8" on="0"/>
        <pt x="91" y="-6" on="1"/>
        <pt x="91" y="-2" on="0"/>
        <pt x="82" y="4" on="1"/>
        <pt x="67" y="13" on="1"/>
        <pt x="55" y="21" on="0"/>
        <pt x="49" y="30" on="0"/>
        <pt x="49" y="44" on="1"/>
        <pt x="49" y="137" on="1"/>
        <pt x="160" y="137" on="1"/>
        <pt x="176" y="137" on="0"/>
        <pt x="187" y="125" on="0"/>
        <pt x="187" y="112" on="1"/>
        <pt x="187" y="45" on="1"/>
        <pt x="187" y="18" on="0"/>
        <pt x="180" y="-25" on="0"/>
        <pt x="155" y="-70" on="0"/>
        <pt x="107" y="-125" on="0"/>
        <pt x="66" y="-162" on="1"/>
        <pt x="21" y="-127" on="1"/>
      </contour>
    </TTGlyph>
    <TTGlyph name="commaaccent" xMin="141" yMin="-294" xMax="276" yMax="-58">
      <contour>
        <pt x="141" y="-281" on="1"/>
        <pt x="161" y="-58" on="1"/>
        <pt x="242" y="-58" on="1"/>
        <pt x="252" y="-58" on="0"/>
        <pt x="265" y="-71" on="0"/>
        <pt x="273" y="-90" on="0"/>
        <pt x="276" y="-110" on="0"/>
        <pt x="276" y="-116" on="1"/>
        <pt x="276" y="-121" on="1"/>
        <pt x="275" y="-137" on="0"/>
        <pt x="261" y="-173" on="0"/>
        <pt x="244" y="-207" on="1"/>
        <pt x="201" y="-294" on="1"/>
      </contour>
    </TTGlyph>
    <TTGlyph name="copyright" xMin="44" yMin="-10" xMax="724" yMax="673">
      <contour>
        <pt x="515" y="252" on="1"/>
        <pt x="491" y="223" on="0"/>
        <pt x="418" y="187" on="0"/>
        <pt x="381" y="187" on="1"/>
        <pt x="351" y="187" on="0"/>
        <pt x="299" y="209" on="0"/>
        <pt x="261" y="248" on="0"/>
        <pt x="240" y="302" on="0"/>
        <pt x="240" y="335" on="1"/>
        <pt x="240" y="368" on="0"/>
        <pt x="263" y="422" on="0"/>
        <pt x="302" y="460" on="0"/>
        <pt x="354" y="481" on="0"/>
        <pt x="383" y="481" on="1"/>
        <pt x="425" y="481" on="0"/>
        <pt x="490" y="434" on="0"/>
        <pt x="508" y="391" on="1"/>
        <pt x="460" y="357" on="1"/>
        <pt x="427" y="386" on="1"/>
        <pt x="415" y="397" on="0"/>
        <pt x="394" y="408" on="0"/>
        <pt x="379" y="408" on="1"/>
        <pt x="354" y="408" on="0"/>
        <pt x="321" y="372" on="0"/>
        <pt x="321" y="334" on="1"/>
        <pt x="321" y="300" on="0"/>
        <pt x="353" y="261" on="0"/>
        <pt x="388" y="261" on="1"/>
        <pt x="411" y="261" on="0"/>
        <pt x="439" y="275" on="1"/>
        <pt x="486" y="298" on="1"/>
      </contour>
      <contour>
        <pt x="724" y="332" on="1"/>
        <pt x="724" y="260" on="0"/>
        <pt x="671" y="135" on="0"/>
        <pt x="579" y="43" on="0"/>
        <pt x="455" y="-10" on="0"/>
        <pt x="384" y="-10" on="1"/>
        <pt x="313" y="-10" on="0"/>
        <pt x="189" y="43" on="0"/>
        <pt x="97" y="135" on="0"/>
        <pt x="44" y="260" on="0"/>
        <pt x="44" y="332" on="1"/>
        <pt x="44" y="404" on="0"/>
        <pt x="97" y="529" on="0"/>
        <pt x="189" y="620" on="0"/>
        <pt x="313" y="673" on="0"/>
        <pt x="384" y="673" on="1"/>
        <pt x="455" y="673" on="0"/>
        <pt x="579" y="620" on="0"/>
        <pt x="671" y="529" on="0"/>
        <pt x="724" y="404" on="0"/>
      </contour>
      <contour>
        <pt x="625" y="332" on="1"/>
        <pt x="625" y="387" on="0"/>
        <pt x="591" y="478" on="0"/>
        <pt x="529" y="544" on="0"/>
        <pt x="439" y="580" on="0"/>
        <pt x="384" y="580" on="1"/>
        <pt x="328" y="580" on="0"/>
        <pt x="239" y="544" on="0"/>
        <pt x="177" y="478" on="0"/>
        <pt x="143" y="387" on="0"/>
        <pt x="143" y="332" on="1"/>
        <pt x="143" y="276" on="0"/>
        <pt x="177" y="185" on="0"/>
        <pt x="239" y="119" on="0"/>
        <pt x="328" y="83" on="0"/>
        <pt x="384" y="83" on="1"/>
        <pt x="439" y="83" on="0"/>
        <pt x="529" y="119" on="0"/>
        <pt x="591" y="185" on="0"/>
        <pt x="625" y="276" on="0"/>
      </contour>
    </TTGlyph>
    <TTGlyph name="currency" xMin="63" yMin="76" xMax="587" yMax="586">
      <contour>
        <pt x="430" y="150" on="1"/>
        <pt x="407" y="137" on="0"/>
        <pt x="354" y="125" on="0"/>
        <pt x="327" y="125" on="1"/>
        <pt x="324" y="125" on="1"/>
        <pt x="266" y="125" on="0"/>
        <pt x="220" y="150" on="1"/>
        <pt x="146" y="76" on="1"/>
        <pt x="63" y="158" on="1"/>
        <pt x="138" y="233" on="1"/>
        <pt x="116" y="273" on="0"/>
        <pt x="116" y="331" on="1"/>
        <pt x="116" y="388" on="0"/>
        <pt x="138" y="429" on="1"/>
        <pt x="63" y="503" on="1"/>
        <pt x="146" y="586" on="1"/>
        <pt x="220" y="512" on="1"/>
        <pt x="266" y="537" on="0"/>
        <pt x="324" y="537" on="1"/>
        <pt x="327" y="537" on="1"/>
        <pt x="354" y="537" on="0"/>
        <pt x="407" y="525" on="0"/>
        <pt x="430" y="512" on="1"/>
        <pt x="505" y="586" on="1"/>
        <pt x="587" y="503" on="1"/>
        <pt x="512" y="429" on="1"/>
        <pt x="534" y="388" on="0"/>
        <pt x="534" y="331" on="1"/>
        <pt x="534" y="273" on="0"/>
        <pt x="512" y="233" on="1"/>
        <pt x="587" y="158" on="1"/>
        <pt x="505" y="76" on="1"/>
      </contour>
      <contour>
        <pt x="232" y="331" on="1"/>
        <pt x="232" y="283" on="0"/>
        <pt x="279" y="231" on="0"/>
        <pt x="324" y="231" on="1"/>
        <pt x="327" y="231" on="1"/>
        <pt x="372" y="231" on="0"/>
        <pt x="418" y="283" on="0"/>
        <pt x="418" y="331" on="1"/>
        <pt x="418" y="379" on="0"/>
        <pt x="372" y="431" on="0"/>
        <pt x="327" y="431" on="1"/>
        <pt x="324" y="431" on="1"/>
        <pt x="279" y="431" on="0"/>
        <pt x="232" y="379" on="0"/>
      </contour>
    </TTGlyph>
    <TTGlyph name="d" xMin="30" yMin="-8" xMax="516" yMax="709">
      <contour>
        <pt x="387" y="709" on="1"/>
        <pt x="516" y="709" on="1"/>
        <pt x="516" y="0" on="1"/>
        <pt x="419" y="0" on="1"/>
        <pt x="401" y="45" on="1"/>
        <pt x="364" y="25" on="1"/>
        <pt x="335" y="9" on="0"/>
        <pt x="279" y="-8" on="0"/>
        <pt x="249" y="-8" on="1"/>
        <pt x="201" y="-8" on="0"/>
        <pt x="120" y="28" on="0"/>
        <pt x="62" y="94" on="0"/>
        <pt x="30" y="187" on="0"/>
        <pt x="30" y="243" on="1"/>
        <pt x="30" y="298" on="0"/>
        <pt x="64" y="391" on="0"/>
        <pt x="122" y="458" on="0"/>
        <pt x="202" y="496" on="0"/>
        <pt x="249" y="496" on="1"/>
        <pt x="285" y="496" on="0"/>
        <pt x="352" y="471" on="0"/>
        <pt x="387" y="450" on="1"/>
      </contour>
      <contour>
        <pt x="387" y="336" on="1"/>
        <pt x="387" y="344" on="0"/>
        <pt x="385" y="351" on="0"/>
        <pt x="377" y="355" on="1"/>
        <pt x="359" y="364" on="0"/>
        <pt x="306" y="376" on="0"/>
        <pt x="277" y="376" on="1"/>
        <pt x="220" y="376" on="0"/>
        <pt x="162" y="318" on="0"/>
        <pt x="162" y="244" on="1"/>
        <pt x="162" y="168" on="0"/>
        <pt x="221" y="111" on="0"/>
        <pt x="277" y="111" on="1"/>
        <pt x="303" y="111" on="0"/>
        <pt x="359" y="123" on="0"/>
        <pt x="377" y="132" on="1"/>
        <pt x="387" y="137" on="0"/>
        <pt x="387" y="151" on="1"/>
      </contour>
    </TTGlyph>
    <TTGlyph name="dagger" xMin="46" yMin="-229" xMax="537" yMax="663">
      <contour>
        <pt x="351" y="663" on="1"/>
        <pt x="351" y="545" on="1"/>
        <pt x="351" y="525" on="0"/>
        <pt x="349" y="489" on="0"/>
        <pt x="346" y="465" on="1"/>
        <pt x="341" y="417" on="1"/>
        <pt x="415" y="425" on="1"/>
        <pt x="441" y="428" on="0"/>
        <pt x="476" y="430" on="0"/>
        <pt x="495" y="430" on="1"/>
        <pt x="537" y="430" on="1"/>
        <pt x="537" y="318" on="1"/>
        <pt x="495" y="318" on="1"/>
        <pt x="476" y="318" on="0"/>
        <pt x="441" y="320" on="0"/>
        <pt x="415" y="323" on="1"/>
        <pt x="341" y="332" on="1"/>
        <pt x="346" y="285" on="1"/>
        <pt x="348" y="262" on="0"/>
        <pt x="351" y="226" on="0"/>
        <pt x="351" y="206" on="1"/>
        <pt x="351" y="22" on="1"/>
        <pt x="351" y="1" on="0"/>
        <pt x="347" y="-59" on="0"/>
        <pt x="340" y="-126" on="0"/>
        <pt x="332" y="-197" on="0"/>
        <pt x="329" y="-229" on="1"/>
        <pt x="254" y="-229" on="1"/>
        <pt x="251" y="-197" on="0"/>
        <pt x="243" y="-126" on="0"/>
        <pt x="236" y="-59" on="0"/>
        <pt x="232" y="1" on="0"/>
        <pt x="232" y="22" on="1"/>
        <pt x="232" y="206" on="1"/>
        <pt x="232" y="226" on="0"/>
        <pt x="235" y="262" on="0"/>
        <pt x="237" y="285" on="1"/>
        <pt x="242" y="332" on="1"/>
        <pt x="168" y="323" on="1"/>
        <pt x="142" y="320" on="0"/>
        <pt x="107" y="318" on="0"/>
        <pt x="88" y="318" on="1"/>
        <pt x="46" y="318" on="1"/>
        <pt x="46" y="430" on="1"/>
        <pt x="88" y="430" on="1"/>
        <pt x="107" y="430" on="0"/>
        <pt x="142" y="428" on="0"/>
        <pt x="168" y="425" on="1"/>
        <pt x="242" y="417" on="1"/>
        <pt x="237" y="465" on="1"/>
        <pt x="234" y="489" on="0"/>
        <pt x="232" y="525" on="0"/>
        <pt x="232" y="545" on="1"/>
        <pt x="232" y="663" on="1"/>
      </contour>
    </TTGlyph>
    <TTGlyph name="daggerdbl" xMin="46" yMin="-229" xMax="537" yMax="663">
      <contour>
        <pt x="232" y="-106" on="1"/>
        <pt x="232" y="-94" on="0"/>
        <pt x="235" y="-55" on="0"/>
        <pt x="237" y="-37" on="1"/>
        <pt x="242" y="11" on="1"/>
        <pt x="168" y="3" on="1"/>
        <pt x="144" y="0" on="0"/>
        <pt x="110" y="-2" on="0"/>
        <pt x="92" y="-2" on="1"/>
        <pt x="46" y="-2" on="1"/>
        <pt x="46" y="110" on="1"/>
        <pt x="101" y="110" on="1"/>
        <pt x="115" y="110" on="0"/>
        <pt x="148" y="107" on="0"/>
        <pt x="168" y="105" on="1"/>
        <pt x="242" y="96" on="1"/>
        <pt x="237" y="133" on="0"/>
        <pt x="232" y="194" on="0"/>
        <pt x="232" y="214" on="1"/>
        <pt x="232" y="234" on="0"/>
        <pt x="237" y="295" on="0"/>
        <pt x="242" y="332" on="1"/>
        <pt x="168" y="323" on="1"/>
        <pt x="148" y="321" on="0"/>
        <pt x="115" y="318" on="0"/>
        <pt x="101" y="318" on="1"/>
        <pt x="46" y="318" on="1"/>
        <pt x="46" y="430" on="1"/>
        <pt x="92" y="430" on="1"/>
        <pt x="110" y="430" on="0"/>
        <pt x="144" y="428" on="0"/>
        <pt x="168" y="425" on="1"/>
        <pt x="242" y="417" on="1"/>
        <pt x="237" y="465" on="1"/>
        <pt x="235" y="483" on="0"/>
        <pt x="232" y="519" on="0"/>
        <pt x="232" y="531" on="1"/>
        <pt x="232" y="663" on="1"/>
        <pt x="351" y="663" on="1"/>
        <pt x="351" y="531" on="1"/>
        <pt x="351" y="519" on="0"/>
        <pt x="348" y="483" on="0"/>
        <pt x="346" y="465" on="1"/>
        <pt x="341" y="417" on="1"/>
        <pt x="415" y="425" on="1"/>
        <pt x="439" y="428" on="0"/>
        <pt x="473" y="430" on="0"/>
        <pt x="491" y="430" on="1"/>
        <pt x="537" y="430" on="1"/>
        <pt x="537" y="318" on="1"/>
        <pt x="482" y="318" on="1"/>
        <pt x="468" y="318" on="0"/>
        <pt x="435" y="321" on="0"/>
        <pt x="415" y="323" on="1"/>
        <pt x="341" y="332" on="1"/>
        <pt x="346" y="295" on="0"/>
        <pt x="351" y="234" on="0"/>
        <pt x="351" y="214" on="1"/>
        <pt x="351" y="194" on="0"/>
        <pt x="346" y="133" on="0"/>
        <pt x="341" y="96" on="1"/>
        <pt x="415" y="105" on="1"/>
        <pt x="435" y="107" on="0"/>
        <pt x="468" y="110" on="0"/>
        <pt x="482" y="110" on="1"/>
        <pt x="537" y="110" on="1"/>
        <pt x="537" y="-2" on="1"/>
        <pt x="491" y="-2" on="1"/>
        <pt x="473" y="-2" on="0"/>
        <pt x="439" y="0" on="0"/>
        <pt x="415" y="3" on="1"/>
        <pt x="341" y="11" on="1"/>
        <pt x="346" y="-37" on="1"/>
        <pt x="348" y="-55" on="0"/>
        <pt x="351" y="-94" on="0"/>
        <pt x="351" y="-106" on="1"/>
        <pt x="351" y="-229" on="1"/>
        <pt x="232" y="-229" on="1"/>
      </contour>
    </TTGlyph>
    <TTGlyph name="dcaron" xMin="30" yMin="-8" xMax="709" yMax="709">
      <component glyphName="d" x="0" y="0" flags="0x4"/>
      <component glyphName="commaaccent" x="433" y="767" flags="0x4"/>
    </TTGlyph>
    <TTGlyph name="dcroat" xMin="30" yMin="-8" xMax="590" yMax="709">
      <contour>
        <pt x="387" y="556" on="1"/>
        <pt x="232" y="556" on="1"/>
        <pt x="232" y="637" on="1"/>
        <pt x="387" y="637" on="1"/>
        <pt x="387" y="709" on="1"/>
        <pt x="516" y="709" on="1"/>
        <pt x="516" y="637" on="1"/>
        <pt x="590" y="624" on="1"/>
        <pt x="590" y="556" on="1"/>
        <pt x="516" y="556" on="1"/>
        <pt x="516" y="0" on="1"/>
        <pt x="419" y="0" on="1"/>
        <pt x="401" y="45" on="1"/>
        <pt x="364" y="25" on="1"/>
        <pt x="335" y="9" on="0"/>
        <pt x="279" y="-8" on="0"/>
        <pt x="249" y="-8" on="1"/>
        <pt x="201" y="-8" on="0"/>
        <pt x="120" y="28" on="0"/>
        <pt x="62" y="94" on="0"/>
        <pt x="30" y="187" on="0"/>
        <pt x="30" y="243" on="1"/>
        <pt x="30" y="298" on="0"/>
        <pt x="64" y="391" on="0"/>
        <pt x="122" y="458" on="0"/>
        <pt x="202" y="496" on="0"/>
        <pt x="249" y="496" on="1"/>
        <pt x="285" y="496" on="0"/>
        <pt x="352" y="471" on="0"/>
        <pt x="387" y="450" on="1"/>
      </contour>
      <contour>
        <pt x="387" y="336" on="1"/>
        <pt x="387" y="344" on="0"/>
        <pt x="385" y="351" on="0"/>
        <pt x="377" y="355" on="1"/>
        <pt x="359" y="364" on="0"/>
        <pt x="306" y="376" on="0"/>
        <pt x="277" y="376" on="1"/>
        <pt x="220" y="376" on="0"/>
        <pt x="162" y="318" on="0"/>
        <pt x="162" y="244" on="1"/>
        <pt x="162" y="168" on="0"/>
        <pt x="221" y="111" on="0"/>
        <pt x="277" y="111" on="1"/>
        <pt x="303" y="111" on="0"/>
        <pt x="359" y="123" on="0"/>
        <pt x="377" y="132" on="1"/>
        <pt x="387" y="137" on="0"/>
        <pt x="387" y="151" on="1"/>
      </contour>
    </TTGlyph>
    <TTGlyph name="degree" xMin="51" yMin="323" xMax="409" yMax="673">
      <contour>
        <pt x="155" y="498" on="1"/>
        <pt x="155" y="460" on="0"/>
        <pt x="194" y="422" on="0"/>
        <pt x="229" y="422" on="1"/>
        <pt x="231" y="422" on="1"/>
        <pt x="266" y="422" on="0"/>
        <pt x="305" y="460" on="0"/>
        <pt x="305" y="498" on="1"/>
        <pt x="305" y="535" on="0"/>
        <pt x="266" y="573" on="0"/>
        <pt x="231" y="573" on="1"/>
        <pt x="229" y="573" on="1"/>
        <pt x="194" y="573" on="0"/>
        <pt x="155" y="535" on="0"/>
      </contour>
      <contour>
        <pt x="409" y="498" on="1"/>
        <pt x="409" y="456" on="0"/>
        <pt x="378" y="391" on="0"/>
        <pt x="328" y="346" on="0"/>
        <pt x="264" y="323" on="0"/>
        <pt x="231" y="323" on="1"/>
        <pt x="229" y="323" on="1"/>
        <pt x="196" y="323" on="0"/>
        <pt x="132" y="346" on="0"/>
        <pt x="82" y="391" on="0"/>
        <pt x="51" y="456" on="0"/>
        <pt x="51" y="498" on="1"/>
        <pt x="51" y="540" on="0"/>
        <pt x="82" y="605" on="0"/>
        <pt x="132" y="650" on="0"/>
        <pt x="196" y="673" on="0"/>
        <pt x="229" y="673" on="1"/>
        <pt x="231" y="673" on="1"/>
        <pt x="264" y="673" on="0"/>
        <pt x="328" y="650" on="0"/>
        <pt x="378" y="605" on="0"/>
        <pt x="409" y="540" on="0"/>
      </contour>
    </TTGlyph>
    <TTGlyph name="dieresis" xMin="42" yMin="571" xMax="373" yMax="692">
      <contour>
        <pt x="168" y="571" on="1"/>
        <pt x="42" y="571" on="1"/>
        <pt x="42" y="692" on="1"/>
        <pt x="144" y="692" on="1"/>
        <pt x="158" y="692" on="0"/>
        <pt x="168" y="682" on="0"/>
        <pt x="168" y="670" on="1"/>
      </contour>
      <contour>
        <pt x="373" y="571" on="1"/>
        <pt x="247" y="571" on="1"/>
        <pt x="247" y="692" on="1"/>
        <pt x="349" y="692" on="1"/>
        <pt x="363" y="692" on="0"/>
        <pt x="373" y="682" on="0"/>
        <pt x="373" y="670" on="1"/>
      </contour>
    </TTGlyph>
    <TTGlyph name="dieresis.cap" xMin="42" yMin="748" xMax="373" yMax="869">
      <contour>
        <pt x="168" y="748" on="1"/>
        <pt x="42" y="748" on="1"/>
        <pt x="42" y="869" on="1"/>
        <pt x="144" y="869" on="1"/>
        <pt x="158" y="869" on="0"/>
        <pt x="168" y="859" on="0"/>
        <pt x="168" y="847" on="1"/>
      </contour>
      <contour>
        <pt x="373" y="748" on="1"/>
        <pt x="247" y="748" on="1"/>
        <pt x="247" y="869" on="1"/>
        <pt x="349" y="869" on="1"/>
        <pt x="363" y="869" on="0"/>
        <pt x="373" y="859" on="0"/>
        <pt x="373" y="847" on="1"/>
      </contour>
    </TTGlyph>
    <TTGlyph name="divide" xMin="73" yMin="21" xMax="484" yMax="480">
      <contour>
        <pt x="73" y="196" on="1"/>
        <pt x="73" y="306" on="1"/>
        <pt x="484" y="306" on="1"/>
        <pt x="484" y="196" on="1"/>
      </contour>
      <contour>
        <pt x="341" y="21" on="1"/>
        <pt x="215" y="21" on="1"/>
        <pt x="215" y="143" on="1"/>
        <pt x="318" y="143" on="1"/>
        <pt x="332" y="143" on="0"/>
        <pt x="341" y="133" on="0"/>
        <pt x="341" y="121" on="1"/>
      </contour>
      <contour>
        <pt x="341" y="358" on="1"/>
        <pt x="215" y="358" on="1"/>
        <pt x="215" y="480" on="1"/>
        <pt x="318" y="480" on="1"/>
        <pt x="332" y="480" on="0"/>
        <pt x="341" y="470" on="0"/>
        <pt x="341" y="458" on="1"/>
      </contour>
    </TTGlyph>
    <TTGlyph name="dollar" xMin="77" yMin="-129" xMax="592" yMax="791">
      <contour>
        <pt x="181" y="135" on="1"/>
        <pt x="216" y="127" on="0"/>
        <pt x="273" y="117" on="0"/>
        <pt x="296" y="114" on="1"/>
        <pt x="296" y="295" on="1"/>
        <pt x="290" y="297" on="1"/>
        <pt x="189" y="327" on="0"/>
        <pt x="84" y="415" on="0"/>
        <pt x="84" y="492" on="1"/>
        <pt x="84" y="533" on="0"/>
        <pt x="115" y="596" on="0"/>
        <pt x="172" y="641" on="0"/>
        <pt x="249" y="668" on="0"/>
        <pt x="296" y="671" on="1"/>
        <pt x="311" y="791" on="1"/>
        <pt x="383" y="791" on="1"/>
        <pt x="383" y="670" on="1"/>
        <pt x="476" y="662" on="0"/>
        <pt x="560" y="628" on="1"/>
        <pt x="539" y="534" on="1"/>
        <pt x="486" y="540" on="1"/>
        <pt x="460" y="543" on="0"/>
        <pt x="406" y="548" on="0"/>
        <pt x="383" y="550" on="1"/>
        <pt x="383" y="402" on="1"/>
        <pt x="442" y="385" on="0"/>
        <pt x="522" y="346" on="0"/>
        <pt x="571" y="298" on="0"/>
        <pt x="592" y="238" on="0"/>
        <pt x="592" y="201" on="1"/>
        <pt x="592" y="113" on="0"/>
        <pt x="482" y="3" on="0"/>
        <pt x="383" y="-7" on="1"/>
        <pt x="368" y="-129" on="1"/>
        <pt x="296" y="-129" on="1"/>
        <pt x="296" y="-8" on="1"/>
        <pt x="236" y="-2" on="0"/>
        <pt x="119" y="36" on="0"/>
        <pt x="77" y="62" on="1"/>
        <pt x="112" y="151" on="1"/>
      </contour>
      <contour>
        <pt x="461" y="194" on="1"/>
        <pt x="461" y="222" on="0"/>
        <pt x="426" y="254" on="0"/>
        <pt x="383" y="269" on="1"/>
        <pt x="383" y="116" on="1"/>
        <pt x="461" y="130" on="0"/>
      </contour>
      <contour>
        <pt x="214" y="493" on="1"/>
        <pt x="214" y="468" on="0"/>
        <pt x="255" y="440" on="0"/>
        <pt x="296" y="427" on="1"/>
        <pt x="296" y="549" on="1"/>
        <pt x="214" y="540" on="0"/>
      </contour>
    </TTGlyph>
    <TTGlyph name="dollar.lprop" xMin="42" yMin="-129" xMax="557" yMax="791">
      <component glyphName="dollar" x="-35" y="0" flags="0x4"/>
    </TTGlyph>
    <TTGlyph name="dollar.oprop" xMin="75" yMin="-116" xMax="488" yMax="604">
      <component glyphName="dollar.otab" x="-49" y="0" flags="0x4"/>
    </TTGlyph>
    <TTGlyph name="dollar.otab" xMin="124" yMin="-116" xMax="537" yMax="604">
      <contour>
        <pt x="450" y="382" on="1"/>
        <pt x="409" y="386" on="0"/>
        <pt x="378" y="388" on="1"/>
        <pt x="378" y="302" on="1"/>
        <pt x="419" y="291" on="0"/>
        <pt x="479" y="267" on="0"/>
        <pt x="518" y="232" on="0"/>
        <pt x="537" y="186" on="0"/>
        <pt x="537" y="153" on="1"/>
        <pt x="537" y="89" on="0"/>
        <pt x="457" y="4" on="0"/>
        <pt x="378" y="-5" on="1"/>
        <pt x="363" y="-116" on="1"/>
        <pt x="301" y="-116" on="1"/>
        <pt x="301" y="-6" on="1"/>
        <pt x="253" y="-1" on="0"/>
        <pt x="158" y="26" on="0"/>
        <pt x="124" y="46" on="1"/>
        <pt x="151" y="123" on="1"/>
        <pt x="205" y="113" on="1"/>
        <pt x="232" y="108" on="0"/>
        <pt x="281" y="101" on="0"/>
        <pt x="301" y="99" on="1"/>
        <pt x="301" y="203" on="1"/>
        <pt x="291" y="206" on="1"/>
        <pt x="254" y="215" on="0"/>
        <pt x="194" y="239" on="0"/>
        <pt x="152" y="273" on="0"/>
        <pt x="130" y="320" on="0"/>
        <pt x="130" y="352" on="1"/>
        <pt x="130" y="415" on="0"/>
        <pt x="224" y="487" on="0"/>
        <pt x="301" y="494" on="1"/>
        <pt x="316" y="604" on="1"/>
        <pt x="378" y="604" on="1"/>
        <pt x="378" y="494" on="1"/>
        <pt x="454" y="486" on="0"/>
        <pt x="518" y="458" on="1"/>
        <pt x="498" y="377" on="1"/>
      </contour>
      <contour>
        <pt x="247" y="356" on="1"/>
        <pt x="247" y="342" on="0"/>
        <pt x="275" y="328" on="0"/>
        <pt x="301" y="321" on="1"/>
        <pt x="301" y="389" on="1"/>
        <pt x="247" y="385" on="0"/>
      </contour>
      <contour>
        <pt x="419" y="145" on="1"/>
        <pt x="419" y="160" on="0"/>
        <pt x="401" y="177" on="0"/>
        <pt x="378" y="185" on="1"/>
        <pt x="378" y="102" on="1"/>
        <pt x="419" y="113" on="0"/>
      </contour>
    </TTGlyph>
    <TTGlyph name="dotaccent" xMin="143" yMin="555" xMax="274" yMax="680">
      <contour>
        <pt x="274" y="555" on="1"/>
        <pt x="143" y="555" on="1"/>
        <pt x="143" y="680" on="1"/>
        <pt x="249" y="680" on="1"/>
        <pt x="264" y="680" on="0"/>
        <pt x="274" y="670" on="0"/>
        <pt x="274" y="657" on="1"/>
      </contour>
    </TTGlyph>
    <TTGlyph name="dotaccent.cap" xMin="143" yMin="732" xMax="274" yMax="857">
      <contour>
        <pt x="274" y="732" on="1"/>
        <pt x="143" y="732" on="1"/>
        <pt x="143" y="857" on="1"/>
        <pt x="249" y="857" on="1"/>
        <pt x="264" y="857" on="0"/>
        <pt x="274" y="847" on="0"/>
        <pt x="274" y="834" on="1"/>
      </contour>
    </TTGlyph>
    <TTGlyph name="dotlessi" xMin="60" yMin="0" xMax="189" yMax="488">
      <contour>
        <pt x="60" y="488" on="1"/>
        <pt x="189" y="488" on="1"/>
        <pt x="189" y="0" on="1"/>
        <pt x="60" y="0" on="1"/>
      </contour>
    </TTGlyph>
    <TTGlyph name="e" xMin="30" yMin="-8" xMax="511" yMax="496">
      <contour>
        <pt x="511" y="263" on="1"/>
        <pt x="511" y="252" on="0"/>
        <pt x="509" y="227" on="0"/>
        <pt x="506" y="217" on="1"/>
        <pt x="503" y="208" on="0"/>
        <pt x="493" y="204" on="0"/>
        <pt x="485" y="204" on="1"/>
        <pt x="162" y="204" on="1"/>
        <pt x="167" y="159" on="0"/>
        <pt x="231" y="106" on="0"/>
        <pt x="291" y="106" on="1"/>
        <pt x="315" y="106" on="0"/>
        <pt x="373" y="118" on="0"/>
        <pt x="404" y="129" on="1"/>
        <pt x="459" y="148" on="1"/>
        <pt x="500" y="76" on="1"/>
        <pt x="456" y="38" on="0"/>
        <pt x="340" y="-8" on="0"/>
        <pt x="279" y="-8" on="1"/>
        <pt x="226" y="-8" on="0"/>
        <pt x="135" y="29" on="0"/>
        <pt x="68" y="96" on="0"/>
        <pt x="30" y="188" on="0"/>
        <pt x="30" y="243" on="1"/>
        <pt x="30" y="301" on="0"/>
        <pt x="69" y="394" on="0"/>
        <pt x="135" y="460" on="0"/>
        <pt x="224" y="496" on="0"/>
        <pt x="274" y="496" on="1"/>
        <pt x="326" y="496" on="0"/>
        <pt x="414" y="459" on="0"/>
        <pt x="476" y="396" on="0"/>
        <pt x="511" y="311" on="0"/>
      </contour>
      <contour>
        <pt x="383" y="295" on="1"/>
        <pt x="379" y="334" on="0"/>
        <pt x="321" y="383" on="0"/>
        <pt x="273" y="383" on="1"/>
        <pt x="224" y="383" on="0"/>
        <pt x="167" y="334" on="0"/>
        <pt x="162" y="295" on="1"/>
      </contour>
    </TTGlyph>
    <TTGlyph name="eacute" xMin="30" yMin="-8" xMax="511" yMax="746">
      <component glyphName="e" x="0" y="0" flags="0x204"/>
      <component glyphName="acute" x="67" y="0" flags="0x4"/>
    </TTGlyph>
    <TTGlyph name="ebreve" xMin="30" yMin="-8" xMax="511" yMax="717">
      <component glyphName="e" x="0" y="0" flags="0x204"/>
      <component glyphName="breve" x="64" y="0" flags="0x4"/>
    </TTGlyph>
    <TTGlyph name="ecaron" xMin="30" yMin="-8" xMax="511" yMax="743">
      <component glyphName="e" x="0" y="0" flags="0x204"/>
      <component glyphName="caron" x="66" y="0" flags="0x4"/>
    </TTGlyph>
    <TTGlyph name="ecircumflex" xMin="30" yMin="-8" xMax="511" yMax="732">
      <component glyphName="e" x="0" y="0" flags="0x204"/>
      <component glyphName="circumflex" x="66" y="0" flags="0x4"/>
    </TTGlyph>
    <TTGlyph name="edieresis" xMin="30" yMin="-8" xMax="511" yMax="692">
      <component glyphName="e" x="0" y="0" flags="0x204"/>
      <component glyphName="dieresis" x="64" y="0" flags="0x4"/>
    </TTGlyph>
    <TTGlyph name="edotaccent" xMin="30" yMin="-8" xMax="511" yMax="680">
      <component glyphName="e" x="0" y="0" flags="0x204"/>
      <component glyphName="dotaccent" x="64" y="0" flags="0x4"/>
    </TTGlyph>
    <TTGlyph name="egrave" xMin="30" yMin="-8" xMax="511" yMax="746">
      <component glyphName="e" x="0" y="0" flags="0x204"/>
      <component glyphName="grave" x="69" y="0" flags="0x4"/>
    </TTGlyph>
    <TTGlyph name="eight" xMin="54" yMin="-10" xMax="596" yMax="673">
      <contour>
        <pt x="54" y="199" on="1"/>
        <pt x="54" y="251" on="0"/>
        <pt x="111" y="327" on="0"/>
        <pt x="153" y="353" on="1"/>
        <pt x="121" y="375" on="0"/>
        <pt x="80" y="440" on="0"/>
        <pt x="80" y="486" on="1"/>
        <pt x="80" y="526" on="0"/>
        <pt x="116" y="595" on="0"/>
        <pt x="180" y="645" on="0"/>
        <pt x="269" y="673" on="0"/>
        <pt x="323" y="673" on="1"/>
        <pt x="379" y="673" on="0"/>
        <pt x="470" y="645" on="0"/>
        <pt x="535" y="596" on="0"/>
        <pt x="570" y="529" on="0"/>
        <pt x="570" y="491" on="1"/>
        <pt x="570" y="451" on="0"/>
        <pt x="526" y="377" on="0"/>
        <pt x="489" y="348" on="1"/>
        <pt x="540" y="324" on="0"/>
        <pt x="596" y="250" on="0"/>
        <pt x="596" y="198" on="1"/>
        <pt x="596" y="156" on="0"/>
        <pt x="557" y="80" on="0"/>
        <pt x="486" y="23" on="0"/>
        <pt x="387" y="-10" on="0"/>
        <pt x="327" y="-10" on="1"/>
        <pt x="269" y="-10" on="0"/>
        <pt x="169" y="19" on="0"/>
        <pt x="96" y="73" on="0"/>
        <pt x="54" y="151" on="0"/>
      </contour>
      <contour>
        <pt x="210" y="488" on="1"/>
        <pt x="210" y="471" on="0"/>
        <pt x="227" y="447" on="0"/>
        <pt x="259" y="428" on="0"/>
        <pt x="306" y="412" on="0"/>
        <pt x="336" y="403" on="1"/>
        <pt x="377" y="389" on="1"/>
        <pt x="388" y="385" on="0"/>
        <pt x="396" y="387" on="0"/>
        <pt x="406" y="396" on="1"/>
        <pt x="421" y="410" on="0"/>
        <pt x="446" y="453" on="0"/>
        <pt x="446" y="474" on="1"/>
        <pt x="446" y="514" on="0"/>
        <pt x="377" y="558" on="0"/>
        <pt x="321" y="558" on="1"/>
        <pt x="275" y="558" on="0"/>
        <pt x="210" y="523" on="0"/>
      </contour>
      <contour>
        <pt x="185" y="212" on="1"/>
        <pt x="185" y="165" on="0"/>
        <pt x="264" y="108" on="0"/>
        <pt x="327" y="108" on="1"/>
        <pt x="355" y="108" on="0"/>
        <pt x="403" y="121" on="0"/>
        <pt x="439" y="144" on="0"/>
        <pt x="460" y="176" on="0"/>
        <pt x="460" y="196" on="1"/>
        <pt x="460" y="211" on="0"/>
        <pt x="447" y="231" on="0"/>
        <pt x="415" y="249" on="0"/>
        <pt x="361" y="268" on="0"/>
        <pt x="319" y="282" on="1"/>
        <pt x="256" y="303" on="1"/>
        <pt x="243" y="308" on="0"/>
        <pt x="233" y="304" on="0"/>
        <pt x="225" y="297" on="1"/>
        <pt x="206" y="280" on="0"/>
        <pt x="185" y="236" on="0"/>
      </contour>
    </TTGlyph>
    <TTGlyph name="eight.lprop" xMin="45" yMin="-10" xMax="587" yMax="673">
      <component glyphName="eight" x="-9" y="0" flags="0x4"/>
    </TTGlyph>
    <TTGlyph name="eight.oprop" xMin="48" yMin="-8" xMax="567" yMax="671">
      <component glyphName="eight.otab" x="-18" y="0" flags="0x4"/>
    </TTGlyph>
    <TTGlyph name="eight.otab" xMin="66" yMin="-8" xMax="585" yMax="671">
      <contour>
        <pt x="66" y="199" on="1"/>
        <pt x="66" y="253" on="0"/>
        <pt x="125" y="330" on="0"/>
        <pt x="167" y="353" on="1"/>
        <pt x="135" y="375" on="0"/>
        <pt x="92" y="438" on="0"/>
        <pt x="92" y="486" on="1"/>
        <pt x="92" y="527" on="0"/>
        <pt x="129" y="595" on="0"/>
        <pt x="192" y="644" on="0"/>
        <pt x="277" y="671" on="0"/>
        <pt x="326" y="671" on="1"/>
        <pt x="372" y="671" on="0"/>
        <pt x="456" y="646" on="0"/>
        <pt x="521" y="599" on="0"/>
        <pt x="559" y="531" on="0"/>
        <pt x="559" y="488" on="1"/>
        <pt x="559" y="448" on="0"/>
        <pt x="514" y="375" on="0"/>
        <pt x="477" y="347" on="1"/>
        <pt x="522" y="327" on="0"/>
        <pt x="585" y="257" on="0"/>
        <pt x="585" y="203" on="1"/>
        <pt x="585" y="158" on="0"/>
        <pt x="547" y="81" on="0"/>
        <pt x="479" y="24" on="0"/>
        <pt x="384" y="-8" on="0"/>
        <pt x="327" y="-8" on="1"/>
        <pt x="269" y="-8" on="0"/>
        <pt x="173" y="23" on="0"/>
        <pt x="104" y="78" on="0"/>
        <pt x="66" y="154" on="0"/>
      </contour>
      <contour>
        <pt x="397" y="392" on="1"/>
        <pt x="415" y="412" on="0"/>
        <pt x="441" y="455" on="0"/>
        <pt x="441" y="478" on="1"/>
        <pt x="441" y="519" on="0"/>
        <pt x="373" y="564" on="0"/>
        <pt x="322" y="564" on="1"/>
        <pt x="276" y="564" on="0"/>
        <pt x="216" y="523" on="0"/>
        <pt x="216" y="491" on="1"/>
        <pt x="216" y="456" on="0"/>
        <pt x="281" y="417" on="0"/>
        <pt x="333" y="401" on="1"/>
        <pt x="371" y="388" on="1"/>
        <pt x="387" y="382" on="0"/>
      </contour>
      <contour>
        <pt x="236" y="301" on="1"/>
        <pt x="218" y="284" on="0"/>
        <pt x="191" y="239" on="0"/>
        <pt x="191" y="212" on="1"/>
        <pt x="191" y="165" on="0"/>
        <pt x="265" y="103" on="0"/>
        <pt x="328" y="103" on="1"/>
        <pt x="385" y="103" on="0"/>
        <pt x="455" y="157" on="0"/>
        <pt x="455" y="193" on="1"/>
        <pt x="455" y="210" on="0"/>
        <pt x="435" y="236" on="0"/>
        <pt x="399" y="257" on="0"/>
        <pt x="347" y="276" on="0"/>
        <pt x="315" y="287" on="1"/>
        <pt x="262" y="306" on="1"/>
        <pt x="248" y="311" on="0"/>
      </contour>
    </TTGlyph>
    <TTGlyph name="ellipsis" xMin="50" yMin="0" xMax="660" yMax="137">
      <contour>
        <pt x="188" y="0" on="1"/>
        <pt x="50" y="0" on="1"/>
        <pt x="50" y="137" on="1"/>
        <pt x="161" y="137" on="1"/>
        <pt x="177" y="137" on="0"/>
        <pt x="188" y="125" on="0"/>
        <pt x="188" y="112" on="1"/>
      </contour>
      <contour>
        <pt x="424" y="0" on="1"/>
        <pt x="286" y="0" on="1"/>
        <pt x="286" y="137" on="1"/>
        <pt x="397" y="137" on="1"/>
        <pt x="413" y="137" on="0"/>
        <pt x="424" y="125" on="0"/>
        <pt x="424" y="112" on="1"/>
      </contour>
      <contour>
        <pt x="660" y="0" on="1"/>
        <pt x="522" y="0" on="1"/>
        <pt x="522" y="137" on="1"/>
        <pt x="633" y="137" on="1"/>
        <pt x="649" y="137" on="0"/>
        <pt x="660" y="125" on="0"/>
        <pt x="660" y="112" on="1"/>
      </contour>
    </TTGlyph>
    <TTGlyph name="emacron" xMin="30" yMin="-8" xMax="511" yMax="682">
      <component glyphName="e" x="0" y="0" flags="0x204"/>
      <component glyphName="macron" x="64" y="0" flags="0x4"/>
    </TTGlyph>
    <TTGlyph name="emdash" xMin="49" yMin="189" xMax="1049" yMax="298">
      <contour>
        <pt x="49" y="189" on="1"/>
        <pt x="49" y="298" on="1"/>
        <pt x="1049" y="298" on="1"/>
        <pt x="1049" y="189" on="1"/>
      </contour>
    </TTGlyph>
    <TTGlyph name="emdash.cap" xMin="49" yMin="276" xMax="1049" yMax="385">
      <component glyphName="emdash" x="0" y="87" flags="0x204"/>
    </TTGlyph>
    <TTGlyph name="endash" xMin="49" yMin="189" xMax="549" yMax="298">
      <contour>
        <pt x="49" y="189" on="1"/>
        <pt x="49" y="298" on="1"/>
        <pt x="549" y="298" on="1"/>
        <pt x="549" y="189" on="1"/>
      </contour>
    </TTGlyph>
    <TTGlyph name="endash.cap" xMin="49" yMin="276" xMax="549" yMax="385">
      <component glyphName="endash" x="0" y="87" flags="0x204"/>
    </TTGlyph>
    <TTGlyph name="eng" xMin="59" yMin="-213" xMax="511" yMax="496">
      <contour>
        <pt x="511" y="-36" on="1"/>
        <pt x="511" y="-81" on="0"/>
        <pt x="497" y="-148" on="0"/>
        <pt x="462" y="-192" on="0"/>
        <pt x="401" y="-213" on="0"/>
        <pt x="355" y="-213" on="1"/>
        <pt x="332" y="-213" on="0"/>
        <pt x="284" y="-204" on="0"/>
        <pt x="267" y="-197" on="1"/>
        <pt x="267" y="-127" on="1"/>
        <pt x="324" y="-116" on="1"/>
        <pt x="342" y="-113" on="0"/>
        <pt x="365" y="-104" on="0"/>
        <pt x="378" y="-91" on="0"/>
        <pt x="382" y="-71" on="0"/>
        <pt x="382" y="-56" on="1"/>
        <pt x="382" y="301" on="1"/>
        <pt x="382" y="337" on="0"/>
        <pt x="366" y="353" on="1"/>
        <pt x="346" y="374" on="0"/>
        <pt x="291" y="374" on="1"/>
        <pt x="289" y="374" on="1"/>
        <pt x="263" y="374" on="0"/>
        <pt x="213" y="366" on="0"/>
        <pt x="198" y="360" on="1"/>
        <pt x="190" y="357" on="0"/>
        <pt x="188" y="348" on="0"/>
        <pt x="188" y="341" on="1"/>
        <pt x="188" y="0" on="1"/>
        <pt x="59" y="0" on="1"/>
        <pt x="59" y="488" on="1"/>
        <pt x="157" y="488" on="1"/>
        <pt x="173" y="445" on="1"/>
        <pt x="211" y="466" on="1"/>
        <pt x="234" y="479" on="0"/>
        <pt x="290" y="496" on="0"/>
        <pt x="319" y="496" on="1"/>
        <pt x="361" y="496" on="0"/>
        <pt x="432" y="470" on="0"/>
        <pt x="483" y="422" on="0"/>
        <pt x="511" y="351" on="0"/>
        <pt x="511" y="306" on="1"/>
      </contour>
    </TTGlyph>
    <TTGlyph name="eogonek" xMin="30" yMin="-224" xMax="511" yMax="496">
      <contour>
        <pt x="383" y="295" on="1"/>
        <pt x="379" y="334" on="0"/>
        <pt x="321" y="383" on="0"/>
        <pt x="273" y="383" on="1"/>
        <pt x="224" y="383" on="0"/>
        <pt x="167" y="334" on="0"/>
        <pt x="162" y="295" on="1"/>
      </contour>
      <contour>
        <pt x="279" y="-8" on="1"/>
        <pt x="226" y="-8" on="0"/>
        <pt x="135" y="29" on="0"/>
        <pt x="68" y="96" on="0"/>
        <pt x="30" y="188" on="0"/>
        <pt x="30" y="243" on="1"/>
        <pt x="30" y="301" on="0"/>
        <pt x="69" y="394" on="0"/>
        <pt x="135" y="460" on="0"/>
        <pt x="224" y="496" on="0"/>
        <pt x="274" y="496" on="1"/>
        <pt x="326" y="496" on="0"/>
        <pt x="414" y="459" on="0"/>
        <pt x="476" y="396" on="0"/>
        <pt x="511" y="311" on="0"/>
        <pt x="511" y="263" on="1"/>
        <pt x="511" y="252" on="0"/>
        <pt x="509" y="227" on="0"/>
        <pt x="506" y="217" on="1"/>
        <pt x="503" y="208" on="0"/>
        <pt x="493" y="204" on="0"/>
        <pt x="485" y="204" on="1"/>
        <pt x="162" y="204" on="1"/>
        <pt x="167" y="159" on="0"/>
        <pt x="231" y="106" on="0"/>
        <pt x="291" y="106" on="1"/>
        <pt x="315" y="106" on="0"/>
        <pt x="373" y="118" on="0"/>
        <pt x="404" y="129" on="1"/>
        <pt x="459" y="148" on="1"/>
        <pt x="500" y="76" on="1"/>
        <pt x="471" y="56" on="0"/>
        <pt x="418" y="15" on="0"/>
        <pt x="378" y="-28" on="0"/>
        <pt x="354" y="-71" on="0"/>
        <pt x="354" y="-92" on="1"/>
        <pt x="354" y="-115" on="0"/>
        <pt x="385" y="-137" on="0"/>
        <pt x="412" y="-137" on="1"/>
        <pt x="427" y="-137" on="0"/>
        <pt x="459" y="-134" on="0"/>
        <pt x="475" y="-130" on="1"/>
        <pt x="495" y="-197" on="1"/>
        <pt x="441" y="-224" on="0"/>
        <pt x="388" y="-224" on="1"/>
        <pt x="324" y="-224" on="0"/>
        <pt x="252" y="-164" on="0"/>
        <pt x="252" y="-122" on="1"/>
        <pt x="252" y="-57" on="0"/>
        <pt x="328" y="0" on="1"/>
        <pt x="320" y="-3" on="0"/>
        <pt x="290" y="-8" on="0"/>
        <pt x="280" y="-8" on="1"/>
      </contour>
    </TTGlyph>
    <TTGlyph name="equal" xMin="73" yMin="90" xMax="484" yMax="401">
      <contour>
        <pt x="73" y="291" on="1"/>
        <pt x="73" y="401" on="1"/>
        <pt x="484" y="401" on="1"/>
        <pt x="484" y="291" on="1"/>
      </contour>
      <contour>
        <pt x="73" y="90" on="1"/>
        <pt x="73" y="200" on="1"/>
        <pt x="484" y="200" on="1"/>
        <pt x="484" y="90" on="1"/>
      </contour>
    </TTGlyph>
    <TTGlyph name="estimated" xMin="53" yMin="-10" xMax="816" yMax="673">
      <contour>
        <pt x="199" y="323" on="1"/>
        <pt x="191" y="323" on="0"/>
        <pt x="191" y="317" on="1"/>
        <pt x="191" y="130" on="1"/>
        <pt x="191" y="123" on="0"/>
        <pt x="197" y="115" on="0"/>
        <pt x="203" y="109" on="1"/>
        <pt x="247" y="64" on="0"/>
        <pt x="368" y="11" on="0"/>
        <pt x="437" y="11" on="1"/>
        <pt x="511" y="11" on="0"/>
        <pt x="636" y="71" on="0"/>
        <pt x="681" y="121" on="1"/>
        <pt x="737" y="121" on="1"/>
        <pt x="683" y="61" on="0"/>
        <pt x="527" y="-10" on="0"/>
        <pt x="436" y="-10" on="1"/>
        <pt x="357" y="-10" on="0"/>
        <pt x="217" y="43" on="0"/>
        <pt x="113" y="135" on="0"/>
        <pt x="53" y="260" on="0"/>
        <pt x="53" y="331" on="1"/>
        <pt x="53" y="402" on="0"/>
        <pt x="113" y="527" on="0"/>
        <pt x="217" y="620" on="0"/>
        <pt x="357" y="673" on="0"/>
        <pt x="436" y="673" on="1"/>
        <pt x="514" y="673" on="0"/>
        <pt x="652" y="620" on="0"/>
        <pt x="755" y="527" on="0"/>
        <pt x="816" y="402" on="0"/>
        <pt x="816" y="331" on="1"/>
        <pt x="816" y="323" on="1"/>
      </contour>
      <contour>
        <pt x="677" y="537" on="1"/>
        <pt x="677" y="543" on="0"/>
        <pt x="670" y="553" on="0"/>
        <pt x="664" y="559" on="1"/>
        <pt x="622" y="603" on="0"/>
        <pt x="503" y="653" on="0"/>
        <pt x="437" y="653" on="1"/>
        <pt x="368" y="653" on="0"/>
        <pt x="248" y="601" on="0"/>
        <pt x="203" y="556" on="1"/>
        <pt x="197" y="550" on="0"/>
        <pt x="191" y="540" on="0"/>
        <pt x="191" y="532" on="1"/>
        <pt x="191" y="347" on="1"/>
        <pt x="191" y="342" on="0"/>
        <pt x="199" y="342" on="1"/>
        <pt x="669" y="342" on="1"/>
        <pt x="677" y="342" on="0"/>
        <pt x="677" y="347" on="1"/>
      </contour>
    </TTGlyph>
    <TTGlyph name="eth" xMin="30" yMin="-9" xMax="530" yMax="734">
      <contour>
        <pt x="111" y="575" on="1"/>
        <pt x="203" y="620" on="1"/>
        <pt x="130" y="661" on="1"/>
        <pt x="169" y="729" on="1"/>
        <pt x="208" y="717" on="0"/>
        <pt x="277" y="689" on="0"/>
        <pt x="307" y="671" on="1"/>
        <pt x="435" y="734" on="1"/>
        <pt x="480" y="657" on="1"/>
        <pt x="388" y="612" on="1"/>
        <pt x="462" y="543" on="0"/>
        <pt x="530" y="368" on="0"/>
        <pt x="530" y="273" on="1"/>
        <pt x="530" y="207" on="0"/>
        <pt x="494" y="102" on="0"/>
        <pt x="427" y="29" on="0"/>
        <pt x="333" y="-9" on="0"/>
        <pt x="275" y="-9" on="1"/>
        <pt x="272" y="-9" on="1"/>
        <pt x="217" y="-9" on="0"/>
        <pt x="127" y="28" on="0"/>
        <pt x="64" y="94" on="0"/>
        <pt x="30" y="183" on="0"/>
        <pt x="30" y="235" on="1"/>
        <pt x="30" y="289" on="0"/>
        <pt x="66" y="375" on="0"/>
        <pt x="127" y="435" on="0"/>
        <pt x="209" y="467" on="0"/>
        <pt x="254" y="467" on="1"/>
        <pt x="282" y="467" on="0"/>
        <pt x="342" y="453" on="0"/>
        <pt x="367" y="441" on="1"/>
        <pt x="355" y="476" on="0"/>
        <pt x="313" y="538" on="0"/>
        <pt x="284" y="561" on="1"/>
        <pt x="156" y="499" on="1"/>
      </contour>
      <contour>
        <pt x="399" y="263" on="1"/>
        <pt x="399" y="281" on="0"/>
        <pt x="397" y="311" on="0"/>
        <pt x="394" y="327" on="1"/>
        <pt x="392" y="335" on="0"/>
        <pt x="385" y="342" on="0"/>
        <pt x="377" y="346" on="1"/>
        <pt x="362" y="353" on="0"/>
        <pt x="313" y="362" on="0"/>
        <pt x="284" y="362" on="1"/>
        <pt x="280" y="362" on="1"/>
        <pt x="226" y="362" on="0"/>
        <pt x="161" y="304" on="0"/>
        <pt x="161" y="235" on="1"/>
        <pt x="161" y="179" on="0"/>
        <pt x="220" y="107" on="0"/>
        <pt x="280" y="107" on="1"/>
        <pt x="343" y="107" on="0"/>
        <pt x="399" y="190" on="0"/>
      </contour>
    </TTGlyph>
    <TTGlyph name="exclam" xMin="72" yMin="0" xMax="208" yMax="663">
      <contour>
        <pt x="208" y="0" on="1"/>
        <pt x="72" y="0" on="1"/>
        <pt x="72" y="130" on="1"/>
        <pt x="186" y="130" on="1"/>
        <pt x="199" y="130" on="0"/>
        <pt x="208" y="120" on="0"/>
        <pt x="208" y="109" on="1"/>
      </contour>
      <contour>
        <pt x="82" y="339" on="1"/>
        <pt x="79" y="369" on="0"/>
        <pt x="74" y="420" on="0"/>
        <pt x="74" y="445" on="1"/>
        <pt x="74" y="663" on="1"/>
        <pt x="206" y="663" on="1"/>
        <pt x="206" y="445" on="1"/>
        <pt x="206" y="420" on="0"/>
        <pt x="201" y="369" on="0"/>
        <pt x="198" y="339" on="1"/>
        <pt x="182" y="195" on="1"/>
        <pt x="98" y="195" on="1"/>
      </contour>
    </TTGlyph>
    <TTGlyph name="exclamdown" xMin="67" yMin="-175" xMax="203" yMax="488">
      <component glyphName="exclam" x="275" y="488" scale="-0.99994" flags="0x4"/>
    </TTGlyph>
    <TTGlyph name="exclamdown.cap" xMin="67" yMin="0" xMax="203" yMax="663">
      <component glyphName="exclam" x="275" y="663" scale="-0.99994" flags="0x4"/>
    </TTGlyph>
    <TTGlyph name="f" xMin="2" yMin="0" xMax="427" yMax="719">
      <contour>
        <pt x="2" y="467" on="1"/>
        <pt x="88" y="485" on="1"/>
        <pt x="83" y="499" on="0"/>
        <pt x="76" y="541" on="0"/>
        <pt x="76" y="561" on="1"/>
        <pt x="76" y="595" on="0"/>
        <pt x="101" y="653" on="0"/>
        <pt x="147" y="695" on="0"/>
        <pt x="213" y="719" on="0"/>
        <pt x="255" y="719" on="1"/>
        <pt x="300" y="719" on="0"/>
        <pt x="390" y="689" on="0"/>
        <pt x="427" y="665" on="1"/>
        <pt x="397" y="588" on="1"/>
        <pt x="350" y="598" on="1"/>
        <pt x="308" y="607" on="0"/>
        <pt x="279" y="607" on="1"/>
        <pt x="243" y="607" on="0"/>
        <pt x="206" y="579" on="0"/>
        <pt x="206" y="547" on="1"/>
        <pt x="206" y="533" on="0"/>
        <pt x="211" y="499" on="0"/>
        <pt x="216" y="488" on="1"/>
        <pt x="382" y="488" on="1"/>
        <pt x="382" y="387" on="1"/>
        <pt x="220" y="387" on="1"/>
        <pt x="220" y="0" on="1"/>
        <pt x="91" y="0" on="1"/>
        <pt x="91" y="387" on="1"/>
        <pt x="2" y="387" on="1"/>
      </contour>
    </TTGlyph>
</ttFont>
